Vazir.sfdir
StartChar: exclam
Encoding: 33 33 1
Width: 771
GlyphClass: 2
Flags: W
LayerCount: 2
Fore
SplineSet
290.46 198.76 m 1,0,-1
 481.28 198.76 l 1,1,-1
 481.28 -5.49316e-06 l 1,2,-1
 290.46 -5.49316e-06 l 1,3,-1
 290.46 198.76 l 1,0,-1
290.46 1403.42 m 1,4,-1
 481.28 1403.42 l 1,5,-1
 481.28 787.72 l 1,6,-1
 462.48 452.14 l 5,7,-1
 310.2 452.14 l 1,8,-1
 290.46 787.72 l 1,9,-1
 290.46 1403.42 l 1,4,-1
EndSplineSet
EndChar
StartChar: quotedbl
Encoding: 34 34 2
Width: 885
GlyphClass: 2
Flags: W
LayerCount: 2
Fore
SplineSet
344.98 1403.42 m 1,0,-1
 344.98 881.72 l 1,1,-1
 185.18 881.72 l 1,2,-1
 185.18 1403.42 l 1,3,-1
 344.98 1403.42 l 1,0,-1
700.3 1403.42 m 1,4,-1
 700.3 881.72 l 1,5,-1
 540.5 881.72 l 1,6,-1
 540.5 1403.42 l 1,7,-1
 700.3 1403.42 l 1,4,-1
EndSplineSet
EndChar
StartChar: numbersign
Encoding: 35 35 3
Width: 1613
GlyphClass: 2
Flags: W
LayerCount: 2
Fore
SplineSet
984.18 846.94 m 1,0,-1
 710.64 846.94 l 1,1,-1
 631.68 532.98 l 1,2,-1
 907.1 532.98 l 1,3,-1
 984.18 846.94 l 1,0,-1
843.18 1381.8 m 1,4,-1
 745.42 991.7 l 1,5,-1
 1019.9 991.7 l 1,6,-1
 1118.6 1381.8 l 1,7,-1
 1269 1381.8 l 1,8,-1
 1172.18 991.7 l 1,9,-1
 1465.46 991.7 l 1,10,-1
 1465.46 846.94 l 1,11,-1
 1135.52 846.94 l 1,12,-1
 1058.44 532.98 l 1,13,-1
 1357.36 532.98 l 1,14,-1
 1357.36 389.16 l 1,15,-1
 1021.78 389.16 l 1,16,-1
 924.02 3.41797e-05 l 1,17,-1
 773.62 3.41797e-05 l 1,18,-1
 870.44 389.16 l 1,19,-1
 595.02 389.16 l 1,20,-1
 498.2 3.41797e-05 l 1,21,-1
 346.86 3.41797e-05 l 1,22,-1
 444.62 389.16 l 1,23,-1
 148.52 389.16 l 1,24,-1
 148.52 532.98 l 1,25,-1
 479.4 532.98 l 1,26,-1
 558.36 846.94 l 1,27,-1
 255.68 846.94 l 1,28,-1
 255.68 991.7 l 1,29,-1
 595.02 991.7 l 1,30,-1
 690.9 1381.8 l 1,31,-1
 843.18 1381.8 l 1,4,-1
EndSplineSet
EndChar
StartChar: dollar
Encoding: 36 36 4
Width: 1224
GlyphClass: 2
Flags: W
LayerCount: 2
Fore
SplineSet
650.48 -282.94 m 1,0,-1
 556.48 -282.94 l 1,1,-1
 555.54 -2.44141e-06 l 1,2,3
 456.84 1.87988 456.84 1.87988 358.14 23.0303 c 128,-1,4
 259.44 44.1797 259.44 44.1797 159.8 86.4805 c 1,5,-1
 159.8 255.68 l 1,6,7
 255.68 195.52 255.68 195.52 353.91 164.969 c 128,-1,8
 452.14 134.419 452.14 134.419 556.48 133.479 c 1,9,-1
 556.48 562.12 l 1,10,11
 348.74 595.96 348.74 595.96 254.27 676.799 c 128,-1,12
 159.8 757.64 159.8 757.64 159.8 898.64 c 0,13,14
 159.8 1051.86 159.8 1051.86 262.26 1140.22 c 128,-1,15
 364.72 1228.58 364.72 1228.58 556.48 1241.74 c 1,16,-1
 556.48 1462.64 l 1,17,-1
 650.48 1462.64 l 1,18,-1
 650.48 1244.56 l 1,19,20
 737.9 1240.8 737.9 1240.8 819.68 1226.23 c 128,-1,21
 901.46 1211.66 901.46 1211.66 979.48 1186.28 c 1,22,-1
 979.48 1021.78 l 1,23,24
 901.46 1061.26 901.46 1061.26 819.21 1082.88 c 128,-1,25
 736.96 1104.5 736.96 1104.5 650.48 1108.26 c 1,26,-1
 650.48 706.88 l 1,27,28
 863.86 673.979 863.86 673.979 964.44 589.38 c 128,-1,29
 1065.02 504.78 1065.02 504.78 1065.02 358.14 c 0,30,31
 1065.02 199.28 1065.02 199.28 958.33 107.63 c 128,-1,32
 851.64 15.98 851.64 15.98 650.48 1.87952 c 1,33,-1
 650.48 -282.94 l 1,0,-1
556.48 723.8 m 1,34,-1
 556.48 1109.2 l 1,35,36
 447.44 1096.98 447.44 1096.98 390.1 1047.16 c 128,-1,37
 332.76 997.34 332.76 997.34 332.76 914.62 c 0,38,39
 332.76 833.78 332.76 833.78 385.87 788.66 c 128,-1,40
 438.98 743.54 438.98 743.54 556.48 723.8 c 1,34,-1
650.48 543.32 m 1,41,-1
 650.48 136.3 l 1,42,43
 769.86 152.28 769.86 152.28 830.49 203.98 c 128,-1,44
 891.12 255.68 891.12 255.68 891.12 340.28 c 0,45,46
 891.12 423 891.12 423 833.31 471.88 c 128,-1,47
 775.5 520.76 775.5 520.76 650.48 543.32 c 1,41,-1
EndSplineSet
EndChar
StartChar: percent
Encoding: 37 37 5
Width: 1829
GlyphClass: 2
Flags: W
LayerCount: 2
Fore
SplineSet
1399.66 617.58 m 0,0,1
 1317.88 617.58 1317.88 617.58 1271.35 548.02 c 128,-1,2
 1224.82 478.46 1224.82 478.46 1224.82 354.38 c 0,3,4
 1224.82 232.18 1224.82 232.18 1271.35 162.15 c 128,-1,5
 1317.88 92.1201 1317.88 92.1201 1399.66 92.1201 c 0,6,7
 1479.56 92.1201 1479.56 92.1201 1526.09 162.15 c 128,-1,8
 1572.62 232.18 1572.62 232.18 1572.62 354.38 c 0,9,10
 1572.62 477.52 1572.62 477.52 1526.09 547.55 c 128,-1,11
 1479.56 617.58 1479.56 617.58 1399.66 617.58 c 0,0,1
1399.66 736.96 m 0,12,13
 1548.18 736.96 1548.18 736.96 1635.6 633.56 c 128,-1,14
 1723.02 530.16 1723.02 530.16 1723.02 354.38 c 128,-1,15
 1723.02 178.6 1723.02 178.6 1635.13 75.67 c 128,-1,16
 1547.24 -27.26 1547.24 -27.26 1399.66 -27.26 c 0,17,18
 1249.26 -27.26 1249.26 -27.26 1161.84 75.67 c 128,-1,19
 1074.42 178.6 1074.42 178.6 1074.42 354.38 c 0,20,21
 1074.42 531.1 1074.42 531.1 1162.31 634.03 c 128,-1,22
 1250.2 736.96 1250.2 736.96 1399.66 736.96 c 0,12,13
429.58 1309.42 m 128,-1,24
 348.74 1309.42 348.74 1309.42 302.21 1239.39 c 128,-1,25
 255.68 1169.36 255.68 1169.36 255.68 1047.16 c 0,26,27
 255.68 923.08 255.68 923.08 301.74 853.52 c 128,-1,28
 347.8 783.96 347.8 783.96 429.58 783.96 c 128,-1,29
 511.36 783.96 511.36 783.96 557.89 853.52 c 128,-1,30
 604.42 923.08 604.42 923.08 604.42 1047.16 c 0,31,32
 604.42 1168.42 604.42 1168.42 557.42 1238.92 c 128,-1,23
 510.42 1309.42 510.42 1309.42 429.58 1309.42 c 128,-1,24
1278.4 1428.8 m 1,33,-1
 1428.8 1428.8 l 1,34,-1
 550.84 -27.26 l 1,35,-1
 400.44 -27.26 l 1,36,-1
 1278.4 1428.8 l 1,33,-1
429.58 1428.8 m 128,-1,38
 578.1 1428.8 578.1 1428.8 666.46 1325.87 c 128,-1,39
 754.82 1222.94 754.82 1222.94 754.82 1047.16 c 0,40,41
 754.82 869.5 754.82 869.5 666.93 767.04 c 128,-1,42
 579.04 664.58 579.04 664.58 429.58 664.58 c 128,-1,43
 280.12 664.58 280.12 664.58 193.17 767.51 c 128,-1,44
 106.22 870.44 106.22 870.44 106.22 1047.16 c 0,45,46
 106.22 1222 106.22 1222 193.64 1325.4 c 128,-1,37
 281.06 1428.8 281.06 1428.8 429.58 1428.8 c 128,-1,38
EndSplineSet
EndChar
StartChar: ampersand
Encoding: 38 38 6
Width: 1501
GlyphClass: 2
Flags: W
LayerCount: 2
Fore
SplineSet
468.12 754.82 m 1,0,1
 382.58 678.68 382.58 678.68 342.63 603.01 c 128,-1,2
 302.68 527.34 302.68 527.34 302.68 444.62 c 0,3,4
 302.68 307.38 302.68 307.38 402.32 216.2 c 128,-1,5
 501.96 125.02 501.96 125.02 652.36 125.02 c 0,6,7
 741.66 125.02 741.66 125.02 819.68 154.63 c 128,-1,8
 897.7 184.24 897.7 184.24 966.32 244.4 c 1,9,-1
 468.12 754.82 l 1,0,1
600.66 860.1 m 2,10,-1
 1078.18 371.3 l 1,11,12
 1133.64 454.96 1133.64 454.96 1164.66 550.37 c 128,-1,13
 1195.68 645.78 1195.68 645.78 1201.32 752.94 c 1,14,-1
 1376.16 752.94 l 1,15,16
 1364.88 628.86 1364.88 628.86 1316 507.6 c 128,-1,17
 1267.12 386.34 1267.12 386.34 1179.7 267.9 c 1,18,-1
 1441.96 -6.10352e-06 l 1,19,-1
 1205.08 -6.10352e-06 l 1,20,-1
 1070.66 138.18 l 1,21,22
 972.9 54.5195 972.9 54.5195 865.74 13.63 c 128,-1,23
 758.58 -27.2597 758.58 -27.2597 635.44 -27.2597 c 0,24,25
 408.9 -27.2597 408.9 -27.2597 265.08 101.99 c 128,-1,26
 121.26 231.24 121.26 231.24 121.26 433.34 c 0,27,28
 121.26 553.66 121.26 553.66 184.24 659.41 c 128,-1,29
 247.22 765.16 247.22 765.16 373.18 858.22 c 1,30,31
 328.06 917.44 328.06 917.44 304.56 976.19 c 128,-1,32
 281.06 1034.94 281.06 1034.94 281.06 1091.34 c 0,33,34
 281.06 1243.62 281.06 1243.62 385.4 1336.21 c 128,-1,35
 489.74 1428.8 489.74 1428.8 662.7 1428.8 c 0,36,37
 740.72 1428.8 740.72 1428.8 818.27 1411.88 c 128,-1,38
 895.82 1394.96 895.82 1394.96 975.72 1361.12 c 1,39,-1
 975.72 1190.04 l 1,40,41
 893.94 1234.22 893.94 1234.22 819.68 1257.25 c 128,-1,42
 745.42 1280.28 745.42 1280.28 681.5 1280.28 c 0,43,44
 582.8 1280.28 582.8 1280.28 521.23 1228.11 c 128,-1,45
 459.66 1175.94 459.66 1175.94 459.66 1093.22 c 0,46,47
 459.66 1045.28 459.66 1045.28 487.39 996.87 c 128,-1,48
 515.12 948.46 515.12 948.46 600.66 860.1 c 2,10,-1
EndSplineSet
EndChar
StartChar: quotesingle
Encoding: 39 39 7
Width: 529
GlyphClass: 2
Flags: W
LayerCount: 2
Fore
SplineSet
344.98 1403.42 m 1,0,-1
 344.98 881.72 l 1,1,-1
 185.18 881.72 l 1,2,-1
 185.18 1403.42 l 1,3,-1
 344.98 1403.42 l 1,0,-1
EndSplineSet
EndChar
StartChar: parenleft
Encoding: 40 40 2
Width: 799
GlyphClass: 2
Flags: W
GlyphCompositionVertical: 3  uni239D%0,0,48,2968 uni239C%1,48,48,2999 uni239B%0,48,0,3009
LayerCount: 2
Fore
SplineSet
635 1554 m 1,0,1
 501 1324 501 1324 436 1099 c 128,-1,2
 371 874 371 874 371 643 c 256,3,4
 371 412 371 412 436.5 185.5 c 128,-1,5
 502 -41 502 -41 635 -270 c 1,6,-1
 475 -270 l 1,7,8
 325 -35 325 -35 250.5 192 c 128,-1,9
 176 419 176 419 176 643 c 0,10,11
 176 866 176 866 250 1092 c 128,-1,12
 324 1318 324 1318 475 1554 c 1,13,-1
 635 1554 l 1,0,1
EndSplineSet
EndChar
StartChar: parenright
Encoding: 41 41 3
Width: 799
GlyphClass: 2
Flags: W
GlyphCompositionVertical: 3  uni23A0%0,0,48,2968 uni239F%1,48,48,2999 uni239E%0,48,0,3009
LayerCount: 2
Fore
SplineSet
164 1554 m 1,0,-1
 324 1554 l 1,1,2
 474 1318 474 1318 548.5 1092 c 128,-1,3
 623 866 623 866 623 643 c 0,4,5
 623 419 623 419 548.5 192 c 128,-1,6
 474 -35 474 -35 324 -270 c 1,7,-1
 164 -270 l 1,8,9
 297 -41 297 -41 362.5 185.5 c 128,-1,10
 428 412 428 412 428 643 c 256,11,12
 428 874 428 874 362.5 1099 c 128,-1,13
 297 1324 297 1324 164 1554 c 1,0,-1
EndSplineSet
EndChar
StartChar: asterisk
Encoding: 42 42 10
Width: 962
GlyphClass: 2
Flags: W
LayerCount: 2
Fore
SplineSet
905.22 1172.18 m 1,0,-1
 567.76 989.82 l 1,1,-1
 905.22 806.52 l 1,2,-1
 850.7 714.4 l 1,3,-1
 534.86 905.22 l 1,4,-1
 534.86 550.84 l 1,5,-1
 427.7 550.84 l 1,6,-1
 427.7 905.22 l 1,7,-1
 111.86 714.4 l 1,8,-1
 57.3397 806.52 l 1,9,-1
 394.8 989.82 l 1,10,-1
 57.3397 1172.18 l 1,11,-1
 111.86 1265.24 l 1,12,-1
 427.7 1074.42 l 1,13,-1
 427.7 1428.8 l 1,14,-1
 534.86 1428.8 l 1,15,-1
 534.86 1074.42 l 1,16,-1
 850.7 1265.24 l 1,17,-1
 905.22 1172.18 l 1,0,-1
EndSplineSet
EndChar
StartChar: plus
Encoding: 43 43 5
Width: 1613
GlyphClass: 2
Flags: W
LayerCount: 2
Fore
SplineSet
885.48 1206.96 m 1,0,-1
 885.48 683.38 l 1,1,-1
 1409.06 683.38 l 1,2,-1
 1409.06 523.58 l 1,3,-1
 885.48 523.58 l 1,4,-1
 885.48 -4.39453e-05 l 1,5,-1
 727.56 -4.39453e-05 l 1,6,-1
 727.56 523.58 l 1,7,-1
 203.98 523.58 l 1,8,-1
 203.98 683.38 l 1,9,-1
 727.56 683.38 l 1,10,-1
 727.56 1206.96 l 1,11,-1
 885.48 1206.96 l 1,0,-1
EndSplineSet
EndChar
StartChar: comma
Encoding: 44 44 12
Width: 611
GlyphClass: 2
Flags: W
LayerCount: 2
Fore
SplineSet
225.6 238.76 m 1,0,-1
 423.94 238.76 l 1,1,-1
 423.94 77.08 l 1,2,-1
 269.78 -223.72 l 1,3,-1
 148.52 -223.72 l 1,4,-1
 225.6 77.08 l 1,5,-1
 225.6 238.76 l 1,0,-1
EndSplineSet
EndChar
StartChar: hyphen
Encoding: 45 45 13
Width: 694
GlyphClass: 2
Flags: W
LayerCount: 2
Fore
SplineSet
94 604.42 m 1,0,-1
 600.66 604.42 l 1,1,-1
 600.66 450.26 l 1,2,-1
 94 450.26 l 1,3,-1
 94 604.42 l 1,0,-1
EndSplineSet
EndChar
StartChar: period
Encoding: 46 46 4
Width: 496
VWidth: 2158
GlyphClass: 2
Flags: W
LayerCount: 2
Fore
SplineSet
152.333007812 201.890625 m 1,0,-1
 353.780273438 201.890625 l 1,1,-1
 353.780273438 0 l 1,2,-1
 152.333007812 0 l 1,3,-1
 152.333007812 201.890625 l 1,0,-1
EndSplineSet
EndChar
StartChar: slash
Encoding: 47 47 15
Width: 648
GlyphClass: 2
Flags: W
LayerCount: 2
Fore
SplineSet
488.8 1403.42 m 1,0,-1
 648.6 1403.42 l 1,1,-1
 159.8 -178.6 l 1,2,-1
 -2.74658e-05 -178.6 l 1,3,-1
 488.8 1403.42 l 1,0,-1
EndSplineSet
EndChar
StartChar: zero
Encoding: 48 48 320
Width: 1223
Flags: W
LayerCount: 2
Fore
SplineSet
611.94 1278.4 m 0,0,1
 465.3 1278.4 465.3 1278.4 391.51 1134.11 c 128,-1,2
 317.72 989.82 317.72 989.82 317.72 700.3 c 0,3,4
 317.72 411.72 317.72 411.72 391.51 267.43 c 128,-1,5
 465.3 123.14 465.3 123.14 611.94 123.14 c 0,6,7
 759.52 123.14 759.52 123.14 833.31 267.43 c 128,-1,8
 907.1 411.72 907.1 411.72 907.1 700.3 c 0,9,10
 907.1 989.82 907.1 989.82 833.31 1134.11 c 128,-1,11
 759.52 1278.4 759.52 1278.4 611.94 1278.4 c 0,0,1
611.94 1428.8 m 128,-1,13
 847.88 1428.8 847.88 1428.8 972.43 1242.21 c 128,-1,14
 1096.98 1055.62 1096.98 1055.62 1096.98 700.3 c 0,15,16
 1096.98 345.92 1096.98 345.92 972.43 159.33 c 128,-1,17
 847.88 -27.2599 847.88 -27.2599 611.94 -27.2599 c 128,-1,18
 376 -27.2599 376 -27.2599 251.45 159.33 c 128,-1,19
 126.9 345.92 126.9 345.92 126.9 700.3 c 0,20,21
 126.9 1055.62 126.9 1055.62 251.45 1242.21 c 128,-1,12
 376 1428.8 376 1428.8 611.94 1428.8 c 128,-1,13
EndSplineSet
EndChar
StartChar: one
Encoding: 49 49 321
Width: 1223
Flags: W
LayerCount: 2
Fore
SplineSet
238.76 159.8 m 1,0,-1
 548.96 159.8 l 1,1,-1
 548.96 1230.46 l 1,2,-1
 211.5 1162.78 l 1,3,-1
 211.5 1335.74 l 1,4,-1
 547.08 1403.42 l 1,5,-1
 736.96 1403.42 l 1,6,-1
 736.96 159.8 l 1,7,-1
 1047.16 159.8 l 1,8,-1
 1047.16 4.88281e-05 l 1,9,-1
 238.76 4.88281e-05 l 1,10,-1
 238.76 159.8 l 1,0,-1
EndSplineSet
EndChar
StartChar: two
Encoding: 50 50 322
Width: 1223
Flags: W
LayerCount: 2
Fore
SplineSet
369.42 159.8 m 1,0,-1
 1032.12 159.8 l 1,1,-1
 1032.12 3.05176e-06 l 1,2,-1
 141 3.05176e-06 l 1,3,-1
 141 159.8 l 1,4,5
 249.1 271.66 249.1 271.66 435.69 460.13 c 128,-1,6
 622.28 648.6 622.28 648.6 670.22 703.12 c 0,7,8
 761.4 805.58 761.4 805.58 797.59 876.55 c 128,-1,9
 833.78 947.52 833.78 947.52 833.78 1016.14 c 0,10,11
 833.78 1128 833.78 1128 755.29 1198.5 c 128,-1,12
 676.8 1269 676.8 1269 550.84 1269 c 0,13,14
 461.54 1269 461.54 1269 362.37 1237.98 c 128,-1,15
 263.2 1206.96 263.2 1206.96 150.4 1143.98 c 1,16,-1
 150.4 1335.74 l 1,17,18
 265.08 1381.8 265.08 1381.8 364.72 1405.3 c 128,-1,19
 464.36 1428.8 464.36 1428.8 547.08 1428.8 c 0,20,21
 765.16 1428.8 765.16 1428.8 894.88 1319.76 c 128,-1,22
 1024.6 1210.72 1024.6 1210.72 1024.6 1028.36 c 0,23,24
 1024.6 941.88 1024.6 941.88 992.17 864.33 c 128,-1,25
 959.74 786.78 959.74 786.78 874.2 681.5 c 1,26,27
 850.7 654.24 850.7 654.24 724.74 524.05 c 128,-1,28
 598.78 393.86 598.78 393.86 369.42 159.8 c 1,0,-1
EndSplineSet
EndChar
StartChar: three
Encoding: 51 51 323
Width: 1223
Flags: W
LayerCount: 2
Fore
SplineSet
781.14 756.7 m 1,0,1
 917.44 727.56 917.44 727.56 994.05 635.44 c 128,-1,2
 1070.66 543.32 1070.66 543.32 1070.66 407.96 c 0,3,4
 1070.66 200.22 1070.66 200.22 927.78 86.481 c 128,-1,5
 784.9 -27.259 784.9 -27.259 521.7 -27.259 c 0,6,7
 433.34 -27.259 433.34 -27.259 339.81 -9.8693 c 128,-1,8
 246.28 7.5204 246.28 7.5204 146.64 42.3006 c 1,9,-1
 146.64 225.601 l 1,10,11
 225.6 179.541 225.6 179.541 319.6 156.041 c 128,-1,12
 413.6 132.541 413.6 132.541 516.06 132.541 c 0,13,14
 694.66 132.541 694.66 132.541 788.19 203.041 c 128,-1,15
 881.72 273.541 881.72 273.541 881.72 407.961 c 0,16,17
 881.72 532.041 881.72 532.041 794.77 602.071 c 128,-1,18
 707.82 672.101 707.82 672.101 552.72 672.101 c 2,19,-1
 389.16 672.101 l 1,20,-1
 389.16 828.141 l 1,21,-1
 560.24 828.141 l 2,22,23
 700.3 828.141 700.3 828.141 774.56 884.071 c 128,-1,24
 848.82 940.001 848.82 940.001 848.82 1045.28 c 0,25,26
 848.82 1153.38 848.82 1153.38 772.21 1211.19 c 128,-1,27
 695.6 1269 695.6 1269 552.72 1269 c 0,28,29
 474.7 1269 474.7 1269 385.4 1252.08 c 128,-1,30
 296.1 1235.16 296.1 1235.16 188.94 1199.44 c 1,31,-1
 188.94 1368.64 l 1,32,33
 297.04 1398.72 297.04 1398.72 391.51 1413.76 c 128,-1,34
 485.98 1428.8 485.98 1428.8 569.64 1428.8 c 0,35,36
 785.84 1428.8 785.84 1428.8 911.8 1330.57 c 128,-1,37
 1037.76 1232.34 1037.76 1232.34 1037.76 1065.02 c 0,38,39
 1037.76 948.461 1037.76 948.461 971.02 868.091 c 128,-1,40
 904.28 787.72 904.28 787.72 781.14 756.7 c 1,0,1
EndSplineSet
EndChar
StartChar: four
Encoding: 52 52 324
Width: 1223
Flags: W
LayerCount: 2
Fore
SplineSet
727.56 1237.98 m 1,0,-1
 248.16 488.8 l 1,1,-1
 727.56 488.8 l 1,2,-1
 727.56 1237.98 l 1,0,-1
677.74 1403.42 m 1,3,-1
 916.5 1403.42 l 1,4,-1
 916.5 488.8 l 1,5,-1
 1116.72 488.8 l 1,6,-1
 1116.72 330.88 l 1,7,-1
 916.5 330.88 l 1,8,-1
 916.5 3.54004e-05 l 1,9,-1
 727.56 3.54004e-05 l 1,10,-1
 727.56 330.88 l 1,11,-1
 94 330.88 l 1,12,-1
 94 514.18 l 1,13,-1
 677.74 1403.42 l 1,3,-1
EndSplineSet
EndChar
StartChar: five
Encoding: 53 53 325
Width: 1223
Flags: W
LayerCount: 2
Fore
SplineSet
207.74 1403.42 m 1,0,-1
 953.16 1403.42 l 1,1,-1
 953.16 1243.62 l 1,2,-1
 381.64 1243.62 l 1,3,-1
 381.64 899.58 l 1,4,5
 423 913.68 423 913.68 464.36 920.73 c 128,-1,6
 505.72 927.78 505.72 927.78 547.08 927.78 c 0,7,8
 782.08 927.78 782.08 927.78 919.32 799 c 128,-1,9
 1056.56 670.22 1056.56 670.22 1056.56 450.26 c 0,10,11
 1056.56 223.72 1056.56 223.72 915.56 98.2301 c 128,-1,12
 774.56 -27.2599 774.56 -27.2599 517.94 -27.2599 c 0,13,14
 429.58 -27.2599 429.58 -27.2599 337.93 -12.2198 c 128,-1,15
 246.28 2.82017 246.28 2.82017 148.52 32.9003 c 1,16,-1
 148.52 223.72 l 1,17,18
 233.12 177.66 233.12 177.66 323.36 155.1 c 128,-1,19
 413.6 132.54 413.6 132.54 514.18 132.54 c 0,20,21
 676.8 132.54 676.8 132.54 771.74 218.08 c 128,-1,22
 866.68 303.62 866.68 303.62 866.68 450.26 c 128,-1,23
 866.68 596.9 866.68 596.9 771.74 682.44 c 128,-1,24
 676.8 767.98 676.8 767.98 514.18 767.98 c 0,25,26
 438.04 767.98 438.04 767.98 362.37 751.06 c 128,-1,27
 286.7 734.14 286.7 734.14 207.74 698.42 c 1,28,-1
 207.74 1403.42 l 1,0,-1
EndSplineSet
EndChar
StartChar: six
Encoding: 54 54 326
Width: 1223
Flags: W
LayerCount: 2
Fore
SplineSet
628.44 777.38 m 128,-1,1
 500.6 777.38 500.6 777.38 425.87 689.96 c 128,-1,2
 351.14 602.54 351.14 602.54 351.14 450.26 c 0,3,4
 351.14 298.92 351.14 298.92 425.87 211.03 c 128,-1,5
 500.6 123.14 500.6 123.14 628.44 123.14 c 128,-1,6
 756.28 123.14 756.28 123.14 831.01 211.03 c 128,-1,7
 905.74 298.92 905.74 298.92 905.74 450.26 c 0,8,9
 905.74 602.54 905.74 602.54 831.01 689.96 c 128,-1,0
 756.28 777.38 756.28 777.38 628.44 777.38 c 128,-1,1
1005.38 1372.4 m 1,10,-1
 1005.38 1199.44 l 1,11,12
 933.94 1233.28 933.94 1233.28 861.09 1251.14 c 128,-1,13
 788.24 1269 788.24 1269 716.8 1269 c 0,14,15
 528.8 1269 528.8 1269 429.63 1142.1 c 128,-1,16
 330.46 1015.2 330.46 1015.2 316.36 758.58 c 1,17,18
 371.82 840.36 371.82 840.36 455.48 884.07 c 128,-1,19
 539.14 927.78 539.14 927.78 639.72 927.78 c 0,20,21
 851.22 927.78 851.22 927.78 973.89 799.47 c 128,-1,22
 1096.56 671.16 1096.56 671.16 1096.56 450.26 c 0,23,24
 1096.56 234.06 1096.56 234.06 968.72 103.4 c 128,-1,25
 840.88 -27.2599 840.88 -27.2599 628.44 -27.2599 c 0,26,27
 384.98 -27.2599 384.98 -27.2599 256.2 159.33 c 128,-1,28
 127.42 345.92 127.42 345.92 127.42 700.3 c 0,29,30
 127.42 1033.06 127.42 1033.06 285.34 1230.93 c 128,-1,31
 443.26 1428.8 443.26 1428.8 709.28 1428.8 c 0,32,33
 780.72 1428.8 780.72 1428.8 853.57 1414.7 c 128,-1,34
 926.42 1400.6 926.42 1400.6 1005.38 1372.4 c 1,10,-1
EndSplineSet
EndChar
StartChar: seven
Encoding: 55 55 327
Width: 1223
Flags: W
LayerCount: 2
Fore
SplineSet
157.92 1403.42 m 1,0,-1
 1060.32 1403.42 l 1,1,-1
 1060.32 1322.58 l 1,2,-1
 550.84 -4.39453e-05 l 1,3,-1
 352.5 -4.39453e-05 l 1,4,-1
 831.9 1243.62 l 1,5,-1
 157.92 1243.62 l 1,6,-1
 157.92 1403.42 l 1,0,-1
EndSplineSet
EndChar
StartChar: eight
Encoding: 56 56 328
Width: 1223
Flags: W
LayerCount: 2
Fore
SplineSet
611.94 666.46 m 0,0,1
 476.58 666.46 476.58 666.46 399.03 594.08 c 128,-1,2
 321.48 521.7 321.48 521.7 321.48 394.8 c 128,-1,3
 321.48 267.9 321.48 267.9 399.03 195.52 c 128,-1,4
 476.58 123.14 476.58 123.14 611.94 123.14 c 128,-1,5
 747.3 123.14 747.3 123.14 825.32 195.99 c 128,-1,6
 903.34 268.84 903.34 268.84 903.34 394.8 c 0,7,8
 903.34 521.7 903.34 521.7 825.79 594.08 c 128,-1,9
 748.24 666.46 748.24 666.46 611.94 666.46 c 0,0,1
422.06 747.3 m 1,10,11
 299.86 777.38 299.86 777.38 231.71 861.04 c 128,-1,12
 163.56 944.7 163.56 944.7 163.56 1065.02 c 0,13,14
 163.56 1233.28 163.56 1233.28 283.41 1331.04 c 128,-1,15
 403.26 1428.8 403.26 1428.8 611.94 1428.8 c 0,16,17
 821.56 1428.8 821.56 1428.8 940.94 1331.04 c 128,-1,18
 1060.32 1233.28 1060.32 1233.28 1060.32 1065.02 c 0,19,20
 1060.32 944.7 1060.32 944.7 992.17 861.04 c 128,-1,21
 924.02 777.38 924.02 777.38 802.76 747.3 c 1,22,23
 940 715.34 940 715.34 1016.61 622.28 c 128,-1,24
 1093.22 529.22 1093.22 529.22 1093.22 394.8 c 0,25,26
 1093.22 190.82 1093.22 190.82 968.67 81.78 c 128,-1,27
 844.12 -27.26 844.12 -27.26 611.94 -27.26 c 128,-1,28
 379.76 -27.26 379.76 -27.26 255.21 81.78 c 128,-1,29
 130.66 190.82 130.66 190.82 130.66 394.8 c 0,30,31
 130.66 529.22 130.66 529.22 207.74 622.28 c 128,-1,32
 284.82 715.34 284.82 715.34 422.06 747.3 c 1,10,11
352.5 1047.16 m 128,-1,34
 352.5 938.12 352.5 938.12 420.65 877.02 c 128,-1,35
 488.8 815.92 488.8 815.92 611.94 815.92 c 0,36,37
 734.14 815.92 734.14 815.92 803.23 877.02 c 128,-1,38
 872.32 938.12 872.32 938.12 872.32 1047.16 c 128,-1,39
 872.32 1156.2 872.32 1156.2 803.23 1217.3 c 128,-1,40
 734.14 1278.4 734.14 1278.4 611.94 1278.4 c 0,41,42
 488.8 1278.4 488.8 1278.4 420.65 1217.3 c 128,-1,33
 352.5 1156.2 352.5 1156.2 352.5 1047.16 c 128,-1,34
EndSplineSet
EndChar
StartChar: nine
Encoding: 57 57 329
Width: 1223
Flags: W
LayerCount: 2
Fore
SplineSet
217.5 28.3398 m 1,0,-1
 217.5 201.3 l 1,1,2
 288.94 167.46 288.94 167.46 362.26 149.6 c 128,-1,3
 435.58 131.74 435.58 131.74 506.08 131.74 c 0,4,5
 694.08 131.74 694.08 131.74 793.25 258.17 c 128,-1,6
 892.42 384.6 892.42 384.6 906.52 642.16 c 1,7,8
 852 561.32 852 561.32 768.34 518.08 c 128,-1,9
 684.68 474.84 684.68 474.84 583.16 474.84 c 0,10,11
 372.6 474.84 372.6 474.84 249.93 602.21 c 128,-1,12
 127.26 729.58 127.26 729.58 127.26 950.48 c 0,13,14
 127.26 1166.68 127.26 1166.68 255.1 1297.34 c 128,-1,15
 382.94 1428 382.94 1428 595.38 1428 c 0,16,17
 838.84 1428 838.84 1428 967.15 1241.41 c 128,-1,18
 1095.46 1054.82 1095.46 1054.82 1095.46 699.5 c 0,19,20
 1095.46 367.68 1095.46 367.68 938.01 169.81 c 128,-1,21
 780.56 -28.0601 780.56 -28.0601 514.54 -28.0601 c 0,22,23
 443.1 -28.0601 443.1 -28.0601 369.78 -13.9605 c 128,-1,24
 296.46 0.139136 296.46 0.139136 217.5 28.3393 c 1,25,-1
 217.5 28.3398 l 1,0,-1
595.38 623.36 m 128,-1,27
 723.22 623.36 723.22 623.36 797.95 710.78 c 128,-1,28
 872.68 798.2 872.68 798.2 872.68 950.48 c 0,29,30
 872.68 1101.82 872.68 1101.82 797.95 1189.71 c 128,-1,31
 723.22 1277.6 723.22 1277.6 595.38 1277.6 c 128,-1,32
 467.54 1277.6 467.54 1277.6 392.81 1189.71 c 128,-1,33
 318.08 1101.82 318.08 1101.82 318.08 950.48 c 0,34,35
 318.08 798.2 318.08 798.2 392.81 710.78 c 128,-1,26
 467.54 623.36 467.54 623.36 595.38 623.36 c 128,-1,27
EndSplineSet
EndChar
StartChar: colon
Encoding: 58 58 9
Width: 648
GlyphClass: 2
Flags: W
LayerCount: 2
Fore
SplineSet
225.6 198.76 m 1,0,-1
 423.94 198.76 l 1,1,-1
 423.94 -5.49316e-06 l 1,2,-1
 225.6 -5.49316e-06 l 1,3,-1
 225.6 198.76 l 1,0,-1
225.6 795.46 m 1,4,-1
 423.94 795.46 l 1,5,-1
 423.94 596.7 l 1,6,-1
 225.6 596.7 l 1,7,-1
 225.6 795.46 l 1,4,-1
EndSplineSet
EndChar
StartChar: semicolon
Encoding: 59 59 17
Width: 648
GlyphClass: 2
Flags: W
LayerCount: 2
Fore
SplineSet
225.6 835.46 m 1,0,-1
 423.94 835.46 l 1,1,-1
 423.94 636.7 l 1,2,-1
 225.6 636.7 l 1,3,-1
 225.6 835.46 l 1,0,-1
225.6 238.76 m 1,4,-1
 423.94 238.76 l 1,5,-1
 423.94 77.08 l 1,6,-1
 269.78 -223.72 l 1,7,-1
 148.52 -223.72 l 1,8,-1
 225.6 77.08 l 1,9,-1
 225.6 238.76 l 1,4,-1
EndSplineSet
EndChar
StartChar: less
Encoding: 60 60 18
Width: 1613
GlyphClass: 2
Flags: W
LayerCount: 2
Fore
SplineSet
1409.06 947.52 m 1,0,-1
 438.98 602.54 l 1,1,-1
 1409.06 259.44 l 1,2,-1
 1409.06 88.36 l 1,3,-1
 203.98 525.46 l 1,4,-1
 203.98 681.5 l 1,5,-1
 1409.06 1118.6 l 1,6,-1
 1409.06 947.52 l 1,0,-1
EndSplineSet
EndChar
StartChar: equal
Encoding: 61 61 11
Width: 1613
GlyphClass: 2
Flags: W
GlyphCompositionHorizontal: 2  equal%0,0,44,1433 equal%1,44,0,1433
LayerCount: 2
Fore
SplineSet
203.98 874.2 m 1,0,-1
 1409.06 874.2 l 1,1,-1
 1409.06 716.28 l 1,2,-1
 203.98 716.28 l 1,3,-1
 203.98 874.2 l 1,0,-1
203.98 490.68 m 1,4,-1
 1409.06 490.68 l 1,5,-1
 1409.06 330.88 l 1,6,-1
 203.98 330.88 l 1,7,-1
 203.98 490.68 l 1,4,-1
EndSplineSet
EndChar
StartChar: greater
Encoding: 62 62 12
Width: 1613
GlyphClass: 2
Flags: W
LayerCount: 2
Fore
SplineSet
203.98 947.52 m 1,0,-1
 203.98 1118.6 l 1,1,-1
 1409.06 681.5 l 1,2,-1
 1409.06 525.46 l 1,3,-1
 203.98 88.36 l 1,4,-1
 203.98 259.44 l 1,5,-1
 1172.18 602.54 l 1,6,-1
 203.98 947.52 l 1,0,-1
EndSplineSet
EndChar
StartChar: question
Encoding: 63 63 21
Width: 1021
GlyphClass: 2
Flags: W
LayerCount: 2
Fore
SplineSet
367.54 198.76 m 5,0,-1
 558.36 198.76 l 5,1,-1
 558.36 -5.49316e-06 l 5,2,-1
 367.54 -5.49316e-06 l 5,3,-1
 367.54 198.76 l 5,0,-1
552.72 376.94 m 5,4,-1
 373.18 376.94 l 5,5,-1
 373.18 521.7 l 6,6,7
 373.18 616.64 373.18 616.64 399.5 677.74 c 132,-1,8
 425.82 738.84 425.82 738.84 510.42 819.68 c 5,9,-1
 595.02 903.34 l 5,10,11
 648.6 953.16 648.6 953.16 672.57 997.34 c 132,-1,12
 696.54 1041.52 696.54 1041.52 696.54 1087.58 c 4,13,14
 696.54 1171.24 696.54 1171.24 634.97 1222.94 c 132,-1,15
 573.4 1274.64 573.4 1274.64 471.88 1274.64 c 4,16,17
 397.62 1274.64 397.62 1274.64 313.49 1241.74 c 132,-1,18
 229.36 1208.84 229.36 1208.84 138.18 1145.86 c 5,19,-1
 138.18 1322.58 l 5,20,21
 226.54 1376.16 226.54 1376.16 317.25 1402.48 c 132,-1,22
 407.96 1428.8 407.96 1428.8 504.78 1428.8 c 4,23,24
 677.74 1428.8 677.74 1428.8 782.55 1337.62 c 132,-1,25
 887.36 1246.44 887.36 1246.44 887.36 1096.98 c 4,26,27
 887.36 1025.54 887.36 1025.54 853.52 961.15 c 132,-1,28
 819.68 896.76 819.68 896.76 735.08 815.92 c 5,29,-1
 652.36 735.08 l 6,30,31
 608.18 690.9 608.18 690.9 589.85 665.99 c 132,-1,32
 571.52 641.08 571.52 641.08 564 617.58 c 4,33,34
 558.36 597.84 558.36 597.84 555.54 569.64 c 132,-1,35
 552.72 541.44 552.72 541.44 552.72 492.56 c 6,36,-1
 552.72 376.94 l 5,4,-1
EndSplineSet
EndChar
StartChar: at
Encoding: 64 64 22
Width: 1925
GlyphClass: 2
Flags: W
LayerCount: 2
Fore
SplineSet
716.28 504.78 m 0,0,1
 716.28 370.36 716.28 370.36 783.02 293.75 c 128,-1,2
 849.76 217.14 849.76 217.14 966.32 217.14 c 0,3,4
 1081.94 217.14 1081.94 217.14 1148.21 294.22 c 128,-1,5
 1214.48 371.3 1214.48 371.3 1214.48 504.78 c 0,6,7
 1214.48 636.38 1214.48 636.38 1146.8 713.93 c 128,-1,8
 1079.12 791.48 1079.12 791.48 964.44 791.48 c 0,9,10
 850.7 791.48 850.7 791.48 783.49 714.4 c 128,-1,11
 716.28 637.32 716.28 637.32 716.28 504.78 c 0,0,1
1228.58 223.72 m 1,12,13
 1172.18 151.34 1172.18 151.34 1099.33 117.03 c 128,-1,14
 1026.48 82.7197 1026.48 82.7197 929.66 82.7197 c 0,15,16
 767.98 82.7197 767.98 82.7197 666.93 199.75 c 128,-1,17
 565.88 316.78 565.88 316.78 565.88 504.78 c 128,-1,18
 565.88 692.78 565.88 692.78 667.4 810.28 c 128,-1,19
 768.92 927.78 768.92 927.78 929.66 927.78 c 0,20,21
 1026.48 927.78 1026.48 927.78 1099.8 892.53 c 128,-1,22
 1173.12 857.28 1173.12 857.28 1228.58 785.84 c 1,23,-1
 1228.58 908.98 l 1,24,-1
 1363 908.98 l 1,25,-1
 1363 217.14 l 1,26,27
 1500.24 237.82 1500.24 237.82 1577.79 342.63 c 128,-1,28
 1655.34 447.44 1655.34 447.44 1655.34 613.82 c 0,29,30
 1655.34 714.4 1655.34 714.4 1625.73 802.76 c 128,-1,31
 1596.12 891.12 1596.12 891.12 1535.96 966.32 c 0,32,33
 1438.2 1089.46 1438.2 1089.46 1297.67 1154.79 c 128,-1,34
 1157.14 1220.12 1157.14 1220.12 991.7 1220.12 c 0,35,36
 876.08 1220.12 876.08 1220.12 769.86 1189.57 c 128,-1,37
 663.64 1159.02 663.64 1159.02 573.4 1098.86 c 1,38,39
 425.82 1002.98 425.82 1002.98 342.63 847.41 c 128,-1,40
 259.44 691.84 259.44 691.84 259.44 510.42 c 0,41,42
 259.44 360.96 259.44 360.96 313.49 230.3 c 128,-1,43
 367.54 99.6396 367.54 99.6396 470 -0.000378418 c 1,44,45
 568.7 -97.7602 568.7 -97.7602 698.42 -148.99 c 128,-1,46
 828.14 -200.22 828.14 -200.22 975.72 -200.22 c 0,47,48
 1096.98 -200.22 1096.98 -200.22 1214.01 -159.33 c 128,-1,49
 1331.04 -118.44 1331.04 -118.44 1428.8 -42.3004 c 1,50,-1
 1513.4 -146.64 l 1,51,52
 1395.9 -237.82 1395.9 -237.82 1257.25 -286.23 c 128,-1,53
 1118.6 -334.64 1118.6 -334.64 975.72 -334.64 c 0,54,55
 801.82 -334.64 801.82 -334.64 647.66 -273.07 c 128,-1,56
 493.5 -211.5 493.5 -211.5 373.18 -94.0004 c 128,-1,57
 252.86 23.4996 252.86 23.4996 189.88 178.13 c 128,-1,58
 126.9 332.76 126.9 332.76 126.9 510.42 c 0,59,60
 126.9 681.5 126.9 681.5 190.82 836.6 c 128,-1,61
 254.74 991.7 254.74 991.7 373.18 1109.2 c 0,62,63
 494.44 1228.58 494.44 1228.58 653.3 1292.03 c 128,-1,64
 812.16 1355.48 812.16 1355.48 989.82 1355.48 c 0,65,66
 1189.1 1355.48 1189.1 1355.48 1359.71 1273.7 c 128,-1,67
 1530.32 1191.92 1530.32 1191.92 1645.94 1041.52 c 0,68,69
 1716.44 949.399 1716.44 949.399 1753.57 841.299 c 128,-1,70
 1790.7 733.199 1790.7 733.199 1790.7 617.579 c 0,71,72
 1790.7 370.359 1790.7 370.359 1641.24 227.479 c 128,-1,73
 1491.78 84.5995 1491.78 84.5995 1228.58 78.9595 c 1,74,-1
 1228.58 223.72 l 1,12,13
EndSplineSet
EndChar
StartChar: backslash
Encoding: 92 92 13
Width: 648
GlyphClass: 2
Flags: W
LayerCount: 2
Fore
SplineSet
159.8 1403.42 m 1,0,-1
 648.6 -178.6 l 1,1,-1
 488.8 -178.6 l 1,2,-1
 -1.2207e-05 1403.42 l 1,3,-1
 159.8 1403.42 l 1,0,-1
EndSplineSet
EndChar
StartChar: bracketright
Encoding: 93 93 25
Width: 751
GlyphClass: 2
Flags: W
GlyphCompositionVertical: 3  uni23A6%0,0,44,2687 uni23A5%1,44,44,2713 uni23A4%0,44,0,2699
LayerCount: 2
Fore
SplineSet
585.62 1462.64 m 1,0,-1
 585.62 -253.8 l 1,1,-1
 187.06 -253.8 l 1,2,-1
 187.06 -119.38 l 1,3,-1
 411.72 -119.38 l 1,4,-1
 411.72 1328.22 l 1,5,-1
 187.06 1328.22 l 1,6,-1
 187.06 1462.64 l 1,7,-1
 585.62 1462.64 l 1,0,-1
EndSplineSet
EndChar
StartChar: asciicircum
Encoding: 94 94 26
Width: 1613
GlyphClass: 2
Flags: W
LayerCount: 2
Fore
SplineSet
898.64 1403.42 m 1,0,-1
 1409.06 879.84 l 1,1,-1
 1220.12 879.84 l 1,2,-1
 806.52 1251.14 l 1,3,-1
 392.92 879.84 l 1,4,-1
 203.98 879.84 l 1,5,-1
 714.4 1403.42 l 1,6,-1
 898.64 1403.42 l 1,0,-1
EndSplineSet
EndChar
StartChar: underscore
Encoding: 95 95 27
Width: 962
GlyphClass: 2
Flags: W
GlyphCompositionHorizontal: 2  underscore%0,0,44,1188 underscore%1,44,0,1188
LayerCount: 2
Fore
SplineSet
981.36 -319.6 m 1,0,-1
 981.36 -454.02 l 1,1,-1
 -18.8 -454.02 l 1,2,-1
 -18.8 -319.6 l 1,3,-1
 981.36 -319.6 l 1,0,-1
EndSplineSet
EndChar
StartChar: grave
Encoding: 96 96 28
Width: 962
GlyphClass: 2
Flags: W
LayerCount: 2
Fore
SplineSet
344.98 1539.72 m 1,0,-1
 610.06 1188.16 l 1,1,-1
 466.24 1188.16 l 1,2,-1
 159.8 1539.72 l 1,3,-1
 344.98 1539.72 l 1,0,-1
EndSplineSet
EndChar
StartChar: braceleft
Encoding: 123 123 29
Width: 1224
GlyphClass: 2
Flags: W
GlyphCompositionVertical: 5  uni23A9%0,0,44,2700 uni23AA%1,44,44,2742 uni23A8%0,44,44,2727 uni23AA%1,44,44,2742 uni23A7%0,44,0,2719
LayerCount: 2
Fore
SplineSet
984.18 -178.6 m 1,0,-1
 984.18 -313.96 l 1,1,-1
 925.9 -313.96 l 2,2,3
 691.84 -313.96 691.84 -313.96 612.41 -244.4 c 128,-1,4
 532.98 -174.84 532.98 -174.84 532.98 32.9 c 2,5,-1
 532.98 257.56 l 2,6,7
 532.98 399.5 532.98 399.5 482.22 454.02 c 128,-1,8
 431.46 508.54 431.46 508.54 297.98 508.54 c 2,9,-1
 240.64 508.54 l 1,10,-1
 240.64 642.96 l 1,11,-1
 297.98 642.96 l 2,12,13
 432.4 642.96 432.4 642.96 482.69 697.01 c 128,-1,14
 532.98 751.06 532.98 751.06 532.98 891.12 c 2,15,-1
 532.98 1116.72 l 2,16,17
 532.98 1324.46 532.98 1324.46 612.41 1393.55 c 128,-1,18
 691.84 1462.64 691.84 1462.64 925.9 1462.64 c 2,19,-1
 984.18 1462.64 l 1,20,-1
 984.18 1328.22 l 1,21,-1
 920.26 1328.22 l 2,22,23
 787.72 1328.22 787.72 1328.22 747.3 1286.86 c 128,-1,24
 706.88 1245.5 706.88 1245.5 706.88 1112.96 c 2,25,-1
 706.88 879.84 l 2,26,27
 706.88 732.26 706.88 732.26 664.11 665.52 c 128,-1,28
 621.34 598.78 621.34 598.78 517.94 575.28 c 1,29,30
 622.28 549.9 622.28 549.9 664.58 483.16 c 128,-1,31
 706.88 416.42 706.88 416.42 706.88 269.78 c 2,32,-1
 706.88 36.6598 l 2,33,34
 706.88 -95.8801 706.88 -95.8801 747.3 -137.24 c 128,-1,35
 787.72 -178.6 787.72 -178.6 920.26 -178.6 c 2,36,-1
 984.18 -178.6 l 1,0,-1
EndSplineSet
EndChar
StartChar: bar
Encoding: 124 124 30
Width: 648
GlyphClass: 2
Flags: W
GlyphCompositionVertical: 2  bar%0,0,44,2287 bar%1,44,0,2287
LayerCount: 2
Fore
SplineSet
404.2 1471.1 m 1,0,-1
 404.2 -454.02 l 1,1,-1
 244.4 -454.02 l 1,2,-1
 244.4 1471.1 l 1,3,-1
 404.2 1471.1 l 1,0,-1
EndSplineSet
EndChar
StartChar: braceright
Encoding: 125 125 31
Width: 1224
GlyphClass: 2
Flags: W
GlyphCompositionVertical: 5  uni23AD%0,0,44,2700 uni23AA%1,44,44,2742 uni23AC%0,44,44,2727 uni23AA%1,44,44,2742 uni23AB%0,44,0,2719
LayerCount: 2
Fore
SplineSet
240.64 -178.6 m 1,0,-1
 306.44 -178.6 l 2,1,2
 438.04 -178.6 438.04 -178.6 477.99 -138.18 c 128,-1,3
 517.94 -97.7598 517.94 -97.7598 517.94 36.66 c 2,4,-1
 517.94 269.78 l 2,5,6
 517.94 416.42 517.94 416.42 560.24 483.16 c 128,-1,7
 602.54 549.9 602.54 549.9 706.88 575.28 c 1,8,9
 602.54 598.78 602.54 598.78 560.24 665.52 c 128,-1,10
 517.94 732.26 517.94 732.26 517.94 879.84 c 2,11,-1
 517.94 1112.96 l 2,12,13
 517.94 1246.44 517.94 1246.44 477.99 1287.33 c 128,-1,14
 438.04 1328.22 438.04 1328.22 306.44 1328.22 c 2,15,-1
 240.64 1328.22 l 1,16,-1
 240.64 1462.64 l 1,17,-1
 299.86 1462.64 l 2,18,19
 533.92 1462.64 533.92 1462.64 612.41 1393.55 c 128,-1,20
 690.9 1324.46 690.9 1324.46 690.9 1116.72 c 2,21,-1
 690.9 891.12 l 2,22,23
 690.9 751.06 690.9 751.06 741.66 697.01 c 128,-1,24
 792.42 642.96 792.42 642.96 925.9 642.96 c 2,25,-1
 984.18 642.96 l 1,26,-1
 984.18 508.54 l 1,27,-1
 925.9 508.54 l 2,28,29
 792.42 508.54 792.42 508.54 741.66 454.02 c 128,-1,30
 690.9 399.5 690.9 399.5 690.9 257.56 c 2,31,-1
 690.9 32.9003 l 2,32,33
 690.9 -174.84 690.9 -174.84 612.41 -244.4 c 128,-1,34
 533.92 -313.96 533.92 -313.96 299.86 -313.96 c 2,35,-1
 240.64 -313.96 l 1,36,-1
 240.64 -178.6 l 1,0,-1
EndSplineSet
EndChar
StartChar: asciitilde
Encoding: 126 126 32
Width: 1613
GlyphClass: 2
Flags: W
LayerCount: 2
Fore
SplineSet
1409.06 767.98 m 1,0,-1
 1409.06 600.66 l 1,1,2
 1310.36 526.4 1310.36 526.4 1226.23 494.44 c 128,-1,3
 1142.1 462.48 1142.1 462.48 1050.92 462.48 c 0,4,5
 947.52 462.48 947.52 462.48 810.28 517.94 c 0,6,7
 799.94 521.7 799.94 521.7 795.24 523.58 c 0,8,9
 788.66 526.4 788.66 526.4 774.56 531.1 c 0,10,11
 628.86 589.38 628.86 589.38 540.5 589.38 c 0,12,13
 457.78 589.38 457.78 589.38 376.94 553.19 c 128,-1,14
 296.1 517 296.1 517 203.98 438.98 c 1,15,-1
 203.98 606.3 l 1,16,17
 302.68 680.56 302.68 680.56 386.81 712.99 c 128,-1,18
 470.94 745.42 470.94 745.42 562.12 745.42 c 0,19,20
 665.52 745.42 665.52 745.42 803.7 689.02 c 0,21,22
 813.1 685.26 813.1 685.26 817.8 683.38 c 0,23,24
 825.32 680.56 825.32 680.56 838.48 675.86 c 0,25,26
 984.18 617.58 984.18 617.58 1072.54 617.58 c 0,27,28
 1153.38 617.58 1153.38 617.58 1232.81 653.3 c 128,-1,29
 1312.24 689.02 1312.24 689.02 1409.06 767.98 c 1,0,-1
EndSplineSet
EndChar
StartChar: guillemotleft
Encoding: 171 171 318
Width: 1180
VWidth: 0
Flags: W
LayerCount: 2
Fore
SplineSet
997.34 995.46 m 1,0,-1
 997.34 815.92 l 1,1,-1
 714.4 564 l 1,2,-1
 997.34 312.08 l 1,3,-1
 997.34 132.54 l 1,4,-1
 556.48 525.46 l 1,5,-1
 556.48 602.54 l 1,6,-1
 997.34 995.46 l 1,0,-1
589.38 995.46 m 1,7,-1
 589.38 815.92 l 1,8,-1
 306.44 564 l 1,9,-1
 589.38 312.08 l 1,10,-1
 589.38 132.54 l 1,11,-1
 148.52 525.46 l 1,12,-1
 148.52 602.54 l 1,13,-1
 589.38 995.46 l 1,7,-1
EndSplineSet
EndChar
StartChar: guillemotright
Encoding: 187 187 292
Width: 1147
VWidth: -4
Flags: W
LayerCount: 2
Fore
SplineSet
189.303710938 921.06640625 m 1,0,-1
 464.99609375 675.353515625 l 2,1,2
 488.486328125 654.41796875 488.486328125 654.41796875 507.125 633.520507812 c 0,3,4
 667.424804688 453.797851562 667.424804688 453.797851562 467.108398438 275.264648438 c 2,5,-1
 189.303710938 27.6689453125 l 1,6,-1
 189.303710938 206.546875 l 1,7,-1
 381.61328125 377.772460938 l 2,8,9
 392.848632812 387.776367188 392.848632812 387.776367188 401.784179688 397.756835938 c 0,10,11
 479.12109375 484.146484375 479.12109375 484.146484375 385.836914062 567.203125 c 2,12,-1
 189.303710938 742.189453125 l 1,13,-1
 189.303710938 921.06640625 l 1,0,-1
620.15234375 921.06640625 m 1,14,-1
 895.84375 675.353515625 l 2,15,16
 919.333984375 654.41796875 919.333984375 654.41796875 937.97265625 633.520507812 c 0,17,18
 1098.27246094 453.797851562 1098.27246094 453.797851562 897.956054688 275.264648438 c 2,19,-1
 620.15234375 27.6689453125 l 1,20,-1
 620.15234375 206.546875 l 1,21,-1
 812.4609375 377.772460938 l 2,22,23
 823.697265625 387.776367188 823.697265625 387.776367188 832.631835938 397.756835938 c 0,24,25
 870.965820312 440.698242188 870.965820312 440.698242188 866.890625 483.4140625 c 128,-1,26
 862.815429688 526.130859375 862.815429688 526.130859375 816.685546875 567.203125 c 2,27,-1
 620.15234375 742.189453125 l 1,28,-1
 620.15234375 921.06640625 l 1,14,-1
EndSplineSet
EndChar
StartChar: afii57388
Encoding: 1548 1548 7
Width: 700
VWidth: 2248
GlyphClass: 2
Flags: W
LayerCount: 2
Fore
SplineSet
381.4140625 0 m 4,0,1
 264.077676237 1.37169737121 264.077676237 1.37169737121 239.251953125 115.157226562 c 4,2,3
 227.508789062 169.603515625 227.508789062 169.603515625 248.961914062 262.518554688 c 4,4,5
 287.708984375 432.975585938 287.708984375 432.975585938 470.189453125 607.583984375 c 5,6,-1
 527.608398438 570.881835938 l 5,7,8
 384.217278278 450.363878161 384.217278278 450.363878161 371.596679688 262.3359375 c 5,9,10
 389.787279429 262.57182215 389.787279429 262.57182215 399.5 262.032226562 c 4,11,12
 548.369242478 253.730905806 548.369242478 253.730905806 530.215820312 102.061523438 c 4,13,14
 518 0 518 0 381.4140625 0 c 4,0,1
EndSplineSet
EndChar
StartChar: uni0615
Encoding: 1557 1557 8
Width: -27
VWidth: 2304
GlyphClass: 4
Flags: W
AnchorPoint: "Anchor-10" 569.519 1347.15 mark 0
AnchorPoint: "Anchor-9" 569.519 1347.15 mark 0
AnchorPoint: "Anchor-1" 569.519 2081.6 basemark 0
AnchorPoint: "Anchor-1" 569.519 1347.15 mark 0
LayerCount: 2
Fore
SplineSet
474.836914062 1530.54980469 m 1,0,-1
 574.0390625 1530.54980469 l 2,1,2
 667.0234375 1530.54980469 667.0234375 1530.54980469 696.225585938 1547.80371094 c 0,3,4
 707.448242188 1554.79199219 707.448242188 1554.79199219 716.749023438 1561.30859375 c 128,-1,5
 726.049804688 1567.82421875 726.049804688 1567.82421875 733.580078125 1573.98828125 c 128,-1,6
 741.110351562 1580.15234375 741.110351562 1580.15234375 746.8359375 1585.95410156 c 0,7,8
 755.620117188 1594.84863281 755.620117188 1594.84863281 760.131835938 1604.390625 c 128,-1,9
 764.64453125 1613.93164062 764.64453125 1613.93164062 764.64453125 1623.98242188 c 0,10,11
 764.64453125 1670.11035156 764.64453125 1670.11035156 720.540039062 1694.32324219 c 2,12,-1
 720.247070312 1694.48339844 l 1,13,-1
 719.932617188 1694.59375 l 2,14,15
 710.751953125 1697.79492188 710.751953125 1697.79492188 700.459960938 1695.24804688 c 0,16,17
 695.533203125 1694.0234375 695.533203125 1694.0234375 686.951171875 1690.62988281 c 128,-1,18
 678.370117188 1687.23632812 678.370117188 1687.23632812 665.529296875 1681.47753906 c 0,19,20
 640.484375 1670.24707031 640.484375 1670.24707031 625.071289062 1664.16601562 c 0,21,22
 561.998046875 1638.69628906 561.998046875 1638.69628906 498.088867188 1559.40429688 c 2,23,-1
 474.836914062 1530.54980469 l 1,0,-1
600.02734375 1451.88378906 m 2,24,-1
 293.467773438 1451.88378906 l 1,25,-1
 293.467773438 1530.54980469 l 1,26,-1
 384.991210938 1530.54980469 l 1,27,-1
 384.991210938 1981.38769531 l 1,28,-1
 464.787109375 1981.38769531 l 1,29,-1
 464.787109375 1560.38476562 l 1,30,-1
 498.415039062 1628.5703125 l 2,31,32
 536.025390625 1704.83691406 536.025390625 1704.83691406 647.014648438 1747.5234375 c 0,33,34
 679.43359375 1759.90136719 679.43359375 1759.90136719 713.84375 1759.34570312 c 128,-1,35
 748.25390625 1758.79101562 748.25390625 1758.79101562 784.70703125 1745.25 c 0,36,37
 846.700195312 1721.40722656 846.700195312 1721.40722656 846.700195312 1640.93164062 c 0,38,39
 846.700195312 1625.15625 846.700195312 1625.15625 844.881835938 1610.62011719 c 128,-1,40
 843.0625 1596.08496094 843.0625 1596.08496094 839.421875 1582.77832031 c 128,-1,41
 835.78125 1569.47167969 835.78125 1569.47167969 830.328125 1557.38476562 c 128,-1,42
 824.875 1545.29785156 824.875 1545.29785156 817.594726562 1534.40625 c 128,-1,43
 810.314453125 1523.515625 810.314453125 1523.515625 801.23046875 1513.82421875 c 128,-1,44
 792.145507812 1504.13378906 792.145507812 1504.13378906 781.228515625 1495.60449219 c 0,45,46
 767.297851562 1484.77148438 767.297851562 1484.77148438 749.046875 1476.60449219 c 128,-1,47
 730.795898438 1468.43847656 730.795898438 1468.43847656 708.181640625 1462.93457031 c 128,-1,48
 685.567382812 1457.4296875 685.567382812 1457.4296875 658.481445312 1454.65722656 c 128,-1,49
 631.39453125 1451.88378906 631.39453125 1451.88378906 600.02734375 1451.88378906 c 2,24,-1
EndSplineSet
EndChar
StartChar: uni061B
Encoding: 1563 1563 9
Width: 663
VWidth: 2165
GlyphClass: 2
Flags: W
LayerCount: 2
Fore
SplineSet
255.405273438 201.890625 m 1,0,-1
 456.852539062 201.890625 l 1,1,-1
 456.852539062 0 l 1,2,-1
 255.405273438 0 l 1,3,-1
 255.405273438 201.890625 l 1,0,-1
348.642578125 457.893554688 m 0,4,5
 233.368164062 459.908203125 233.368164062 459.908203125 209.130859375 570.879882812 c 0,6,7
 197.84765625 624.283203125 197.84765625 624.283203125 218.471679688 713.837890625 c 0,8,9
 256.244140625 879.764648438 256.244140625 879.764648438 433.674804688 1048.67089844 c 1,10,-1
 495.28515625 1010.34765625 l 1,11,12
 354.412109375 891.5859375 354.412109375 891.5859375 342.581054688 720.280273438 c 2,13,-1
 342.28125 715.9375 l 1,14,-1
 346.633789062 716.004882812 l 2,15,16
 357.279296875 716.170898438 357.279296875 716.170898438 367.163085938 715.607421875 c 0,17,18
 435.83203125 711.69140625 435.83203125 711.69140625 467.475585938 672.841796875 c 128,-1,19
 499.118164062 633.9921875 499.118164062 633.9921875 494.600585938 558.740234375 c 0,20,21
 493.4453125 538.66015625 493.4453125 538.66015625 487.076171875 522.645507812 c 128,-1,22
 480.706054688 506.630859375 480.706054688 506.630859375 468.946289062 494.498046875 c 128,-1,23
 457.185546875 482.366210938 457.185546875 482.366210938 439.990234375 474.282226562 c 128,-1,24
 422.793945312 466.198242188 422.793945312 466.198242188 399.962890625 462.0859375 c 128,-1,25
 377.131835938 457.974609375 377.131835938 457.974609375 348.642578125 457.893554688 c 0,4,5
EndSplineSet
EndChar
StartChar: uni061F
Encoding: 1567 1567 10
Width: 1093
VWidth: 2241
GlyphClass: 2
Flags: W
LayerCount: 2
Fore
SplineSet
490.381835938 233.336914062 m 1,0,-1
 723.19140625 233.336914062 l 1,1,-1
 723.19140625 0 l 1,2,-1
 490.381835938 0 l 1,3,-1
 490.381835938 233.336914062 l 1,0,-1
517.069335938 494.142578125 m 1,4,-1
 517.069335938 533.765625 l 2,5,6
 517.474604675 654.039055803 517.474604675 654.039055803 494.150002959 697.721017344 c 128,-1,7
 470.825401243 741.402978886 470.825401243 741.402978886 405.485351562 805.25390625 c 2,8,-1
 314.592773438 894.081054688 l 1,9,10
 222.666015625 982.330078125 222.666015625 982.330078125 186.013671875 1051.85986328 c 128,-1,11
 149.361328125 1121.38964844 149.361328125 1121.38964844 149.409179688 1199.64404297 c 0,12,13
 149.506087901 1358.12358248 149.506087901 1358.12358248 262.504997076 1456.59304124 c 128,-1,14
 375.50390625 1555.0625 375.50390625 1555.0625 570.834606186 1555.1621876 c 128,-1,15
 766.165306122 1555.26187521 766.165306122 1555.26187521 956.5703125 1442.16308594 c 1,16,-1
 908.219726562 1296.60644531 l 1,17,18
 856.740234375 1329.82519531 856.740234375 1329.82519531 769.221679688 1365.04443359 c 0,19,20
 547.940889632 1454.0923035 547.940889632 1454.0923035 414.962890625 1341.39453125 c 0,21,22
 344.80078125 1282.20664619 344.80078125 1282.20664619 344.80078125 1183.72250171 c 0,23,24
 345 1085 345 1085 458.500976562 979.752929688 c 24,25,-1
 551.375 887.911132812 l 24,26,27
 700 746 700 746 699.928710938 565.791992188 c 2,28,-1
 699.928710938 494.142578125 l 1,29,-1
 517.069335938 494.142578125 l 1,4,-1
EndSplineSet
EndChar
StartChar: uni0621
Encoding: 1569 1569 38
Width: 846
VWidth: 2186
GlyphClass: 2
Flags: W
AnchorPoint: "Anchor-7" 442 -172 basechar 0
AnchorPoint: "Anchor-10" 388.5 1250.5 basechar 0
LayerCount: 2
Fore
SplineSet
100.41 2.60156 m 5,0,-1
 100.41 164.498 l 5,1,2
 261.135 205 261.135 205 390.476 272.824 c 5,3,4
 235.367 299.615 235.367 299.615 169.135 384 c 4,5,6
 107.135 462.993 107.135 462.993 107.135 576 c 4,7,8
 107.135 783.951 107.135 783.951 263.289 879.463 c 4,9,10
 423.027 977.888 423.027 977.888 668.26 921.98 c 5,11,-1
 668.26 751.792 l 5,12,13
 569.881 780.36 569.881 780.36 499.047 778.336 c 4,14,15
 277.71 773.998 277.71 773.998 277.71 564.192 c 4,16,17
 277.71 422.085 277.71 422.085 471.135 384 c 4,18,19
 581.662 362.237 581.662 362.237 663.135 386 c 4,20,21
 711.135 400 711.135 400 753.86 425.141 c 5,22,-1
 753.86 256.611 l 5,23,24
 744.308 241.071 744.308 241.071 446.49 111.913 c 4,25,26
 214.534 20.8809 214.534 20.8809 100.41 2.60156 c 5,0,-1
EndSplineSet
EndChar
StartChar: uni0627
Encoding: 1575 1575 17
Width: 453
VWidth: 2304
GlyphClass: 2
Flags: W
AnchorPoint: "Anchor-10" 225.512 1612.79 basechar 0
AnchorPoint: "Anchor-7" 228.68 -253.688 basechar 0
LayerCount: 2
Fore
SplineSet
150.903320312 1470.4140625 m 1,0,-1
 319.12890625 1470.4140625 l 1,1,-1
 319.12890625 0.583984375 l 1,2,-1
 150.903320312 0.583984375 l 1,3,-1
 150.903320312 1470.4140625 l 1,0,-1
EndSplineSet
Substitution2: "'fina' Terminal Forms in Arabic lookup 9 subtable" uniFE8E
EndChar
StartChar: uni062D
Encoding: 1581 1581 23
Width: 1287
VWidth: 2393
GlyphClass: 2
Flags: W
AnchorPoint: "Anchor-10" 476.889 1295.9 basechar 0
AnchorPoint: "Anchor-7" 411.367 -762.2 basechar 0
LayerCount: 2
Fore
SplineSet
1186.12011719 666.250976562 m 5,0,-1
 1179.20507812 530.572265625 l 5,1,2
 1105 544 1105 544 893.696289062 511.779296875 c 4,3,4
 562 461 562 461 392.275390625 294.579101562 c 4,5,6
 258 164 258 164 258.32421875 -16.3955078125 c 4,7,8
 258 -383 258 -383 795.228515625 -383.734375 c 4,9,10
 991 -384 991 -384 1146.55859375 -329.1640625 c 5,11,-1
 1189.27734375 -477.887695312 l 5,12,13
 1030 -546 1030 -546 763.6015625 -542.4296875 c 4,14,15
 424 -539 424 -539 259.94921875 -393.823242188 c 4,16,17
 97 -248 97 -248 97.76171875 -13.908203125 c 4,18,19
 99 235 99 235 305.739257812 417.915039062 c 4,20,21
 495 586 495 586 804.497070312 619.721679688 c 5,22,23
 698 671 698 671 650.546875 698.686523438 c 4,24,25
 603 726 603 726 581.846679688 735.890625 c 4,26,27
 539 755 539 755 487.25 756.043945312 c 4,28,29
 436 757 436 757 369.01953125 714.241210938 c 4,30,31
 302 671 302 671 236.423828125 584.6484375 c 5,32,-1
 113.271484375 673.095703125 l 5,33,34
 200 780 200 780 224.3828125 804.098632812 c 4,35,36
 339 916 339 916 490.641601562 917.146484375 c 4,37,38
 577 918 577 918 701.825195312 838.584960938 c 4,39,40
 979 663 979 663 1186.12011719 666.250976562 c 5,0,-1
EndSplineSet
Substitution2: "'fina' Terminal Forms in Arabic lookup 9 subtable" uniFEA2
Substitution2: "'medi' Medial Forms in Arabic lookup 11 subtable" uniFEA4
Substitution2: "'init' Initial Forms in Arabic lookup 13 subtable" uniFEA3
EndChar
StartChar: uni062F
Encoding: 1583 1583 25
Width: 939
VWidth: 2304
GlyphClass: 2
Flags: W
AnchorPoint: "Anchor-10" 292.572 1176.08 basechar 0
AnchorPoint: "Anchor-7" 340.008 -265.888 basechar 0
LayerCount: 2
Fore
SplineSet
847.833007812 288.1953125 m 0,0,1
 847.833007812 171.251953125 847.833007812 171.251953125 742.938476562 86.5043945312 c 128,-1,2
 638.043945312 1.7568359375 638.043945312 1.7568359375 416.658691406 1.7568359375 c 128,-1,3
 195.2734375 1.7568359375 195.2734375 1.7568359375 92.9443359375 22.302734375 c 1,4,-1
 92.9443359375 203.889648438 l 1,5,6
 237.294921875 180.237304688 237.294921875 180.237304688 350.703125 180.237304688 c 0,7,8
 675.677734375 180.237304688 675.677734375 180.237304688 675.677734375 321.438476562 c 0,9,10
 675.677734375 365.362304688 675.677734375 365.362304688 624.759765625 441.73828125 c 0,11,12
 523.873046875 593.068359375 523.873046875 593.068359375 305.88671875 746.797851562 c 1,13,-1
 400.487304688 890.103515625 l 1,14,15
 847.833007812 566.616210938 847.833007812 566.616210938 847.833007812 288.1953125 c 0,0,1
EndSplineSet
Substitution2: "'fina' Terminal Forms in Arabic lookup 9 subtable" uniFEAA
EndChar
StartChar: uni0631
Encoding: 1585 1585 54
Width: 788
VWidth: 2186
GlyphClass: 2
Flags: W
AnchorPoint: "Anchor-10" 372.7 798.348 basechar 0
AnchorPoint: "Anchor-7" 371.291 -646.16 basechar 0
LayerCount: 2
Fore
SplineSet
545.470200934 159.634027804 m 4,0,1
 545.470200934 308.18364153 545.470200934 308.18364153 453.275 441.023 c 1,2,-1
 599.998 518.564 l 1,3,4
 710.618060962 354.222716857 710.618060962 354.222716857 710.618060962 161.043999476 c 0,5,6
 710.618060962 -398.585585057 710.618060962 -398.585585057 30.0469 -465.593 c 1,7,-1
 0.650391 -302.476 l 1,8,9
 545.470200934 -257.638238221 545.470200934 -257.638238221 545.470200934 159.634027804 c 4,0,1
EndSplineSet
PairPos2: "'kern' Horizontal Kerning lookup 15-1" uniFEDF dx=-110 dy=0 dh=-110 dv=0 dx=0 dy=0 dh=0 dv=0
PairPos2: "'kern' Horizontal Kerning lookup 15-1" uniFBAC dx=-110 dy=0 dh=-110 dv=0 dx=0 dy=0 dh=0 dv=0
PairPos2: "'kern' Horizontal Kerning lookup 15-1" uniFB90 dx=-110 dy=0 dh=-110 dv=0 dx=0 dy=0 dh=0 dv=0
PairPos2: "'kern' Horizontal Kerning lookup 15-1" uni06A9 dx=-110 dy=0 dh=-110 dv=0 dx=0 dy=0 dh=0 dv=0
PairPos2: "'kern' Horizontal Kerning lookup 15-1" uni0649 dx=-70 dy=0 dh=-70 dv=0 dx=0 dy=0 dh=0 dv=0
PairPos2: "'kern' Horizontal Kerning lookup 15-1" uni0647 dx=-110 dy=0 dh=-110 dv=0 dx=0 dy=0 dh=0 dv=0
PairPos2: "'kern' Horizontal Kerning lookup 15-1" uniFEE7 dx=-110 dy=0 dh=-110 dv=0 dx=0 dy=0 dh=0 dv=0
PairPos2: "'kern' Horizontal Kerning lookup 15-1" uniFEE3 dx=-110 dy=0 dh=-110 dv=0 dx=0 dy=0 dh=0 dv=0
PairPos2: "'kern' Horizontal Kerning lookup 15-1" uni0645 dx=-110 dy=0 dh=-110 dv=0 dx=0 dy=0 dh=0 dv=0
PairPos2: "'kern' Horizontal Kerning lookup 15-1" uni0644 dx=-70 dy=0 dh=-70 dv=0 dx=0 dy=0 dh=0 dv=0
PairPos2: "'kern' Horizontal Kerning lookup 15-1" uniFEDB dx=-110 dy=0 dh=-110 dv=0 dx=0 dy=0 dh=0 dv=0
PairPos2: "'kern' Horizontal Kerning lookup 15-1" uniFED7 dx=-110 dy=0 dh=-110 dv=0 dx=0 dy=0 dh=0 dv=0
PairPos2: "'kern' Horizontal Kerning lookup 15-1" uni0642 dx=-70 dy=0 dh=-70 dv=0 dx=0 dy=0 dh=0 dv=0
PairPos2: "'kern' Horizontal Kerning lookup 15-1" uniFED3 dx=-110 dy=0 dh=-110 dv=0 dx=0 dy=0 dh=0 dv=0
PairPos2: "'kern' Horizontal Kerning lookup 15-1" uni0641 dx=-110 dy=0 dh=-110 dv=0 dx=0 dy=0 dh=0 dv=0
PairPos2: "'kern' Horizontal Kerning lookup 15-1" uniFECF dx=-110 dy=0 dh=-110 dv=0 dx=0 dy=0 dh=0 dv=0
PairPos2: "'kern' Horizontal Kerning lookup 15-1" uniFECB dx=-110 dy=0 dh=-110 dv=0 dx=0 dy=0 dh=0 dv=0
PairPos2: "'kern' Horizontal Kerning lookup 15-1" uniFEC7 dx=-110 dy=0 dh=-110 dv=0 dx=0 dy=0 dh=0 dv=0
PairPos2: "'kern' Horizontal Kerning lookup 15-1" uni0638 dx=-110 dy=0 dh=-110 dv=0 dx=0 dy=0 dh=0 dv=0
PairPos2: "'kern' Horizontal Kerning lookup 15-1" uniFEC3 dx=-110 dy=0 dh=-110 dv=0 dx=0 dy=0 dh=0 dv=0
PairPos2: "'kern' Horizontal Kerning lookup 15-1" uni0637 dx=-110 dy=0 dh=-110 dv=0 dx=0 dy=0 dh=0 dv=0
PairPos2: "'kern' Horizontal Kerning lookup 15-1" uniFEBF dx=-110 dy=0 dh=-110 dv=0 dx=0 dy=0 dh=0 dv=0
PairPos2: "'kern' Horizontal Kerning lookup 15-1" uni0636 dx=-110 dy=0 dh=-110 dv=0 dx=0 dy=0 dh=0 dv=0
PairPos2: "'kern' Horizontal Kerning lookup 15-1" uniFEBB dx=-110 dy=0 dh=-110 dv=0 dx=0 dy=0 dh=0 dv=0
PairPos2: "'kern' Horizontal Kerning lookup 15-1" uni0635 dx=-110 dy=0 dh=-110 dv=0 dx=0 dy=0 dh=0 dv=0
PairPos2: "'kern' Horizontal Kerning lookup 15-1" uniFEB7 dx=-110 dy=0 dh=-110 dv=0 dx=0 dy=0 dh=0 dv=0
PairPos2: "'kern' Horizontal Kerning lookup 15-1" uni0634 dx=-110 dy=0 dh=-110 dv=0 dx=0 dy=0 dh=0 dv=0
PairPos2: "'kern' Horizontal Kerning lookup 15-1" uniFEB3 dx=-110 dy=0 dh=-110 dv=0 dx=0 dy=0 dh=0 dv=0
PairPos2: "'kern' Horizontal Kerning lookup 15-1" uni0633 dx=-110 dy=0 dh=-110 dv=0 dx=0 dy=0 dh=0 dv=0
PairPos2: "'kern' Horizontal Kerning lookup 15-1" uni0630 dx=-110 dy=0 dh=-110 dv=0 dx=0 dy=0 dh=0 dv=0
PairPos2: "'kern' Horizontal Kerning lookup 15-1" uni062F dx=-110 dy=0 dh=-110 dv=0 dx=0 dy=0 dh=0 dv=0
PairPos2: "'kern' Horizontal Kerning lookup 15-1" uniFEA7 dx=-70 dy=0 dh=-70 dv=0 dx=0 dy=0 dh=0 dv=0
PairPos2: "'kern' Horizontal Kerning lookup 15-1" uniFEA3 dx=-70 dy=0 dh=-70 dv=0 dx=0 dy=0 dh=0 dv=0
PairPos2: "'kern' Horizontal Kerning lookup 15-1" uniFE9F dx=-70 dy=0 dh=-70 dv=0 dx=0 dy=0 dh=0 dv=0
PairPos2: "'kern' Horizontal Kerning lookup 15-1" uniFE9B dx=-110 dy=0 dh=-110 dv=0 dx=0 dy=0 dh=0 dv=0
PairPos2: "'kern' Horizontal Kerning lookup 15-1" uni062B dx=-110 dy=0 dh=-110 dv=0 dx=0 dy=0 dh=0 dv=0
PairPos2: "'kern' Horizontal Kerning lookup 15-1" uniFE97 dx=-110 dy=0 dh=-110 dv=0 dx=0 dy=0 dh=0 dv=0
PairPos2: "'kern' Horizontal Kerning lookup 15-1" uni062A dx=-110 dy=0 dh=-110 dv=0 dx=0 dy=0 dh=0 dv=0
PairPos2: "'kern' Horizontal Kerning lookup 15-1" uni0629 dx=-110 dy=0 dh=-110 dv=0 dx=0 dy=0 dh=0 dv=0
PairPos2: "'kern' Horizontal Kerning lookup 15-1" uniFE91 dx=-70 dy=0 dh=-70 dv=0 dx=0 dy=0 dh=0 dv=0
PairPos2: "'kern' Horizontal Kerning lookup 15-1" uni0628 dx=-110 dy=0 dh=-110 dv=0 dx=0 dy=0 dh=0 dv=0
PairPos2: "'kern' Horizontal Kerning lookup 15-1" uni0627 dx=-110 dy=0 dh=-110 dv=0 dx=0 dy=0 dh=0 dv=0
PairPos2: "'kern' Horizontal Kerning lookup 15-1" uni0622 dx=-110 dy=0 dh=-110 dv=0 dx=0 dy=0 dh=0 dv=0
PairPos2: "'kern' Horizontal Kerning lookup 15-1" uniFB94 dx=-110 dy=0 dh=-110 dv=0 dx=0 dy=0 dh=0 dv=0
PairPos2: "'kern' Horizontal Kerning lookup 15-1" afii57509 dx=-110 dy=0 dh=-110 dv=0 dx=0 dy=0 dh=0 dv=0
PairPos2: "'kern' Horizontal Kerning lookup 15-1" uniFB56 dx=-110 dy=0 dh=-110 dv=0 dx=0 dy=0 dh=0 dv=0
PairPos2: "'kern' Horizontal Kerning lookup 15-1" afii57506 dx=-110 dy=0 dh=-110 dv=0 dx=0 dy=0 dh=0 dv=0
Substitution2: "'fina' Terminal Forms in Arabic lookup 9 subtable" uniFEAE
EndChar
StartChar: uni0633
Encoding: 1587 1587 29
Width: 2499
VWidth: 2304
GlyphClass: 2
Flags: W
AnchorPoint: "Anchor-10" 569.171 895.184 basechar 0
AnchorPoint: "Anchor-7" 399.72 -703.84 basechar 0
LayerCount: 2
Fore
SplineSet
1203.13476562 74.779296875 m 0,0,1
 1203 250 1203 250 1137.98632812 501.86328125 c 1,2,-1
 1293.75097656 535.224609375 l 1,3,4
 1328 343 1328 343 1340.5 307.78515625 c 0,5,6
 1386 174 1386 174 1541.72558594 174.127929688 c 0,7,8
 1718.92024068 174.999607638 1718.92024068 174.999607638 1734.53515625 313.084960938 c 2,9,-1
 1762.00195312 555.978515625 l 1,10,-1
 1877.23730469 555.978515625 l 1,11,-1
 1901.73046875 336.374023438 l 2,12,13
 1920 176 1920 176 2050.20019531 175.744140625 c 0,14,15
 2245 176 2245 176 2244.43945312 438.912109375 c 0,16,17
 2244 550 2244 550 2177.60546875 670.427734375 c 1,18,-1
 2327.08203125 729.416992188 l 5,19,20
 2403 606 2403 606 2407.98828125 410.75 c 4,21,22
 2414 197 2414 197 2279.2578125 78.19921875 c 4,23,24
 2191 -0 2191 -0 2053.5625 0.5263671875 c 0,25,26
 1860 0 1860 0 1811.85449219 150.157226562 c 1,27,28
 1764 -0 1764 -0 1542.26367188 0 c 0,29,30
 1411 0 1411 0 1354.03515625 59.3701171875 c 1,31,-1
 1353.46777344 46.8701171875 l 2,32,33
 1330 -461 1330 -461 749.313476562 -461.4296875 c 0,34,35
 92 -461 92 -461 91.251953125 93.361328125 c 0,36,37
 91 253 91 253 166.25 469.770507812 c 1,38,-1
 330.288085938 434.532226562 l 1,39,40
 263 238 263 238 262.844726562 86.7314453125 c 0,41,42
 263 -292 263 -292 732.838378905 -292.068359375 c 0,43,44
 1203 -292 1203 -292 1203.13476562 74.779296875 c 0,0,1
EndSplineSet
Substitution2: "'fina' Terminal Forms in Arabic lookup 9 subtable" uniFEB2
Substitution2: "'medi' Medial Forms in Arabic lookup 11 subtable" uniFEB4
Substitution2: "'init' Initial Forms in Arabic lookup 13 subtable" uniFEB3
EndChar
StartChar: uni0635
Encoding: 1589 1589 31
Width: 2489
VWidth: 2393
GlyphClass: 2
Flags: W
AnchorPoint: "Anchor-10" 519.816 927.991 basechar 0
AnchorPoint: "Anchor-7" 400.904 -652.235 basechar 0
LayerCount: 2
Fore
SplineSet
1409.65136719 278.938476562 m 1,0,1
 1755 784 1755 784 2049.12402344 784.103515625 c 0,2,3
 2397 784 2397 784 2391.41015625 394.198242188 c 0,4,5
 2388 175 2388 175 2204.43945312 75.5947265625 c 0,6,7
 2062.92353173 -1.04141041476 2062.92353173 -1.04141041476 1708.01660156 -0.828125 c 2,8,-1
 1706.39160156 -0.8271484375 l 2,9,10
 1702.94822933 -0.879396777347 1702.94822933 -0.879396777347 1683.71972656 -0.736328125 c 2,11,-1
 1584.75683594 0 l 2,12,13
 1433 1 1433 1 1386.34472656 77.4599609375 c 1,14,-1
 1359.08496094 77.5498046875 l 1,15,-1
 1359.05664062 70.400390625 l 2,16,17
 1357 -474 1357 -474 736.288085938 -479.88671875 c 0,18,19
 98 -486 98 -486 97.90234375 94.1005859375 c 0,20,21
 98 258 98 258 174.866210938 482.071289062 c 1,22,-1
 337 436.52734375 l 5,23,24
 271 241 271 241 270.358398438 87.2001953125 c 0,25,26
 271 -310 271 -310 733.26953125 -309.680664062 c 0,27,28
 1206 -310 1206 -310 1204.25976562 74.7890625 c 0,29,30
 1203 263 1203 263 1137.20019531 516.661132812 c 1,31,-1
 1305.93945312 550.659179688 l 1,32,33
 1330 369 1330 369 1368.27441406 311.423828125 c 0,34,35
 1390 279 1390 279 1409.65136719 278.938476562 c 1,0,1
1527.87988281 193.618164062 m 1,36,-1
 1739.37207031 193.618164062 l 2,37,38
 1900.86298762 194.03585627 1900.86298762 194.03585627 1999.09082031 202.44921875 c 0,39,40
 2205 220 2205 220 2220.09570312 363.755859375 c 0,41,42
 2245 608 2245 608 2035.39355469 607.951171875 c 0,43,44
 1841 608 1841 608 1527.87988281 193.618164062 c 1,36,-1
EndSplineSet
Substitution2: "'fina' Terminal Forms in Arabic lookup 9 subtable" uniFEBA
Substitution2: "'medi' Medial Forms in Arabic lookup 11 subtable" uniFEBC
Substitution2: "'init' Initial Forms in Arabic lookup 13 subtable" uniFEBB
EndChar
StartChar: uni0637
Encoding: 1591 1591 60
Width: 1520
VWidth: 2186
GlyphClass: 2
Flags: W
AnchorPoint: "Anchor-10" 314.72 1527.47 basechar 0
AnchorPoint: "Anchor-7" 596.72 -285 basechar 0
LayerCount: 2
Fore
SplineSet
582.295 190.009 m 1,0,-1
 769.264 190.009 l 2,1,2
 949.94 190.009 949.94 190.009 1098.22 258.867 c 128,-1,3
 1246.5 327.725 1246.5 327.725 1266.43 447.116 c 0,4,5
 1277.82973634 523.872224752 1277.82973634 523.872224752 1237.79586811 579.418340576 c 128,-1,6
 1197.76199988 634.964456399 1197.76199988 634.964456399 1088.82646468 634.964456399 c 128,-1,7
 979.890929478 634.964456399 979.890929478 634.964456399 871.456 544.802 c 1,8,9
 714.447 411.491 714.447 411.491 594.026 209.67 c 2,10,-1
 582.295 190.009 l 1,0,-1
827.048 5.82812 m 2,11,-1
 270.218 0.5 l 1,12,-1
 91.75 0.5 l 1,13,-1
 91.75 179.38 l 1,14,-1
 287.28 179.38 l 1,15,-1
 287.28 1398.89 l 1,16,-1
 454.16 1398.89 l 1,17,-1
 454.16 253.824 l 1,18,-1
 478.629 299.68 l 2,19,20
 671.329 660.809 671.329 660.809 931.549 783.293 c 4,21,22
 1014.52307896 822.069815041 1014.52307896 822.069815041 1094.46703661 822.069815041 c 128,-1,23
 1174.41099427 822.069815041 1174.41099427 822.069815041 1251.15 790.323 c 0,24,25
 1428.76 716.246 1428.76 716.246 1428.76 446.639 c 0,26,27
 1428.76 260.074 1428.76 260.074 1259.34 134.208875 c 128,-1,28
 1089.92 8.34375 1089.92 8.34375 827.048 5.82812 c 2,11,-1
EndSplineSet
Substitution2: "'fina' Terminal Forms in Arabic lookup 9 subtable" uniFEC2
Substitution2: "'medi' Medial Forms in Arabic lookup 11 subtable" uniFEC4
Substitution2: "'init' Initial Forms in Arabic lookup 13 subtable" uniFEC3
EndChar
StartChar: uni0639
Encoding: 1593 1593 62
Width: 1311
VWidth: 2186
GlyphClass: 2
Flags: W
AnchorPoint: "Anchor-10" 520.325 1352.51 basechar 0
AnchorPoint: "Anchor-7" 345.235 -725.76 basechar 0
LayerCount: 2
Fore
SplineSet
668.143 -340.419 m 0,0,1
 931.73 -327.987 931.73 -327.987 1133.52 -223.854 c 1,2,-1
 1168.42 -387.338 l 1,3,4
 991.38 -472.93 991.38 -472.93 773.209 -497.176 c 0,5,6
 641.375 -512.137 641.375 -512.137 527.254 -500.982 c 0,7,8
 298.155 -479.529 298.155 -479.529 182.582 -339.232 c 0,9,10
 64.8447 -196.586 64.8447 -196.586 82.3535 23.0244 c 0,11,12
 101.817 271.706 101.817 271.706 424.301 484.784 c 1,13,14
 370.106 489.596 370.106 489.596 308.254 537.018 c 0,15,16
 203.666 617.205 203.666 617.205 198.254 768.018 c 0,17,18
 190.104 1027.93 190.104 1027.93 433.753 1102.16 c 4,19,20
 605.553 1153.72 605.553 1153.72 830.254 1040.02 c 1,21,-1
 789.481 901.547 l 1,22,23
 638.069 975.22 638.069 975.22 528.267 958.066 c 0,24,25
 356.88 931.293 356.88 931.293 356.88 778.72 c 0,26,27
 356.88 659.874 356.88 659.874 446.254 615.018 c 0,28,29
 492.668 591.723 492.668 591.723 523.61 588.04 c 0,30,-1
 948.04 626.871 l 1,31,-1
 948.04 456.208 l 1,32,33
 671.466 428.751 671.466 428.751 512.929 338.253 c 0,34,35
 264.125 194.508 264.125 194.508 255.587 0.963867 c 0,36,37
 248.418 -170.888 248.418 -170.888 362.39 -256.978 c 0,38,39
 485.583 -348.679 485.583 -348.679 668.143 -340.419 c 0,0,1
EndSplineSet
Substitution2: "'fina' Terminal Forms in Arabic lookup 9 subtable" uniFECA
Substitution2: "'medi' Medial Forms in Arabic lookup 11 subtable" uniFECC
Substitution2: "'init' Initial Forms in Arabic lookup 13 subtable" uniFECB
EndChar
StartChar: afii57440
Encoding: 1600 1600 37
Width: 650
VWidth: 2304
GlyphClass: 2
Flags: W
AnchorPoint: "Anchor-10" 329.976 1347.15 basechar 0
AnchorPoint: "Anchor-7" 329.976 -121.744 basechar 0
LayerCount: 2
Fore
SplineSet
-13.87109375 0 m 1,0,-1
 -13.87109375 181.001953125 l 1,1,-1
 673.822265625 181.001953125 l 1,2,-1
 673.822265625 0 l 1,3,-1
 -13.87109375 0 l 1,0,-1
EndSplineSet
EndChar
StartChar: uni0643
Encoding: 1603 1603 40
Width: 1915
VWidth: 2393
GlyphClass: 2
Flags: W
AnchorPoint: "Anchor-10" 648.485 1437.58 basechar 0
AnchorPoint: "Anchor-7" 549.645 -273.483 basechar 0
LayerCount: 2
Fore
SplineSet
749.158203125 786.247070312 m 1,0,1
 815.063146538 777.684570312 815.063146538 777.684570312 879.027574631 777.684570312 c 128,-1,2
 942.992002724 777.684570312 942.992002724 777.684570312 996.234375 798.6484375 c 0,3,4
 1089.9453125 834.63671875 1089.9453125 834.63671875 1089.9453125 895.48046875 c 0,5,6
 1089.9453125 963.37965851 1089.9453125 963.37965851 980.978515625 981.139648438 c 0,7,8
 851.138558087 1000.92333413 851.138558087 1000.92333413 853.73828125 1120.578125 c 0,9,10
 855.775390625 1202.95117188 855.775390625 1202.95117188 937.530343396 1244.34576195 c 128,-1,11
 1019.28529617 1285.74035202 1019.28529617 1285.74035202 1136.37890625 1293.64355469 c 1,12,-1
 1136.37890625 1239.92578125 l 1,13,14
 1002.31332451 1229.82873108 1002.31332451 1229.82873108 938.563476562 1175.91601562 c 0,15,16
 910.756835938 1152.39746094 910.756835938 1152.39746094 910.756835938 1118.38427735 c 0,17,18
 910.756835938 1037.73035688 910.756835938 1037.73035688 1028.66357422 1020.39540029 c 128,-1,19
 1146.5703125 1003.06044371 1146.5703125 1003.06044371 1146.5703125 918.983398438 c 0,20,21
 1146.5703125 814.416015625 1146.5703125 814.416015625 1040.81898499 754.612697131 c 128,-1,22
 935.067657475 694.809378636 935.067657475 694.809378636 749.158203125 725.369140625 c 1,23,-1
 749.158203125 786.247070312 l 1,0,1
565.538085938 208.821289062 m 0,24,25
 644.139648438 189.879882812 644.139648438 189.879882812 871.579101564 183.212402344 c 128,-1,26
 1099.01855469 176.544921875 1099.01855469 176.544921875 1233.07128906 190.46484375 c 0,27,28
 1583.08984375 226.8125 1583.08984375 226.8125 1602.99316406 416.641601562 c 2,29,-1
 1609.390625 477.68359375 l 1,30,-1
 1609.390625 1524.27050781 l 1,31,-1
 1782.7265625 1524.27050781 l 1,32,-1
 1782.7265625 445.111328125 l 2,33,34
 1782.7265625 425.776367188 1782.7265625 425.776367188 1778.61132812 365.711425781 c 128,-1,35
 1774.49609375 305.646484375 1774.49609375 305.646484375 1736.06933594 242.971679688 c 0,36,37
 1658.84311432 117.009493039 1658.84311432 117.009493039 1446.57421875 50.7470703125 c 0,38,39
 1283.9292815 -0.0232566360811 1283.9292815 -0.0232566360811 950.663371221 2.62997324446 c 128,-1,40
 617.397460938 5.283203125 617.397460938 5.283203125 486.66796875 41.9833984375 c 0,41,42
 137.559570312 144.498046875 137.559570312 144.498046875 98.798828125 495.489257812 c 0,43,44
 85.5361328125 620.6953125 85.5361328125 620.6953125 135.873046875 763.278320312 c 1,45,-1
 301.473632812 730.704101562 l 1,46,47
 266.798950609 580.671363023 266.798950609 580.671363023 276.790039062 516.731445312 c 0,48,49
 314.06640625 269.426757812 314.06640625 269.426757812 565.538085938 208.821289062 c 0,24,25
EndSplineSet
Substitution2: "'fina' Terminal Forms in Arabic lookup 9 subtable" uniFEDA
Substitution2: "'medi' Medial Forms in Arabic lookup 11 subtable" uniFEDC
Substitution2: "'init' Initial Forms in Arabic lookup 13 subtable" uniFEDB
EndChar
StartChar: uni0644
Encoding: 1604 1604 41
Width: 1314
VWidth: 2304
GlyphClass: 2
Flags: W
AnchorPoint: "Anchor-10" 454.595 1130.67 basechar 0
AnchorPoint: "Anchor-7" 420.95 -544.267 basechar 0
LayerCount: 2
Fore
SplineSet
1018.75878906 168.711914062 m 0,0,1
 1019 174 1019 174 1018.69140625 193.395996094 c 0,2,3
 1019 213 1019 213 1021.33691406 472.573242188 c 1,4,-1
 1021.33691406 1470.37597656 l 1,5,-1
 1188.50585938 1470.37597656 l 1,6,-1
 1188.50585938 472.59375 l 2,7,8
 1189 205 1189 205 1186.046875 202.193359375 c 1,9,10
 1181 -61 1181 -61 1045.92297975 -211.122979521 c 0,11,12
 910 -362 910 -362 636.911132812 -361.729492188 c 0,13,14
 395 -362 395 -362 243.217773438 -229.474121094 c 0,15,16
 91 -97 91 -97 91.3095703125 163.583007812 c 0,17,18
 91 298 91 298 137.984375 419.087890625 c 1,19,-1
 294.72265625 386.803710938 l 5,20,21
 257 258 257 258 256.6640625 171.552734375 c 4,22,23
 257 -8 257 -8 360.61328125 -105.849609375 c 4,24,25
 452 -192 452 -192 650.466796875 -191.743164062 c 0,26,27
 1002 -192 1002 -192 1018.75878906 168.711914062 c 0,0,1
EndSplineSet
Substitution2: "'fina' Terminal Forms in Arabic lookup 9 subtable" uniFEDE
Substitution2: "'medi' Medial Forms in Arabic lookup 11 subtable" uniFEE0
Substitution2: "'init' Initial Forms in Arabic lookup 13 subtable" uniFEDF
EndChar
StartChar: uni0645
Encoding: 1605 1605 69
Width: 1079
VWidth: 2186
GlyphClass: 2
Flags: W
AnchorPoint: "Anchor-10" 586.5 1103.31 basechar 0
AnchorPoint: "Anchor-7" 169.631 -602.952 basechar 0
LayerCount: 2
Fore
SplineSet
443.680664062 402.72265625 m 1,0,1
 450.46484375 394.540039062 450.46484375 394.540039062 542.8125 387.583984375 c 128,-1,2
 635.16015625 380.62890625 635.16015625 380.62890625 676.206054688 377.958984375 c 0,3,4
 764.008789062 373.203125 764.008789062 373.203125 786.186523438 379.615234375 c 0,5,6
 842.591796875 394.122070312 842.591796875 394.122070312 825.618164062 470.600585938 c 0,7,8
 788.936523438 633.631835938 788.936523438 633.631835938 658.271484375 679.084960938 c 0,9,10
 548.068359375 717.060546875 548.068359375 717.060546875 489.307617188 645.051757812 c 0,11,12
 433.25390625 575.060546875 433.25390625 575.060546875 443.680664062 402.72265625 c 1,0,1
869.170898438 227.357421875 m 24,13,14
 818 202 818 202 636.26171875 215.041015625 c 0,15,16
 467 227 467 227 386.022460938 228.193359375 c 0,17,18
 330 229 330 229 286 144 c 0,19,20
 257 87 257 87 257 -52 c 2,21,-1
 257 -472 l 1,22,-1
 91 -472 l 1,23,-1
 91 -38 l 2,24,25
 91 202 91 202 168 302 c 0,26,27
 212 359 212 359 282.780273438 370.986328125 c 1,28,29
 278 667 278 667 412.815429688 784.677734375 c 0,30,31
 544 900 544 900 734.079101562 817.173828125 c 0,32,33
 920 736 920 736 974.830078125 476.638671875 c 0,34,35
 1013 296 1013 296 869.170898438 227.357421875 c 24,13,14
EndSplineSet
Substitution2: "'init' Initial Forms in Arabic lookup 13 subtable" uniFEE3
Substitution2: "'medi' Medial Forms in Arabic lookup 11 subtable" uniFEE4
Substitution2: "'fina' Terminal Forms in Arabic lookup 9 subtable" uniFEE2
EndChar
StartChar: uni0647
Encoding: 1607 1607 71
Width: 951
VWidth: 2186
GlyphClass: 2
Flags: W
AnchorPoint: "Anchor-10" 438.924 1154.58 basechar 0
AnchorPoint: "Anchor-7" 337.864 -240.56 basechar 0
LayerCount: 2
Fore
SplineSet
485.788287965 159.539543726 m 1,0,1
 682.704278722 159.539543726 682.704278722 159.539543726 682.704278722 312.729103792 c 0,2,3
 682.704278722 472.571114482 682.704278722 472.571114482 469 648 c 5,4,5
 267.682248913 436.086577803 267.682248913 436.086577803 267.682248913 330.331738939 c 0,6,7
 267.682248913 165.095051599 267.682248913 165.095051599 485.788287965 159.539543726 c 1,0,1
87.2027607354 302.774895643 m 0,8,9
 87 453 87 453 260 656 c 8,10,11
 349 768 l 1,12,-1
 295 801 l 1,13,-1
 388 915 l 1,14,15
 678 749 678 749 804.318 500.457 c 0,16,17
 865 381 865 381 864.617317109 286.874019062 c 0,18,19
 865 141 865 141 720 53 c 0,20,21
 640 4 640 4 492.055377002 4.39363206029 c 0,22,23
 339 4 339 4 259.998 43.4404 c 0,24,25
 87 128 87 128 87.2027607354 302.774895643 c 0,8,9
EndSplineSet
Substitution2: "'fina' Terminal Forms in Arabic lookup 9 subtable" uniFEEA
Substitution2: "'medi' Medial Forms in Arabic lookup 11 subtable" uniFEEC
Substitution2: "'init' Initial Forms in Arabic lookup 13 subtable" uniFEEB
EndChar
StartChar: uni0648
Encoding: 1608 1608 45
Width: 867
VWidth: 2393
GlyphClass: 2
Flags: W
AnchorPoint: "Anchor-10" 373.293 1131.9 basechar 0
AnchorPoint: "Anchor-7" 334.53 -677.771 basechar 0
LayerCount: 2
Fore
SplineSet
604.8125 185.134765625 m 2,0,1
 604.288058978 546.999071046 604.288058978 546.999071046 441.990234375 547.522460938 c 0,2,3
 351 548 351 548 301.952148438 438.53515625 c 0,4,5
 275 379 275 379 274.942382812 316.223632812 c 0,6,7
 275 242 275 242 321.376953125 204.002929688 c 0,8,9
 395 144 395 144 604.821289062 179.0703125 c 1,10,-1
 604.8125 185.134765625 l 2,0,1
769.142578125 113.590820312 m 0,11,12
 754 -164 754 -164 573.278320312 -324.884765625 c 0,13,14
 426 -457 426 -457 115.379882812 -484.263671875 c 1,15,-1
 86.185546875 -320.1484375 l 1,16,17
 500 -280 500 -280 592.806640625 13.5361328125 c 1,18,19
 487 -1 487 -1 424.603515625 -0.7333984375 c 0,20,21
 247 1 247 1 171.146484375 111.278320312 c 0,22,23
 56 279 56 279 156.692382812 509.720703125 c 0,24,25
 258 741 258 741 434.6328125 741.28125 c 0,26,27
 610 741 610 741 707.15234375 537.514648438 c 0,28,29
 784 378 784 378 769.142578125 113.590820312 c 0,11,12
EndSplineSet
Substitution2: "'fina' Terminal Forms in Arabic lookup 9 subtable" uniFEEE
EndChar
StartChar: uni0649
Encoding: 1609 1609 46
Width: 1464
VWidth: 2393
GlyphClass: 2
Flags: W
AnchorPoint: "Anchor-10" 463.206 1074.7 basechar 0
AnchorPoint: "Anchor-7" 440.913 -644.935 basechar 0
LayerCount: 2
Fore
SplineSet
352 489 m 1,0,1
 283 314 283 314 272.515267629 157.515185917 c 0,2,3
 260 -34 260 -34 377.63671875 -135.944335938 c 0,4,5
 488 -233 488 -233 715.120117188 -232.850585938 c 0,6,7
 887 -233 887 -233 1013.41992188 -181.390625 c 0,8,9
 1196 -106 1196 -106 1196.50210421 18.5337170958 c 0,10,11
 1197 83 1197 83 1132.75105211 84.467097522 c 0,12,13
 1069 86 1069 86 1012.94921875 91.0625 c 0,14,15
 890 103 890 103 829.056640625 175.07421875 c 0,16,17
 782 232 782 232 781.897460938 324.192382812 c 0,18,19
 782 565 782 565 972.7265625 699.989257812 c 0,20,21
 1083 778 1083 778 1235.77131223 777.973783641 c 0,22,23
 1277 778 1277 778 1321.09667969 772.3046875 c 1,24,-1
 1307.91210938 611.31640625 l 1,25,-1
 1285.140625 611.31640625 l 2,26,27
 1077 611 1077 611 995.91015625 489.541015625 c 0,28,29
 954 427 954 427 954.005859375 357.540039062 c 128,-1,30
 954 288 954 288 1013.25585938 269.076171875 c 0,31,32
 1055 256 1055 256 1161.76855469 249.965820312 c 0,33,34
 1367 237 1367 237 1366.66398489 73.6860907878 c 0,35,36
 1367 -123 1367 -123 1230.33300781 -238.592773438 c 0,37,38
 1033 -404 1033 -404 734 -404 c 0,39,40
 254 -404 254 -404 147.438476562 -112.221679688 c 0,41,42
 47 160 47 160 196.833984375 550.620117188 c 1,43,-1
 352 489 l 1,0,1
EndSplineSet
Substitution2: "'fina' Terminal Forms in Arabic lookup 9 subtable" uniFEF0
Substitution2: "'medi' Medial Forms in Arabic lookup 11 subtable" uniFBE9
Substitution2: "'init' Initial Forms in Arabic lookup 13 subtable" uniFBE8
EndChar
StartChar: uni064B
Encoding: 1611 1611 48
Width: -27
VWidth: 2304
GlyphClass: 4
Flags: W
AnchorPoint: "Anchor-10" 569.519 1095.82 mark 0
AnchorPoint: "Anchor-9" 569.519 1095.82 mark 0
AnchorPoint: "Anchor-1" 569.519 1660.78 basemark 0
AnchorPoint: "Anchor-1" 569.519 1095.82 mark 0
LayerCount: 2
Fore
SplineSet
297.015625 1050.56542969 m 1,0,-1
 297.015625 1176.10839844 l 1,1,-1
 810.6796875 1386.14941406 l 1,2,-1
 810.6796875 1260.60546875 l 1,3,-1
 297.015625 1050.56542969 l 1,0,-1
297.015625 1324.06933594 m 1,4,-1
 297.015625 1449.61230469 l 1,5,-1
 810.6796875 1659.65332031 l 1,6,-1
 810.6796875 1534.109375 l 1,7,-1
 297.015625 1324.06933594 l 1,4,-1
EndSplineSet
EndChar
StartChar: uni064C
Encoding: 1612 1612 57
Width: 0
VWidth: 2186
GlyphClass: 4
Flags: W
AnchorPoint: "Anchor-10" 554.386 1155.44 mark 0
AnchorPoint: "Anchor-9" 554.386 1155.44 mark 0
AnchorPoint: "Anchor-1" 546.386 1810.94 basemark 0
AnchorPoint: "Anchor-1" 554.386 1155.44 mark 0
LayerCount: 2
Fore
SplineSet
567.219 1298.72 m 0,0,1
 608.391 1338.78 608.391 1338.78 631.845 1385.69 c 2,2,-1
 639.364 1400.73 l 1,3,-1
 622.913 1404.22 l 2,4,5
 589.558 1411.29 589.558 1411.29 566.532 1424.31 c 0,6,7
 457.736 1481.73 457.736 1481.73 457.736 1574.47 c 0,8,9
 457.736 1661.08 457.736 1661.08 526.365 1712.8 c 0,10,11
 552.86 1732.67 552.86 1732.67 615.937 1732.67 c 0,12,13
 688.759 1732.67 688.759 1732.67 727.738 1694.66 c 0,14,15
 782.696 1640.71 782.696 1640.71 782.696 1561.63 c 0,16,17
 782.696 1521.9 782.696 1521.9 770.46 1483.15 c 2,18,-1
 765.402 1467.14 l 1,19,-1
 782.175 1466.26 l 2,20,21
 802.247 1465.2 802.247 1465.2 817.806 1465.17 c 0,22,23
 831.205 1464.45 831.205 1464.45 845.826 1464.2 c 1,24,-1
 845.826 1372.44 l 1,25,26
 806.232 1372.69 806.232 1372.69 788.381 1374.48 c 2,27,-1
 723.27 1380.74 l 1,28,-1
 719.537 1371.99 l 2,29,30
 692.652 1308.91 692.652 1308.91 614.12 1227.24 c 1,31,32
 527.043 1139.14 527.043 1139.14 431.896 1139.14 c 0,33,34
 319.02 1139.14 319.02 1139.14 262.205 1295.39 c 0,35,36
 247.89 1334.51 247.89 1334.51 246.994 1442.7 c 1,37,-1
 317.299 1442.7 l 1,38,39
 318.143 1347.11 318.143 1347.11 331.307 1318.59 c 0,40,41
 372.26 1230.84 372.26 1230.84 431.896 1230.84 c 0,42,43
 497.076 1230.84 497.076 1230.84 567.219 1298.72 c 0,0,1
669.292 1482.64 m 1,44,-1
 680.316 1508.36 l 2,45,46
 690.996 1533.28 690.996 1533.28 690.996 1561.63 c 0,47,48
 690.996 1604.15 690.996 1604.15 668.07 1623.02 c 0,49,50
 646.28 1640.97 646.28 1640.97 620.217 1640.97 c 0,51,52
 591.787 1640.97 591.787 1640.97 575.875 1628.63 c 0,53,54
 551.576 1610.34 551.576 1610.34 551.576 1574.47 c 0,55,56
 551.576 1526.08 551.576 1526.08 607.898 1503.55 c 0,57,58
 629.803 1494.79 629.803 1494.79 658.123 1486.08 c 2,59,-1
 669.292 1482.64 l 1,44,-1
EndSplineSet
EndChar
StartChar: uni064D
Encoding: 1613 1613 50
Width: -27
VWidth: 2304
GlyphClass: 4
Flags: W
AnchorPoint: "Anchor-7" 552.623 75.7275 mark 0
AnchorPoint: "Anchor-6" 552.623 75.7275 mark 0
AnchorPoint: "Anchor-0" 569.519 -468.112 basemark 0
AnchorPoint: "Anchor-0" 552.623 75.7275 mark 0
LayerCount: 2
Fore
SplineSet
302.295898438 -522.875 m 1,0,-1
 302.295898438 -397.331054688 l 1,1,-1
 815.959960938 -187.291015625 l 1,2,-1
 815.959960938 -312.833984375 l 1,3,-1
 302.295898438 -522.875 l 1,0,-1
302.295898438 -249.37109375 m 1,4,-1
 302.295898438 -123.827148438 l 1,5,-1
 815.959960938 86.212890625 l 1,6,-1
 815.959960938 -39.330078125 l 1,7,-1
 302.295898438 -249.37109375 l 1,4,-1
EndSplineSet
EndChar
StartChar: uni064E
Encoding: 1614 1614 78
Width: 0
VWidth: 2186
GlyphClass: 4
Flags: W
AnchorPoint: "Anchor-10" 517.84 1279.5 mark 0
AnchorPoint: "Anchor-9" 517.84 1279.5 mark 0
AnchorPoint: "Anchor-1" 517.84 1600.5 basemark 0
AnchorPoint: "Anchor-1" 517.84 1279.5 mark 0
LayerCount: 2
Fore
SplineSet
237.4 1237.41 m 1,0,-1
 237.4 1364.48 l 1,1,-1
 795.28 1592.79 l 5,2,-1
 795.28 1465.72 l 1,3,-1
 237.4 1237.41 l 1,0,-1
EndSplineSet
EndChar
StartChar: uni064F
Encoding: 1615 1615 79
Width: 0
VWidth: 2186
GlyphClass: 4
Flags: W
AnchorPoint: "Anchor-10" 531.84 1205.5 mark 0
AnchorPoint: "Anchor-9" 531.84 1205.5 mark 0
AnchorPoint: "Anchor-1" 547.84 1825 basemark 0
AnchorPoint: "Anchor-1" 531.84 1205.5 mark 0
LayerCount: 2
Fore
SplineSet
594.529 1426.81 m 6,0,1
 586.598 1428.57 586.598 1428.57 567.734 1438.5 c 4,2,3
 459.19 1494.78 459.19 1494.78 459.19 1588.53 c 4,4,5
 459.19 1675.14 459.19 1675.14 527.819 1726.86 c 4,6,7
 554.314 1746.73 554.314 1746.73 617.39 1746.73 c 4,8,9
 690.212 1746.73 690.212 1746.73 729.192 1708.72 c 4,10,11
 784.15 1654.77 784.15 1654.77 784.15 1575.69 c 4,12,13
 784.15 1543.43 784.15 1543.43 769.757 1497.16 c 6,14,-1
 764.821 1481.3 l 5,15,-1
 781.407 1480.32 l 6,16,17
 799.81 1479.24 799.81 1479.24 819.259 1478.7 c 4,18,19
 832.229 1478.34 832.229 1478.34 847.28 1478.21 c 5,20,-1
 847.28 1386.53 l 5,21,22
 817.029 1386.85 817.029 1386.85 789.455 1388.57 c 4,23,24
 757.6 1390.7 757.6 1390.7 727.915 1393.88 c 6,25,-1
 720.312 1394.69 l 5,26,-1
 715.905 1388.44 l 6,27,28
 671.45 1325.37 671.45 1325.37 599.88 1281.81 c 4,29,30
 398.294 1157.85 398.294 1157.85 248.4 1152.36 c 5,31,-1
 248.4 1244.01 l 5,32,33
 408.671 1248.65 408.671 1248.65 554.781 1363.22 c 4,34,35
 580.142 1383.07 580.142 1383.07 601.135 1405.16 c 6,36,-1
 616.962 1421.83 l 5,37,-1
 594.529 1426.81 l 6,0,1
670.746 1496.7 m 5,38,-1
 681.77 1522.42 l 6,39,40
 692.45 1547.34 692.45 1547.34 692.45 1575.69 c 4,41,42
 692.45 1618.21 692.45 1618.21 669.524 1637.08 c 4,43,44
 647.734 1655.03 647.734 1655.03 621.67 1655.03 c 4,45,46
 593.241 1655.03 593.241 1655.03 577.329 1642.69 c 4,47,48
 553.03 1624.4 553.03 1624.4 553.03 1588.53 c 4,49,50
 553.03 1540.14 553.03 1540.14 609.352 1517.61 c 4,51,52
 631.256 1508.85 631.256 1508.85 659.577 1500.14 c 6,53,-1
 670.746 1496.7 l 5,38,-1
EndSplineSet
EndChar
StartChar: uni0650
Encoding: 1616 1616 80
Width: 0
VWidth: 2186
GlyphClass: 4
Flags: W
AnchorPoint: "Anchor-7" 467.84 -12.5 mark 0
AnchorPoint: "Anchor-6" 467.84 -12.5 mark 0
AnchorPoint: "Anchor-0" 556.84 -311.5 basemark 0
AnchorPoint: "Anchor-0" 467.84 -12.5 mark 0
LayerCount: 2
Fore
SplineSet
267.96 -356.836 m 1,0,-1
 267.96 -229.766 l 1,1,-1
 825.84 -1.45605 l 1,2,-1
 825.84 -128.526 l 1,3,-1
 267.96 -356.836 l 1,0,-1
EndSplineSet
EndChar
StartChar: uni0651
Encoding: 1617 1617 54
Width: -27
VWidth: 2304
GlyphClass: 4
Flags: W
AnchorPoint: "Anchor-10" 609.519 1390.22 mark 0
AnchorPoint: "Anchor-9" 609.519 1390.22 mark 0
AnchorPoint: "Anchor-1" 578.847 1840.34 basemark 0
AnchorPoint: "Anchor-1" 609.519 1390.22 mark 0
LayerCount: 2
Fore
SplineSet
577.407226562 1531.921875 m 1,0,1
 547 1367 547 1367 402.48400556 1366.87597656 c 0,2,3
 258 1367 258 1367 257.186523438 1552.89257812 c 0,4,5
 257 1590 257 1590 272.712890625 1693.63867188 c 1,6,-1
 347.826171875 1693.63867188 l 1,7,8
 335 1604 335 1604 335 1576 c 0,9,10
 335 1463 335 1463 414.949708912 1463.0777407 c 0,11,12
 525 1463 525 1463 530.60546875 1607.45214844 c 0,13,14
 532 1647 532 1647 531.875 1694.11621094 c 0,15,16
 532 1741 532 1741 531.86328125 1749.95605469 c 1,17,-1
 606.123046875 1749.95605469 l 1,18,19
 608 1714 608 1714 608.287109375 1665.99121094 c 0,20,21
 608.000414097 1525.20335128 608.000414097 1525.20335128 730.454841185 1525.40617962 c 2,22,-1
 731.086914062 1525.40722656 l 2,23,24
 805 1526 805 1526 805.22265625 1644.49707031 c 0,25,26
 806 1750 806 1750 794.323242188 1812.33496094 c 1,27,-1
 873.943359375 1812.33496094 l 1,28,29
 885 1733 885 1733 885 1639 c 0,30,31
 885 1486 885 1486 800.654296875 1449.91699219 c 0,32,33
 768 1436 768 1436 736 1435 c 0,34,35
 665 1432 665 1432 628 1459 c 0,36,37
 583 1492 583 1492 577.407226562 1531.921875 c 1,0,1
EndSplineSet
EndChar
StartChar: uni0653
Encoding: 1619 1619 64
Width: 0
VWidth: 2186
GlyphClass: 4
Flags: W
AnchorPoint: "Anchor-10" 383.84 1264.52 mark 0
AnchorPoint: "Anchor-9" 383.84 1264.52 mark 0
AnchorPoint: "Anchor-1" 383.84 1600.5 basemark 0
AnchorPoint: "Anchor-1" 383.84 1264.52 mark 0
LayerCount: 2
Fore
SplineSet
305 1440 m 6,0,-1
 642 1440 l 5,1,-1
 643 1340 l 5,2,-1
 318 1340 l 6,3,4
 212 1340 212 1340 138.553710938 1244.28613281 c 5,5,-1
 70.2041015625 1321.51464844 l 5,6,7
 148 1440 148 1440 305 1440 c 6,0,-1
EndSplineSet
EndChar
StartChar: uni0657
Encoding: 1623 1623 67
Width: 0
VWidth: 2186
GlyphClass: 4
Flags: W
AnchorPoint: "Anchor-10" 547.84 1279.5 mark 0
AnchorPoint: "Anchor-9" 547.84 1279.5 mark 0
AnchorPoint: "Anchor-1" 547.84 1975 basemark 0
AnchorPoint: "Anchor-1" 547.84 1279.5 mark 0
LayerCount: 2
Fore
SplineSet
501.148 1675.55 m 2,0,1
 509.083 1673.79 509.083 1673.79 527.945 1663.86 c 0,2,3
 636.49 1607.58 636.49 1607.58 636.49 1513.83 c 0,4,5
 636.49 1427.22 636.49 1427.22 567.86 1375.5 c 0,6,7
 541.366 1355.63 541.366 1355.63 478.29 1355.63 c 0,8,9
 405.468 1355.63 405.468 1355.63 366.487 1393.64 c 0,10,11
 311.53 1447.59 311.53 1447.59 311.53 1526.67 c 0,12,13
 311.53 1558.94 311.53 1558.94 325.923 1605.2 c 2,14,-1
 330.858 1621.06 l 1,15,-1
 314.272 1622.04 l 2,16,17
 295.871 1623.12 295.871 1623.12 276.421 1623.66 c 0,18,19
 263.452 1624.02 263.452 1624.02 248.4 1624.15 c 1,20,-1
 248.4 1715.83 l 1,21,22
 278.631 1715.51 278.631 1715.51 306.226 1713.79 c 0,23,24
 338.082 1711.66 338.082 1711.66 367.766 1708.48 c 2,25,-1
 375.369 1707.67 l 1,26,-1
 379.775 1713.92 l 2,27,28
 424.231 1776.99 424.231 1776.99 495.801 1820.55 c 0,29,30
 697.387 1944.51 697.387 1944.51 847.28 1950 c 1,31,-1
 847.28 1858.35 l 1,32,33
 687.009 1853.71 687.009 1853.71 540.898 1739.14 c 0,34,35
 515.54 1719.29 515.54 1719.29 494.545 1697.2 c 2,36,-1
 478.72 1680.54 l 1,37,-1
 501.148 1675.55 l 2,0,1
424.935 1605.66 m 1,38,-1
 413.911 1579.94 l 2,39,40
 403.23 1555.02 403.23 1555.02 403.23 1526.67 c 0,41,42
 403.23 1484.16 403.23 1484.16 426.155 1465.28 c 0,43,44
 447.946 1447.33 447.946 1447.33 474.01 1447.33 c 0,45,46
 502.438 1447.33 502.438 1447.33 518.352 1459.67 c 0,47,48
 542.65 1477.96 542.65 1477.96 542.65 1513.83 c 0,49,50
 542.65 1562.22 542.65 1562.22 486.328 1584.75 c 0,51,52
 464.442 1593.51 464.442 1593.51 436.104 1602.22 c 2,53,-1
 424.935 1605.66 l 1,38,-1
EndSplineSet
EndChar
StartChar: uni065A
Encoding: 1626 1626 60
Width: 1129
VWidth: 2304
GlyphClass: 4
Flags: W
AnchorPoint: "Anchor-10" 569.519 1347.15 mark 0
AnchorPoint: "Anchor-9" 569.519 1347.15 mark 0
AnchorPoint: "Anchor-1" 567.259 1855.62 basemark 0
AnchorPoint: "Anchor-1" 569.519 1347.15 mark 0
LayerCount: 2
Fore
SplineSet
495.958007812 1434.93457031 m 1,0,-1
 296.83203125 1767.83300781 l 1,1,-1
 413.142578125 1767.83300781 l 1,2,-1
 569.518554688 1533.26269531 l 1,3,-1
 725.89453125 1767.83300781 l 1,4,-1
 842.206054688 1767.83300781 l 1,5,-1
 643.077148438 1434.93457031 l 1,6,-1
 495.958007812 1434.93457031 l 1,0,-1
EndSplineSet
EndChar
StartChar: afii57392
Encoding: 1632 1632 61
Width: 957
VWidth: 2393
GlyphClass: 2
Flags: W
LayerCount: 2
Fore
SplineSet
362.16015625 572.8203125 m 0,0,1
 361.719726562 524.860351562 361.719726562 524.860351562 396.040039062 490.540039062 c 128,-1,2
 430.360351562 456.219726562 430.360351562 456.219726562 478.3203125 456.440429688 c 0,3,4
 526.280273438 456.219726562 526.280273438 456.219726562 560.599609375 490.540039062 c 128,-1,5
 594.919921875 524.860351562 594.919921875 524.860351562 594.700195312 572.8203125 c 0,6,7
 594.919921875 620.780273438 594.919921875 620.780273438 560.599609375 655.099609375 c 128,-1,8
 526.280273438 689.419921875 526.280273438 689.419921875 478.3203125 689.200195312 c 0,9,10
 430.360351562 689.419921875 430.360351562 689.419921875 396.040039062 655.099609375 c 128,-1,11
 361.719726562 620.780273438 361.719726562 620.780273438 362.16015625 572.8203125 c 0,0,1
216 567.5 m 0,12,13
 215 676.5 215 676.5 293 754.5 c 128,-1,14
 371 832.5 371 832.5 480 832 c 0,15,16
 589 832.5 589 832.5 667 754.5 c 128,-1,17
 745 676.5 745 676.5 744.5 567.5 c 0,18,19
 745 458.5 745 458.5 667 380.5 c 128,-1,20
 589 302.5 589 302.5 480 303 c 0,21,22
 371 302.5 371 302.5 293 380.5 c 128,-1,23
 215 458.5 215 458.5 216 567.5 c 0,12,13
EndSplineSet
EndChar
StartChar: afii57393
Encoding: 1633 1633 62
Width: 689
VWidth: 2393
GlyphClass: 2
Flags: W
LayerCount: 2
Fore
SplineSet
477.95703125 9.3349609375 m 1,0,-1
 309.299804688 9.3349609375 l 1,1,2
 308 371 308 371 263.9296875 782.809570312 c 4,3,4
 219 1194 219 1194 108.876953125 1399.25195312 c 5,5,-1
 261.69140625 1452.56347656 l 5,6,7
 378 1248 378 1248 440.702148438 702.145507812 c 4,8,9
 478 380 478 380 477.95703125 9.3349609375 c 1,0,-1
EndSplineSet
EndChar
StartChar: afii57394
Encoding: 1634 1634 90
Width: 1177
VWidth: 2186
GlyphClass: 2
Flags: W
LayerCount: 2
Fore
SplineSet
1064.53 1373.5 m 1,0,1
 1059.87463581 872.972281384 1059.87463581 872.972281384 660.19 873.061 c 0,2,3
 532 873 532 873 441 935 c 5,4,5
 483 782 483 782 504.524240081 606.325304214 c 128,-1,6
 526.048480161 430.650608429 526.048480161 430.650608429 526.275 8.5 c 1,7,-1
 359.672 8.5 l 1,8,9
 359 455 359 455 313.5 723 c 128,-1,10
 268 991 268 991 107.37 1373.5 c 1,11,-1
 292.076 1373.5 l 1,12,13
 359 1216 359 1216 363.137 1208.98 c 0,14,15
 457 1037 457 1037 648 1038.5 c 128,-1,16
 839 1040 839 1040 883.03515625 1189.00976562 c 0,17,18
 903 1256 903 1256 898.416 1373.5 c 1,19,-1
 1064.53 1373.5 l 1,0,1
EndSplineSet
EndChar
StartChar: afii57395
Encoding: 1635 1635 91
Width: 1177
VWidth: 2186
GlyphClass: 2
Flags: W
LayerCount: 2
Fore
SplineSet
688.399 971.244 m 1,0,1
 620.835665567 889.617468483 620.835665567 889.617468483 512.449501966 889.617468483 c 0,2,3
 482.353384323 889.617468483 482.353384323 889.617468483 444.501 893.582 c 1,4,5
 454.176 869.291 454.176 869.291 486.768 676.76 c 128,-1,6
 519.36 484.229 519.36 484.229 519.854 8.5 c 1,7,-1
 353.252 8.5 l 1,8,9
 352.693 454.721 352.693 454.721 307.3805 722.891 c 128,-1,10
 262.068 991.061 262.068 991.061 100.95 1373.5 c 1,11,-1
 282.325 1373.5 l 1,12,13
 330.513 1255.7 330.513 1255.7 371.758 1127.85 c 0,14,15
 394.118180659 1058.53673594 394.118180659 1058.53673594 485.853289547 1058.53673594 c 0,16,17
 579.683648942 1058.53673594 579.683648942 1058.53673594 585.432 1154.68 c 0,18,19
 591.453 1278.17 591.453 1278.17 591.844 1373.5 c 1,20,-1
 758.481 1373.5 l 1,21,22
 758.928507759 1144.75539593 758.928507759 1144.75539593 775.19 1115.71 c 0,23,24
 803.923477158 1067.38633135 803.923477158 1067.38633135 868.666122946 1067.38633135 c 128,-1,25
 933.408768734 1067.38633135 933.408768734 1067.38633135 949.674884367 1117.20316568 c 128,-1,26
 965.941 1167.02 965.941 1167.02 966.357 1373.5 c 1,27,-1
 1111.95 1373.5 l 1,28,29
 1111.06 1066.07 1111.06 1066.07 1065 992.918 c 0,30,31
 1001.72 894.46 1001.72 894.46 875.6735 894.46 c 128,-1,32
 749.627 894.46 749.627 894.46 688.399 971.244 c 1,0,1
EndSplineSet
EndChar
StartChar: afii57396
Encoding: 1636 1636 65
Width: 983
VWidth: 2393
GlyphClass: 2
Flags: W
LayerCount: 2
Fore
SplineSet
107 333.120117188 m 0,0,1
 100 604 100 604 450.450195312 784.735351562 c 1,2,3
 179 845 179 845 183.3046875 1078.77734375 c 0,4,5
 190 1429 190 1429 677.548828125 1421.85058594 c 1,6,-1
 677.548828125 1248.95996094 l 1,7,8
 358 1238 358 1238 358.0625 1073.43652344 c 0,9,10
 358 882 358 882 710.456054688 881.127929688 c 1,11,-1
 712.497070312 735.340820312 l 1,12,13
 256.067569614 581.974466006 256.067569614 581.974466006 267.400390625 339.559570312 c 0,14,15
 275 177 275 177 573.049804688 177.599609375 c 2,16,-1
 874.795898438 178.629882812 l 1,17,-1
 876.803710938 0.0029296875 l 1,18,-1
 533.737304688 0.37890625 l 2,19,20
 116 1 116 1 107 333.120117188 c 0,0,1
EndSplineSet
EndChar
StartChar: afii57397
Encoding: 1637 1637 66
Width: 1188
VWidth: 2393
GlyphClass: 2
Flags: W
LayerCount: 2
Fore
SplineSet
567.939453125 1015.26855469 m 1,0,1
 419 871 419 871 350 754 c 128,-1,2
 281 637 281 637 280.818359375 522.4296875 c 0,3,4
 281 240 281 240 623.568359375 240.290039062 c 0,5,6
 830 241 830 241 895.798828125 393.943359375 c 0,7,8
 973 576 973 576 804.630859375 799.791015625 c 0,9,10
 693 948 693 948 567.939453125 1015.26855469 c 1,0,1
389.336914062 1154.48242188 m 1,11,-1
 484.249023438 1298.28808594 l 1,12,13
 596 1241 596 1241 735.604492188 1120.18652344 c 0,14,15
 1081 819 1081 819 1080.96484375 509.536132812 c 0,16,17
 1081 312 1081 312 987.254882812 214.486328125 c 0,18,19
 858 78 858 78 599.741210938 78.8994140625 c 0,20,21
 254 79 254 79 141.907226562 325.651367188 c 0,22,23
 107 403 107 403 107.227539062 500.06640625 c 0,24,25
 109 797 109 797 439.413085938 1123.4375 c 1,26,-1
 389.336914062 1154.48242188 l 1,11,-1
EndSplineSet
EndChar
StartChar: afii57398
Encoding: 1638 1638 67
Width: 1215
VWidth: 2304
GlyphClass: 2
Flags: W
LayerCount: 2
Fore
SplineSet
763.630859375 1218.765625 m 5,0,1
 635 1181 635 1181 460.626953125 1181.31835938 c 4,2,3
 286 1181 286 1181 105.213867188 1233.35644531 c 5,4,-1
 105.213867188 1412.98242188 l 5,5,6
 299 1362 299 1362 502.045898438 1361.91992188 c 132,-1,7
 705 1362 705 1362 929.674804688 1413.73242188 c 5,8,9
 932 840 932 840 1017.16210938 396.325195312 c 4,10,11
 1052 216 1052 216 1104.78613281 8.9755859375 c 5,12,-1
 919.895507812 8.9755859375 l 5,13,14
 827 368 827 368 796.5 707.5 c 132,-1,15
 766 1047 766 1047 763.630859375 1218.765625 c 5,0,1
EndSplineSet
EndChar
StartChar: afii57399
Encoding: 1639 1639 68
Width: 1201
VWidth: 2393
GlyphClass: 2
Flags: W
LayerCount: 2
Fore
SplineSet
514.1953125 9.3349609375 m 1,0,1
 495 241 495 241 379.6328125 612.346679688 c 4,2,3
 204 1175 204 1175 88.0400390625 1399.17675781 c 5,4,-1
 242.099609375 1452.44433594 l 5,5,6
 512 919 512 919 600.065429688 331.069335938 c 5,7,8
 687 914 687 914 958.045898438 1452.45214844 c 5,9,-1
 1113.18945312 1399.16015625 l 5,10,11
 993 1162 993 1162 820.3359375 611.791015625 c 4,12,13
 707 252 707 252 686.750976562 9.3349609375 c 1,14,-1
 514.1953125 9.3349609375 l 1,0,1
EndSplineSet
EndChar
StartChar: afii57400
Encoding: 1640 1640 96
Width: 1177
VWidth: 2186
GlyphClass: 2
Flags: W
LayerCount: 2
Fore
SplineSet
504.29 1373.5 m 1,0,-1
 673.29 1373.5 l 1,1,2
 706.196 1108.92 706.196 1108.92 795.31 783.872 c 0,3,4
 920.195 326.998 920.195 326.998 1090.96 8.5 c 1,5,-1
 911.146 8.5 l 1,6,7
 749.394 335.684 749.394 335.684 654.5 667.821 c 0,8,9
 603.308658143 846.999697087 603.308658143 846.999697087 588.5 928.467 c 1,10,11
 573.690342388 846.994198677 573.690342388 846.994198677 522.5 667.821 c 4,12,13
 427.606 335.684 427.606 335.684 265.854 8.5 c 1,14,-1
 85.958 8.5 l 1,15,16
 217.658 257.723 217.658 257.723 381.561 783.427 c 0,17,18
 484.476 1113.2 484.476 1113.2 504.29 1373.5 c 1,0,-1
EndSplineSet
EndChar
StartChar: afii57401
Encoding: 1641 1641 70
Width: 1215
VWidth: 2304
GlyphClass: 2
Flags: W
LayerCount: 2
Fore
SplineSet
916.9609375 8.9755859375 m 1,0,1
 817.044921875 463.104492188 817.044921875 463.104492188 793.208984375 683.538085938 c 1,2,-1
 777.294921875 683.538085938 l 2,3,4
 568.850585938 683.538085938 568.850585938 683.538085938 476.495117188 704.18359375 c 0,5,6
 288.256835938 746.263671875 288.256835938 746.263671875 200.96875 842.55859375 c 128,-1,7
 113.6796875 938.854492188 113.6796875 938.854492188 113.6796875 1059.02246094 c 0,8,9
 113.6796875 1219.66113281 113.6796875 1219.66113281 213.80859375 1319.86816406 c 0,10,11
 350.71484375 1457.92871094 350.71484375 1457.92871094 526.624023438 1457.40625 c 128,-1,12
 702.533203125 1456.8828125 702.533203125 1456.8828125 790.890625 1371.68847656 c 0,13,14
 916.673828125 1249.3203125 916.673828125 1249.3203125 931.362304688 1052.06445312 c 0,15,16
 942.682617188 899.19921875 942.682617188 899.19921875 973.244140625 645.21875 c 128,-1,17
 1003.8046875 391.239257812 1003.8046875 391.239257812 1101.3203125 8.9755859375 c 1,18,-1
 916.9609375 8.9755859375 l 1,0,1
767.904296875 852.59765625 m 1,19,-1
 767.904296875 968.615234375 l 2,20,21
 768.405273438 1111.31054688 768.405273438 1111.31054688 718.01953125 1184.64648438 c 0,22,23
 649.303710938 1286.21484375 649.303710938 1286.21484375 516.30078125 1285.78515625 c 0,24,25
 419.581054688 1286.21484375 419.581054688 1286.21484375 350.811523438 1219.59472656 c 128,-1,26
 282.041992188 1152.97558594 282.041992188 1152.97558594 282.041992188 1070.37207031 c 128,-1,27
 282.04296875 987.768554688 282.04296875 987.768554688 356.578125 927.973632812 c 0,28,29
 400.397460938 893.083984375 400.397460938 893.083984375 485.099609375 872.840820312 c 128,-1,30
 569.802734375 852.59765625 569.802734375 852.59765625 750.17578125 852.59765625 c 2,31,-1
 767.904296875 852.59765625 l 1,19,-1
EndSplineSet
EndChar
StartChar: afii57381
Encoding: 1642 1642 98
Width: 1177
VWidth: 2186
GlyphClass: 2
Flags: W
LayerCount: 2
Fore
SplineSet
839.04 175 m 1,0,-1
 1005.64 175 l 1,1,-1
 1005.64 8.5 l 1,2,-1
 839.04 8.5 l 1,3,-1
 839.04 175 l 1,0,-1
170.29 1373.5 m 1,4,-1
 336.89 1373.5 l 1,5,-1
 336.89 1207 l 1,6,-1
 170.29 1207 l 1,7,-1
 170.29 1373.5 l 1,4,-1
871.394 1373.5 m 1,8,-1
 1013.31 1373.5 l 1,9,-1
 305.606 8.5 l 1,10,-1
 163.693 8.5 l 1,11,-1
 871.394 1373.5 l 1,8,-1
EndSplineSet
EndChar
StartChar: uni066B
Encoding: 1643 1643 72
Width: 676
VWidth: 2393
GlyphClass: 2
Flags: W
LayerCount: 2
Fore
SplineSet
442.376953125 534.767578125 m 1,0,-1
 546 482 l 1,1,2
 185.3125 -252.826171875 l 1,3,-1
 80 -198 l 1,4,5
 442.376953125 534.767578125 l 1,0,-1
EndSplineSet
EndChar
StartChar: uni066C
Encoding: 1644 1644 73
Width: 592
VWidth: 2304
GlyphClass: 2
Flags: W
LayerCount: 2
Fore
SplineSet
299 348 m 0,0,1
 416.697265625 344.97265625 416.697265625 344.97265625 441.162109375 232.842773438 c 0,2,3
 453.982421875 173.400390625 453.982421875 173.400390625 431.452148438 85.4814453125 c 0,4,5
 377 -127 377 -127 210.224609375 -259.583984375 c 1,6,-1
 152.805664062 -222.881835938 l 1,7,8
 296.197265625 -102.364257812 296.197265625 -102.364257812 308.817382812 85.6640625 c 1,9,10
 290.626953125 85.427734375 290.626953125 85.427734375 280.9140625 85.9677734375 c 0,11,12
 126.4453125 94.5810546875 126.4453125 94.5810546875 150.198242188 245.938476562 c 0,13,14
 167 353 167 353 299 348 c 0,0,1
EndSplineSet
EndChar
StartChar: afii63167
Encoding: 1645 1645 74
Width: 1233
VWidth: 2304
GlyphClass: 2
Flags: W
LayerCount: 2
Fore
SplineSet
143.59375 831.12890625 m 1,0,-1
 507.78125 831.12890625 l 1,1,-1
 621.49609375 1177.34863281 l 1,2,-1
 735.209960938 831.12890625 l 1,3,-1
 1099.3984375 831.12890625 l 1,4,-1
 805.176757812 616.043945312 l 1,5,-1
 917.745117188 270.225585938 l 1,6,-1
 621.49609375 484.296875 l 1,7,-1
 325.24609375 270.225585938 l 1,8,-1
 437.813476562 616.043945312 l 1,9,-1
 143.59375 831.12890625 l 1,0,-1
EndSplineSet
EndChar
StartChar: uni066E
Encoding: 1646 1646 75
Width: 1808
VWidth: 2304
GlyphClass: 2
Flags: W
AnchorPoint: "Anchor-10" 798.96 1111.66 basechar 0
AnchorPoint: "Anchor-7" 798.96 -187.744 basechar 0
LayerCount: 2
Fore
SplineSet
1541.32714844 511.176757812 m 0,0,1
 1541.32714844 574.47265625 1541.32714844 574.47265625 1517.2421875 702.5234375 c 1,2,-1
 1679.73730469 736.666015625 l 1,3,4
 1716.47949219 622.553710938 1716.47949219 622.553710938 1716.47949219 506.150390625 c 0,5,6
 1716.47949219 144.106445312 1716.47949219 144.106445312 1345.32421875 38.724609375 c 0,7,8
 1205.31152344 -0.0009765625 1205.31152344 -0.0009765625 990.716796875 -0.0009765625 c 0,9,10
 615.396484375 -0.0009765625 615.396484375 -0.0009765625 458.362304688 45.044921875 c 0,11,12
 91.3828125 152.020507812 91.3828125 152.020507812 91.3828125 523.297851562 c 0,13,14
 91.3828125 621.756835938 91.3828125 621.756835938 127.018554688 744.900390625 c 1,15,-1
 292.775390625 708.513671875 l 1,16,17
 267.729492188 572.344726562 267.729492188 572.344726562 267.729492188 541.224609375 c 0,18,19
 267.729492188 270.884765625 267.729492188 270.884765625 547.891601562 210.268554688 c 0,20,21
 678.041015625 182.090820312 678.041015625 182.090820312 931.233398438 182.090820312 c 128,-1,22
 1184.42578125 182.090820312 1184.42578125 182.090820312 1261.61425781 200.736328125 c 0,23,24
 1541.32714844 268.299804688 1541.32714844 268.299804688 1541.32714844 511.176757812 c 0,0,1
EndSplineSet
Substitution2: "'init' Initial Forms in Arabic lookup 13 subtable" uni066E.init
Substitution2: "'medi' Medial Forms in Arabic lookup 11 subtable" uni066E.medi
Substitution2: "'fina' Terminal Forms in Arabic lookup 9 subtable" uni066E.fina
EndChar
StartChar: uni066F
Encoding: 1647 1647 103
Width: 1462
VWidth: 2186
GlyphClass: 2
Flags: W
AnchorPoint: "Anchor-10" 315 1050.5 basechar 0
AnchorPoint: "Anchor-7" 472 -535 basechar 0
LayerCount: 2
Fore
SplineSet
1172.96777344 625.719726562 m 0,0,1
 1142.87873005 703.774052966 1142.87873005 703.774052966 1064.25239233 703.774052966 c 0,2,3
 1063.99253508 703.774052966 1063.99253508 703.774052966 1063.73214767 703.773200395 c 0,4,5
 1009 704 1009 704 963.610699604 640.649334893 c 0,6,7
 918 578 918 578 918.095971054 500.033347534 c 0,8,9
 918 414 918 414 978.01 387.861 c 0,10,11
 1019.23086743 369.345477719 1019.23086743 369.345477719 1077.0664271 369.345477719 c 0,12,13
 1078.14557015 369.345477719 1078.14557015 369.345477719 1079.23049763 369.351923924 c 0,14,15
 1081.03386311 369.341305675 1081.03386311 369.341305675 1082.8433557 369.341305675 c 0,16,17
 1141.00643806 369.341305675 1141.00643806 369.341305675 1205.5 380.312 c 1,18,19
 1205 537 1205 537 1172.96777344 625.719726562 c 0,0,1
1191.93 216.228 m 1,20,21
 1055 205 1055 205 1048.66008159 204.572638713 c 0,22,23
 883 205 883 205 815.896484375 297.20703125 c 0,24,25
 758 376 758 376 757.701190635 476.683769542 c 0,26,27
 758 570 758 570 808.013 679.861 c 0,28,29
 904 892 904 892 1058.08647613 893.576880451 c 0,30,31
 1058.96353835 893.584169323 1058.96353835 893.584169323 1059.84240973 893.584169323 c 0,32,33
 1109.98208322 893.584169323 1109.98208322 893.584169323 1166.01 869.861 c 0,34,35
 1247 836 1247 836 1304.635 717.259 c 0,36,37
 1370.33833766 580.378449089 1370.33833766 580.378449089 1370.33833766 361.391756801 c 0,38,39
 1370.33833766 287.81541491 1370.33833766 287.81541491 1365.17 198.981 c 0,40,41
 1349 -61 1349 -61 1213.58 -207.951 c 0,42,43
 1059 -376 1059 -376 716.293181309 -376.405433841 c 0,44,45
 442 -376 442 -376 266.248281006 -239.468209367 c 0,46,47
 90 -103 90 -103 90.0514145506 161.502004809 c 0,48,49
 90 405 90 405 185.122 615.521 c 1,50,-1
 354.826 581.21 l 1,51,52
 262 363 262 363 261.882294201 196.583824583 c 0,53,54
 262 154 262 154 267.882 115.596 c 0,55,56
 316.922843867 -207.491685 316.922843867 -207.491685 698.604239544 -207.491685 c 0,57,58
 964.507786693 -207.491685 964.507786693 -207.491685 1094.69 -77.4492 c 0,59,60
 1193 20 1193 20 1191.93 216.228 c 1,20,21
EndSplineSet
Substitution2: "'init' Initial Forms in Arabic lookup 13 subtable" uni066F.init
Substitution2: "'medi' Medial Forms in Arabic lookup 11 subtable" uni066F.medi
Substitution2: "'fina' Terminal Forms in Arabic lookup 9 subtable" uni066F.fina
EndChar
StartChar: uni0670
Encoding: 1648 1648 77
Width: -27
VWidth: 2304
GlyphClass: 4
Flags: W
AnchorPoint: "Anchor-10" 569.519 1347.15 mark 0
AnchorPoint: "Anchor-9" 569.519 1347.15 mark 0
AnchorPoint: "Anchor-1" 569.519 2081.6 basemark 0
AnchorPoint: "Anchor-1" 569.519 1347.15 mark 0
LayerCount: 2
Fore
SplineSet
525.1015625 1402.16699219 m 1,0,-1
 525.1015625 2026.58496094 l 1,1,-1
 613.936523438 2026.58496094 l 1,2,-1
 613.936523438 1402.16699219 l 1,3,-1
 525.1015625 1402.16699219 l 1,0,-1
EndSplineSet
EndChar
StartChar: uni0674
Encoding: 1652 1652 78
Width: 647
VWidth: 2304
GlyphClass: 2
Flags: W
LayerCount: 2
Fore
SplineSet
234.703958092 1626.09612739 m 1,0,1
 136.337890625 1680.69402958 136.337890625 1680.69402958 136.337890625 1779.47107516 c 128,-1,2
 136.337890625 1878.24812073 136.337890625 1878.24812073 197.763736974 1932.14967722 c 128,-1,3
 259.189583324 1986.05123372 259.189583324 1986.05123372 342.324611379 1986.33517266 c 128,-1,4
 425.459639435 1986.6191116 425.459639435 1986.6191116 487.456054688 1951.1848903 c 1,5,-1
 487.456054688 1851.62168642 l 1,6,7
 384.642447929 1899.94474155 384.642447929 1899.94474155 311.170395982 1877.72525827 c 128,-1,8
 237.698344036 1855.50577499 237.698344036 1855.50577499 232.062997205 1791.6097709 c 0,9,10
 224.615129625 1705.39021369 224.615129625 1705.39021369 342.11476 1669.79500805 c 0,11,12
 374.23106309 1658.4506871 374.23106309 1658.4506871 511.184570312 1689.57229393 c 1,13,-1
 511.184570312 1585.2344312 l 1,14,-1
 134.078125 1500.57199106 l 1,15,-1
 134.078125 1602.87671074 l 1,16,-1
 234.703958092 1626.09612739 l 1,0,1
EndSplineSet
EndChar
StartChar: uni06A1
Encoding: 1697 1697 82
Width: 1824
VWidth: 2304
GlyphClass: 2
Flags: W
AnchorPoint: "Anchor-10" 537.533 1295.18 basechar 0
AnchorPoint: "Anchor-7" 523.805 -261.537 basechar 0
LayerCount: 2
Fore
SplineSet
1563.83300781 591.375976562 m 0,0,1
 1563.83300781 615.678710938 1563.83300781 615.678710938 1562.25585938 638.61328125 c 128,-1,2
 1560.67773438 661.546875 1560.67773438 661.546875 1557.515625 683.146484375 c 128,-1,3
 1554.35449219 704.74609375 1554.35449219 704.74609375 1549.609375 724.973632812 c 128,-1,4
 1544.86425781 745.202148438 1544.86425781 745.202148438 1538.52441406 764.088867188 c 128,-1,5
 1532.18554688 782.974609375 1532.18554688 782.974609375 1524.25683594 800.487304688 c 0,6,7
 1504.31152344 844.544921875 1504.31152344 844.544921875 1479.19824219 867.008789062 c 128,-1,8
 1454.0859375 889.471679688 1454.0859375 889.471679688 1423.74414062 889.471679688 c 0,9,10
 1364.06542969 889.471679688 1364.06542969 889.471679688 1312.92382812 819.430664062 c 0,11,12
 1262.2109375 749.975585938 1262.2109375 749.975585938 1262.2109375 666.837890625 c 0,13,14
 1262.2109375 636.556640625 1262.2109375 636.556640625 1269.45117188 612.834960938 c 128,-1,15
 1276.69140625 589.114257812 1276.69140625 589.114257812 1291.31347656 571.98828125 c 128,-1,16
 1305.93554688 554.862304688 1305.93554688 554.862304688 1327.8125 544.755859375 c 0,17,18
 1349.41601562 534.776367188 1349.41601562 534.776367188 1375.34765625 529.80859375 c 128,-1,19
 1401.27832031 524.841796875 1401.27832031 524.841796875 1431.52246094 524.841796875 c 0,20,21
 1491.58789062 524.841796875 1491.58789062 524.841796875 1558.78613281 536.474609375 c 2,22,-1
 1561.88671875 537.01171875 l 1,23,-1
 1562.09472656 540.151367188 l 2,24,25
 1563.83300781 566.399414062 1563.83300781 566.399414062 1563.83300781 591.375976562 c 0,0,1
1529.60546875 372.172851562 m 2,26,27
 1472.23046875 365.814453125 1472.23046875 365.814453125 1439.88183594 362.370117188 c 128,-1,28
 1407.53320312 358.92578125 1407.53320312 358.92578125 1404.67285156 358.837890625 c 0,29,30
 1263.03222656 359.038085938 1263.03222656 359.038085938 1184.44726562 437.973632812 c 0,31,32
 1103.80371094 519.307617188 1103.80371094 519.307617188 1104.05273438 636.415039062 c 0,33,34
 1104.85058594 745.94921875 1104.85058594 745.94921875 1153.61621094 855.091796875 c 0,35,36
 1173.23828125 898.518554688 1173.23828125 898.518554688 1196.15039062 933.200195312 c 128,-1,37
 1219.0625 967.880859375 1219.0625 967.880859375 1245.22070312 993.809570312 c 128,-1,38
 1271.37890625 1019.73730469 1271.37890625 1019.73730469 1300.86230469 1037.01464844 c 128,-1,39
 1330.34667969 1054.29199219 1330.34667969 1054.29199219 1363.06835938 1062.93359375 c 128,-1,40
 1395.79003906 1071.57519531 1395.79003906 1071.57519531 1431.87304688 1071.65917969 c 0,41,42
 1477.33691406 1071.55371094 1477.33691406 1071.55371094 1515.64746094 1059.66992188 c 128,-1,43
 1553.95800781 1047.78613281 1553.95800781 1047.78613281 1585.28222656 1024.0234375 c 128,-1,44
 1616.60644531 1000.26171875 1616.60644531 1000.26171875 1640.91210938 964.565429688 c 128,-1,45
 1665.21777344 928.870117188 1665.21777344 928.870117188 1682.59375 881.145507812 c 0,46,47
 1732.546875 743.006835938 1732.546875 743.006835938 1732.87207031 580.181640625 c 0,48,49
 1732.72070312 489.142578125 1732.72070312 489.142578125 1716.81347656 412.671875 c 128,-1,50
 1700.90625 336.201171875 1700.90625 336.201171875 1669.29296875 274.256835938 c 0,51,52
 1585.94042969 110.225585938 1585.94042969 110.225585938 1380.16308594 49.1533203125 c 0,53,54
 1212.20410156 -1.056640625 1212.20410156 -1.056640625 933.546875 -1.4404296875 c 0,55,56
 610.354492188 -1.056640625 610.354492188 -1.056640625 454.461914062 41.4794921875 c 0,57,58
 409.09765625 54.1474609375 409.09765625 54.1474609375 369.430664062 71.2763671875 c 128,-1,59
 329.764648438 88.4052734375 329.764648438 88.4052734375 295.75390625 110.021484375 c 128,-1,60
 261.744140625 131.637695312 261.744140625 131.637695312 233.415039062 157.734375 c 128,-1,61
 205.084960938 183.83203125 205.084960938 183.83203125 182.404296875 214.440429688 c 128,-1,62
 159.724609375 245.048828125 159.724609375 245.048828125 142.70703125 280.157226562 c 128,-1,63
 125.690429688 315.265625 125.690429688 315.265625 114.315429688 354.909179688 c 128,-1,64
 102.940429688 394.552734375 102.940429688 394.552734375 97.2109375 438.715820312 c 128,-1,65
 91.4814453125 482.879882812 91.4814453125 482.879882812 91.3857421875 531.6015625 c 0,66,67
 91.1025390625 630.223632812 91.1025390625 630.223632812 130.862304688 740.119140625 c 1,68,-1
 295.4375 707.747070312 l 1,69,70
 281.54296875 650.607421875 281.54296875 650.607421875 274.66015625 612.62890625 c 128,-1,71
 267.77734375 574.650390625 267.77734375 574.650390625 267.655273438 554.036132812 c 0,72,73
 267.899414062 274.813476562 267.899414062 274.813476562 546.560546875 206.483398438 c 0,74,75
 598.676757812 193.719726562 598.676757812 193.719726562 746.1484375 186.46484375 c 0,76,77
 893.788085938 178.911132812 893.788085938 178.911132812 942.85546875 179.224609375 c 0,78,79
 1164.79199219 178.911132812 1164.79199219 178.911132812 1339.23144531 230.447265625 c 0,80,81
 1515.03222656 282.172851562 1515.03222656 282.172851562 1533.95117188 367.330078125 c 2,82,-1
 1535.16308594 372.7890625 l 1,83,-1
 1529.60546875 372.172851562 l 2,26,27
EndSplineSet
Substitution2: "'init' Initial Forms in Arabic lookup 13 subtable" uni06A1.init
Substitution2: "'medi' Medial Forms in Arabic lookup 11 subtable" uni06A1.medi
Substitution2: "'fina' Terminal Forms in Arabic lookup 9 subtable" uni06A1.fina
EndChar
StartChar: uni06A9
Encoding: 1705 1705 110
Width: 1715
VWidth: 2186
GlyphClass: 2
Flags: W
AnchorPoint: "Anchor-10" 387 1207.34 basechar 0
AnchorPoint: "Anchor-7" 490 -250.68 basechar 0
LayerCount: 2
Fore
SplineSet
803.912 179.813 m 24,0,-1
 1074.77 179.004 l 2,1,2
 1380.0878896 178.092075033 1380.0878896 178.092075033 1380.0878896 358.079311593 c 0,3,4
 1380.0878896 463.809944801 1380.0878896 463.809944801 1273.51 546.547 c 2,5,-1
 925.26 816.896 l 2,6,7
 847.397 877.342 847.397 877.342 834.92 949.13 c 0,8,9
 831.9838848 966.020150746 831.9838848 966.020150746 831.9838848 981.831657551 c 0,10,11
 831.9838848 1081.62379483 831.9838848 1081.62379483 948.939 1138.45 c 2,12,-1
 1645.65 1476.96 l 1,13,-1
 1645.65 1300.28 l 1,14,15
 1318.21 1143.14 1318.21 1143.14 990.77 986 c 1,16,17
 1407.91 657.823 1407.91 657.823 1407.91 657.822 c 0,18,19
 1539.42448973 554.619724987 1539.42448973 554.619724987 1539.42448973 370.891990624 c 0,20,21
 1539.42448973 158.116196638 1539.42448973 158.116196638 1408.89 71.999 c 0,22,23
 1299.75 0 1299.75 0 1116.1 0 c 2,24,-1
 776 0 l 24,25,26
 559 3 559 3 425.352 41.4805 c 0,27,28
 89.0522082181 138.063737099 89.0522082181 138.063737099 89.0522082181 510.485230818 c 0,29,30
 89.0522082181 605.179915304 89.0522082181 605.179915304 125 709 c 1,31,-1
 282.912 676.955 l 1,32,33
 261.418420544 558.094498733 261.418420544 558.094498733 261.418420544 503.122573367 c 0,34,35
 261.418420544 266.522436952 261.418420544 266.522436952 525 203 c 4,36,37
 604 184 604 184 803.912 179.813 c 24,0,-1
EndSplineSet
Substitution2: "'init' Initial Forms in Arabic lookup 13 subtable" uniFB90
Substitution2: "'medi' Medial Forms in Arabic lookup 11 subtable" uniFB91
Substitution2: "'fina' Terminal Forms in Arabic lookup 9 subtable" uniFB8F
EndChar
StartChar: afii57514
Encoding: 1722 1722 93
Width: 1385
VWidth: 2186
GlyphClass: 2
Flags: W
AnchorPoint: "Anchor-10" 643.11 798 basechar 0
AnchorPoint: "Anchor-7" 665.58 -524.02 basechar 0
LayerCount: 2
Fore
SplineSet
1294 48 m 16,0,1
 1285 -437 1285 -437 718.100317782 -436.959577904 c 0,2,3
 91 -437 91 -437 91.1474609375 92.1943359375 c 0,4,5
 91 245 91 245 163.477539062 453.052734375 c 1,6,-1
 326.272460938 418.08203125 l 1,7,8
 261 230 261 230 261.216796875 85.91796875 c 0,9,10
 261 -269 261 -269 699.718140777 -268.56482815 c 0,11,12
 1144 -269 1144 -269 1144.06666667 74.6 c 0,13,14
 1144 242 1144 242 1081.5 481.912109375 c 1,15,-1
 1236.70019531 515.153320312 l 1,16,17
 1297.15086844 224.59677311 1297.15086844 224.59677311 1294 48 c 16,0,1
EndSplineSet
Substitution2: "'init' Initial Forms in Arabic lookup 13 subtable" uni06BA.init
Substitution2: "'medi' Medial Forms in Arabic lookup 11 subtable" uni06BA.medi
Substitution2: "'fina' Terminal Forms in Arabic lookup 9 subtable" uniFB9F
EndChar
StartChar: uni06F4
Encoding: 1780 1780 100
Width: 1177
VWidth: 2186
GlyphClass: 2
Flags: W
LayerCount: 2
Fore
SplineSet
390.591 1082.79 m 5,0,1
 439 1326 439 1326 642 1379 c 4,2,3
 723 1400 723 1400 812 1395.5 c 132,-1,4
 901 1391 901 1391 962.84 1367.47 c 5,5,-1
 962.84 1227.06 l 5,6,7
 875 1255 875 1255 773.620907537 1254.62965606 c 4,8,9
 656 1255 656 1255 589.595984174 1187.25764732 c 4,10,11
 482 1078 482 1078 549.067 968.815 c 4,12,13
 598 890 598 890 791.249 889.86 c 4,14,15
 846 890 846 890 1020.32 915.636 c 5,16,-1
 1022.58 769.774 l 5,17,18
 824 744 824 744 761.84 743.59 c 4,19,20
 591 744 591 744 452.58 836.254 c 5,21,22
 471 796 471 796 498.856492946 615.179251157 c 4,23,24
 523 457 523 457 526.712985892 77.6343286436 c 4,25,26
 527 44 527 44 526.4 8.5 c 5,27,-1
 359.672 8.5 l 5,28,29
 359 462 359 462 312.5 727.5 c 132,-1,30
 266 993 266 993 130 1320.65039062 c 5,31,-1
 291.455 1373.5 l 5,32,33
 357 1186 357 1186 390.591 1082.79 c 5,0,1
EndSplineSet
EndChar
StartChar: uni06F5
Encoding: 1781 1781 93
Width: 1277
VWidth: 2304
GlyphClass: 2
Flags: W
LayerCount: 2
Fore
SplineSet
872.094726562 184.194335938 m 0,0,1
 1012 184 1012 184 1012 318.809570312 c 0,2,3
 1012 426 1012 426 991.846679688 498.203125 c 0,4,5
 901 819 901 819 610 1079 c 1,6,7
 379 815 379 815 291 517 c 0,8,9
 265 429 265 429 269.583007812 330.559570312 c 0,10,11
 277 188 277 188 430.41015625 188.030273438 c 0,12,13
 541 188 541 188 584.13671875 404.133789062 c 1,14,-1
 700.853515625 404.036132812 l 1,15,16
 735 184 735 184 872.094726562 184.194335938 c 0,0,1
1185.69238281 337.333007812 m 0,17,18
 1191 9 1191 9 871.211914062 9.291015625 c 0,19,20
 702.208984375 9 702.208984375 9 646.3671875 163.99609375 c 2,21,-1
 642.606445312 174.434570312 l 1,22,23
 583 9 583 9 400.974609375 8.8330078125 c 0,24,25
 77 9 77 9 91 350 c 0,26,27
 97 490 97 490 150 631 c 0,28,29
 257 910 257 910 488.772460938 1197.1015625 c 1,30,31
 444.970703125 1238.1015625 l 1,32,33
 557 1375 l 1,34,35
 574 1358 574 1358 662.713867188 1273.66894531 c 0,36,37
 1178 791 1178 791 1185.69238281 337.333007812 c 0,17,18
EndSplineSet
EndChar
StartChar: uni06F6
Encoding: 1782 1782 121
Width: 1177
VWidth: 2186
GlyphClass: 2
Flags: W
LayerCount: 2
Fore
SplineSet
239.351 8.5 m 1,0,1
 357.092144763 456.162484482 357.092144763 456.162484482 599.059 661.835 c 2,2,-1
 626.006 684.74 l 1,3,4
 349.096 707.5 349.096 707.5 327.58 989.53 c 0,5,6
 326.494796895 1005.06892663 326.494796895 1005.06892663 326.494796895 1020.19127452 c 0,7,8
 326.494796895 1165.78173456 326.494796895 1165.78173456 430.151398447 1276.02586728 c 128,-1,9
 533.808 1386.27 533.808 1386.27 692.08 1387.27 c 0,10,11
 803.106 1387.27 803.106 1387.27 898.64 1355.8 c 1,12,-1
 898.64 1194.44 l 1,13,14
 797.409971311 1234.72843388 797.409971311 1234.72843388 708.44988092 1234.72843388 c 128,-1,15
 619.489790529 1234.72843388 619.489790529 1234.72843388 556.834895264 1173.11921694 c 128,-1,16
 494.18 1111.51 494.18 1111.51 494.18 1012.9075 c 128,-1,17
 494.18 914.305 494.18 914.305 551.088 861.4225 c 128,-1,18
 607.996 808.54 607.996 808.54 735.4035 808.54 c 128,-1,19
 862.811 808.54 862.811 808.54 962.84 846.188 c 1,20,-1
 962.84 682.217 l 1,21,22
 724.667 602.469 724.667 602.469 604.762 439.74 c 0,23,24
 463.097 246.283 463.097 246.283 404.908 8.5 c 1,25,-1
 239.351 8.5 l 1,0,1
EndSplineSet
EndChar
StartChar: uniFB8F
Encoding: 64399 64399 117
Width: 1736
VWidth: 2186
GlyphClass: 2
Flags: W
AnchorPoint: "Anchor-10" 433 1179.5 basechar 0
AnchorPoint: "Anchor-7" 510 -205 basechar 0
LayerCount: 2
Fore
SplineSet
781.775390625 0.5 m 1,0,1
 559 3 559 3 425.352 41.4805 c 0,2,3
 89 138 89 138 89.1355932203 509.776788279 c 0,4,5
 89 605 89 605 125 709 c 1,6,-1
 282.912 676.955 l 1,7,8
 262 557 262 557 261.555083746 522.533808092 c 0,9,10
 258 268 258 268 525 203 c 0,11,12
 604 184 604 184 809.775390625 179.48046875 c 1,13,-1
 1082.5625 179.50390625 l 2,14,15
 1373.07425726 179.528866628 1373.07425726 179.528866628 1348.17578125 337.5 c 0,16,17
 1320 510 1320 510 921.033203125 738.396484375 c 0,18,19
 842 784 842 784 841.864257812 901.508789062 c 0,20,21
 842 1006 842 1006 954.71484375 1060.95019531 c 2,22,-1
 1653.42578125 1400.45996094 l 1,23,-1
 1653.42578125 1223.78027344 l 1,24,-1
 998.546875 908.5 l 1,25,26
 1302 688 1302 688 1364.57714844 619.776367188 c 0,27,28
 1471 504 1471 504 1522.17578125 340.5 c 0,29,30
 1572 180 1572 180 1709.92089844 179.879882812 c 2,31,-1
 1746.95117188 179.879882812 l 1,32,-1
 1746.95117188 1 l 1,33,-1
 1717.2109375 1 l 2,34,35
 1520 1 1520 1 1453.17578125 131.5 c 1,36,37
 1351 0 1351 0 1123.87597656 0.5 c 2,38,-1
 781.775390625 0.5 l 1,0,1
EndSplineSet
EndChar
StartChar: uniFB9F
Encoding: 64415 64415 144
Width: 1570
VWidth: 2186
GlyphClass: 2
Flags: W
AnchorPoint: "Anchor-10" 618.9 691 basechar 0
AnchorPoint: "Anchor-7" 584.88 -588.5 basechar 0
LayerCount: 2
Fore
SplineSet
1276.7 573.153 m 5,0,1
 1296.28 466.55 1296.28 466.55 1321.52 354.479 c 4,2,3
 1361.51 179.38 1361.51 179.38 1511.28 179.38 c 6,4,-1
 1578.53 179.38 l 5,5,-1
 1578.53 0.5 l 5,6,-1
 1452.43 0.5 l 6,7,8
 1388.86 0.5 1388.86 0.5 1331.29 81.7598 c 5,9,10
 1286.72 -176.987 1286.72 -176.987 1128.03 -308.746 c 4,11,12
 971.834 -438.483 971.834 -438.483 671.061 -423.3 c 4,13,14
 330.665 -406.754 330.665 -406.754 187.901 -211.869 c 4,15,16
 63.8458 -44.6514 63.8458 -44.6514 98.8555 285.508 c 4,17,18
 108.957 378.574 108.957 378.574 163.478 511.053 c 5,19,-1
 326.272 476.082 l 5,20,21
 268.438 308.829 268.438 308.829 262.495 188.646 c 4,22,23
 261.66 173.823 261.66 173.823 261.37 159.46 c 4,24,25
 257.446 -41.4175 257.446 -41.4175 353.901 -135.869 c 4,26,27
 466.797 -246.42 466.797 -246.42 679.314 -255.57 c 4,28,29
 927.762 -266.267 927.762 -266.267 1038.11 -154.858 c 4,30,31
 1153.96 -35.832 1153.96 -35.832 1161.54 202.696 c 4,32,33
 1165.12 323.534 1165.12 323.534 1110.5 539.912 c 5,34,-1
 1276.7 573.153 l 5,0,1
EndSplineSet
EndChar
StartChar: uniFBE8
Encoding: 64488 64488 120
Width: 656
VWidth: 2393
GlyphClass: 2
Flags: W
AnchorPoint: "Anchor-10" 333.214 1145.44 basechar 0
AnchorPoint: "Anchor-7" 305.758 -389.896 basechar 0
LayerCount: 2
Fore
SplineSet
59.884765625 182.243164062 m 2,0,1
 252.001637653 182.243164062 252.001637653 182.243164062 333.053222656 251.816894531 c 4,2,3
 401 311 401 311 395.750488281 449.11328125 c 0,4,5
 391.184570312 576.8359375 391.184570312 576.8359375 328.08203125 692.1796875 c 1,6,-1
 476.4375 751.52734375 l 1,7,8
 558.260939926 640.006832305 558.260939926 640.006832305 558.431640625 422.870117188 c 4,9,10
 559 206 559 206 438.894899393 104.757083998 c 0,11,12
 316.944650361 -2.44249065418e-14 316.944650361 -2.44249065418e-14 50.93359375 0 c 2,13,-1
 -13.1650390625 0 l 1,14,-1
 -13.1650390625 182.243164062 l 1,15,-1
 59.884765625 182.243164062 l 2,0,1
EndSplineSet
EndChar
StartChar: uniFBE9
Encoding: 64489 64489 148
Width: 657
VWidth: 2186
GlyphClass: 2
Flags: W
AnchorPoint: "Anchor-10" 281.93 969.5 basechar 0
AnchorPoint: "Anchor-7" 263.93 -115.5 basechar 0
LayerCount: 2
Fore
SplineSet
310.244 96.1914 m 2,0,1
 224.101775532 -2.84217094304e-14 224.101775532 -2.84217094304e-14 74.9004 0 c 2,2,-1
 -20.400390625 0 l 5,3,-1
 -20.400390625 178.98046875 l 5,4,-1
 28.0498 178.98 l 2,5,6
 139 179 139 179 184.18 223.494 c 0,7,8
 231.220295172 270.218817754 231.220295172 270.218817754 239.49 348.31 c 2,9,-1
 262.49 565.5 l 1,10,-1
 379.37 565.5 l 1,11,-1
 402.37 348.31 l 2,12,13
 411 268 411 268 461.68 223.494 c 0,14,15
 512.02371929 178.979026906 512.02371929 178.979026906 623.811 178.98 c 2,16,-1
 677.66015625 178.98046875 l 1,17,-1
 677.66015625 0 l 1,18,-1
 564.96 0 l 2,19,20
 417.985048411 -1.42108547152e-14 417.985048411 -1.42108547152e-14 329.504 96.3145 c 2,21,-1
 319.807 106.87 l 1,22,-1
 310.244 96.1914 l 2,0,1
EndSplineSet
EndChar
StartChar: uniFE73
Encoding: 65139 65139 129
Width: 578
VWidth: 2304
GlyphClass: 2
Flags: W
AnchorPoint: "Anchor-10" 213.595 1347.15 basechar 0
AnchorPoint: "Anchor-7" 213.595 -121.744 basechar 0
LayerCount: 2
Fore
SplineSet
299.819335938 366.381835938 m 2,0,1
 299.819335938 296.893554688 299.819335938 296.893554688 360.377929688 236.334960938 c 0,2,3
 415.284179688 181.424804688 415.284179688 181.424804688 534.491210938 181.424804688 c 2,4,-1
 601.5078125 181.424804688 l 1,5,-1
 601.5078125 8.9755859375 l 1,6,-1
 472.345703125 8.9755859375 l 2,7,8
 319.2421875 8.9755859375 319.2421875 8.9755859375 220.48046875 107.736328125 c 0,9,10
 127.369140625 200.84765625 127.369140625 200.84765625 127.369140625 352.822265625 c 2,11,-1
 127.369140625 383.680664062 l 1,12,-1
 299.819335938 383.680664062 l 1,13,-1
 299.819335938 366.381835938 l 2,0,1
EndSplineSet
EndChar
StartChar: uniFE8E
Encoding: 65166 65166 155
Width: 566
VWidth: 2393
GlyphClass: 2
Flags: W
AnchorPoint: "Anchor-10" 239.479 1647.66 basechar 0
AnchorPoint: "Anchor-7" 259.246 -270.188 basechar 0
LayerCount: 2
Fore
SplineSet
159.392578125 441.96875 m 2,0,-1
 159.392578125 1503.24902344 l 5,1,-1
 328.34765625 1503.24902344 l 5,2,-1
 328.34765625 456.084960938 l 2,3,4
 328.010104457 351.141436033 328.010104457 351.141436033 360.422851562 290.754882812 c 0,5,6
 418.869027882 182.243164062 418.869027882 182.243164062 558.93359375 182.243164062 c 2,7,-1
 572.915039062 182.243164062 l 1,8,-1
 572.915039062 0 l 1,9,-1
 553.608398438 0 l 2,10,11
 323.887955252 -8.52651282912e-14 323.887955252 -8.52651282912e-14 219.33203125 178.802734375 c 0,12,13
 159 281 159 281 159.392578125 441.96875 c 2,0,-1
EndSplineSet
EndChar
StartChar: uniFEA2
Encoding: 65186 65186 175
Width: 1280
VWidth: 2304
GlyphClass: 2
Flags: W
AnchorPoint: "Anchor-10" 648.18 1049.15 basechar 0
AnchorPoint: "Anchor-7" 452.303 -699.523 basechar 0
LayerCount: 2
Fore
SplineSet
776.629882812 613.091796875 m 5,0,1
 683 658 683 658 615 698 c 132,-1,2
 547 738 547 738 497.940429688 739.21875 c 4,3,4
 368 742 368 742 241.3984375 573.59765625 c 5,5,-1
 118.213867188 662.069335938 l 5,6,7
 203 767 203 767 227.197265625 790.657226562 c 4,8,9
 336 899 336 899 485.204101562 900.1796875 c 4,10,11
 569 901 569 901 689.838867188 824.190429688 c 4,12,13
 960 653 960 653 1163.94140625 657.88671875 c 5,14,-1
 1157.13574219 523.229492188 l 1,15,16
 1082 530 1082 530 1018.79199219 523.002929688 c 1,17,18
 1010.01092061 181.424804688 1010.01092061 181.424804688 1265.72949219 181.424804688 c 2,19,-1
 1288.98535156 181.424804688 l 1,20,-1
 1288.98535156 0.5283203125 l 1,21,-1
 1275.62988281 0.5283203125 l 2,22,23
 876 1 876 1 878.95703125 499.16015625 c 1,24,25
 562 454 562 454 394.797851562 293.517578125 c 0,26,27
 254 159 254 159 254.16796875 -13.096679687 c 0,28,29
 254 -185 254 -185 377.447753906 -281.536132812 c 128,-1,30
 501 -378 501 -378 730.002441406 -377.600585937 c 0,31,32
 959 -378 959 -378 1075.58691406 -336.958984375 c 1,33,-1
 1118.21191406 -485.357421875 l 1,34,35
 991 -539 991 -539 700.030273438 -535.906738281 c 128,-1,36
 409 -533 409 -533 250.915527344 -392.3671875 c 0,37,38
 93 -251 93 -251 95.3198242188 -6.72216796875 c 0,39,40
 97 244 97 244 299.158203125 411.61328125 c 0,41,42
 506 584 506 584 776.629882812 613.091796875 c 5,0,1
EndSplineSet
EndChar
StartChar: uniFEA3
Encoding: 65187 65187 176
Width: 1274
VWidth: 2304
GlyphClass: 2
Flags: W
AnchorPoint: "Anchor-10" 423.96 1159.43 basechar 0
AnchorPoint: "Anchor-7" 550.68 -264.304 basechar 0
LayerCount: 2
Fore
SplineSet
875.276367188 420.484375 m 5,0,1
 785 435 785 435 638 513 c 132,-1,2
 491 591 491 591 427.127929688 598.751953125 c 4,3,4
 308 613 308 613 170.6640625 433.125 c 5,5,-1
 44.4736328125 526.602539062 l 5,6,7
 102 606 102 606 151.456054688 657.189453125 c 4,8,9
 268 778 268 778 406.513671875 773.642578125 c 4,10,11
 511 770 511 770 695 671 c 4,12,13
 945 537 945 537 1194 493 c 5,14,-1
 1179.58203125 368.908203125 l 1,15,16
 1087 377 1087 377 914 261.5 c 128,-1,17
 741 146 741 146 613 92 c 0,18,19
 396 0 396 0 31.3974609375 0 c 2,20,-1
 -15.982421875 0 l 1,21,-1
 -15.982421875 181.002929688 l 1,22,-1
 -4.142578125 181.002929688 l 2,23,24
 306 181 306 181 431.934570312 207.466796875 c 0,25,26
 634 250 634 250 875.276367188 420.484375 c 5,0,1
EndSplineSet
EndChar
StartChar: uniFEA4
Encoding: 65188 65188 204
Width: 1372
VWidth: 2186
GlyphClass: 2
Flags: W
AnchorPoint: "Anchor-10" 455 1077.69 basechar 0
AnchorPoint: "Anchor-7" 615 -223.5 basechar 0
LayerCount: 2
Fore
SplineSet
862.27 259.088 m 1,0,1
 768.8 199.828 768.8 199.828 681.684 149.5 c 0,2,3
 422.903 0 422.903 0 71.2549 0 c 2,4,-1
 38.6973 0 l 1,5,-1
 -8.40039 0 l 1,6,-1
 -8.40039 178.98 l 1,7,-1
 37.5996 178.98 l 2,8,9
 157.266 178.98 157.266 178.98 307.671 203.513 c 0,10,11
 561.114 244.852 561.114 244.852 883.086 477.117 c 2,12,-1
 904.829 492.802 l 1,13,14
 858.44 495.557 858.44 495.557 579.557 583.524 c 0,15,16
 428.406 632.011 428.406 632.011 351.915 625.542 c 0,17,18
 273.466 619.738 273.466 619.738 152.93 477.711 c 1,19,20
 27.1182 584.262 l 1,21,22
 56.7698 629.395 56.7698 629.395 154 724.04 c 0,23,24
 230.485 795.266 230.485 795.266 340 802.04 c 0,25,26
 449.759 808.508 449.759 808.508 602.718 759.25 c 0,27,28
 731.074 717.038 731.074 717.038 1214.59 577.516 c 1,29,-1
 1160.59 459.516 l 1,30,31
 1072.62 397.392 1072.62 397.392 989.27 341.771 c 1,32,33
 1010.15 179.88 1010.15 179.88 1322.32 179.88 c 2,34,-1
 1379.94 179.88 l 1,35,-1
 1379.94 0 l 1,36,-1
 1300.92 0 l 2,37,38
 943.387 0 943.387 0 862.27 259.088 c 1,0,1
EndSplineSet
EndChar
StartChar: uniFEAA
Encoding: 65194 65194 183
Width: 1119
VWidth: 2393
GlyphClass: 2
Flags: W
AnchorPoint: "Anchor-10" 424.434 1305.95 basechar 0
AnchorPoint: "Anchor-7" 384.359 -264.148 basechar 0
LayerCount: 2
Fore
SplineSet
1096.90722656 0.5498046875 m 2,0,1
 957.336572119 0.5498046875 957.336572119 0.5498046875 856.959960938 134.8125 c 1,2,3
 736 -13 736 -13 353.188476562 -0.00390625 c 0,4,5
 178 6 178 6 98.5634765625 25.763671875 c 1,6,-1
 98.5634765625 211.079101562 l 1,7,8
 338 159 338 159 590.6640625 190.18359375 c 0,9,10
 654 198 654 198 685.892578125 213.247070312 c 0,11,12
 755 245 755 245 719.65625 341.7109375 c 0,13,14
 696.047042551 404.535852632 696.047042551 404.535852632 656.036132812 497.23046875 c 2,15,-1
 500 858.724609375 l 1,16,-1
 656.723632812 936.748046875 l 1,17,-1
 881.143554688 422.157226562 l 1,18,19
 984.191717121 180.550500028 984.191717121 180.550500028 1106.96386719 182.265625 c 2,20,-1
 1129.54296875 182.581054688 l 1,21,-1
 1129.54296875 0.5498046875 l 1,22,-1
 1096.90722656 0.5498046875 l 2,0,1
EndSplineSet
EndChar
StartChar: uniFEAE
Encoding: 65198 65198 195
Width: 805
VWidth: 2186
GlyphClass: 2
Flags: W
AnchorPoint: "Anchor-10" 443 818 basechar 0
AnchorPoint: "Anchor-7" 289.925 -649.55 basechar 0
LayerCount: 2
Fore
SplineSet
635.586914062 60 m 1,0,1
 581 -401 581 -401 30 -456 c 1,2,-1
 0.603515625 -292.8828125 l 1,3,4
 475 -254 475 -254 476.474609375 156.931640625 c 0,5,6
 477 353 477 353 420 472 c 1,7,-1
 572 534 l 1,8,9
 608 410 608 410 632.448242188 310 c 24,10,11
 664.004704162 178.98046875 664.004704162 178.98046875 797.83984375 178.98046875 c 2,12,-1
 815.599609375 178.98046875 l 1,13,-1
 815.599609375 0 l 1,14,-1
 778.990234375 0 l 2,15,16
 684 0 684 0 635.586914062 60 c 1,0,1
EndSplineSet
PairPos2: "'kern' Horizontal Kerning lookup 15-1" uniFEEB dx=-110 dy=0 dh=-110 dv=0 dx=0 dy=0 dh=0 dv=0
PairPos2: "'kern' Horizontal Kerning lookup 15-1" uni0644 dx=-70 dy=0 dh=-70 dv=0 dx=0 dy=0 dh=0 dv=0
PairPos2: "'kern' Horizontal Kerning lookup 15-1" uni0642 dx=-70 dy=0 dh=-70 dv=0 dx=0 dy=0 dh=0 dv=0
PairPos2: "'kern' Horizontal Kerning lookup 15-1" uniFEDF dx=-110 dy=0 dh=-110 dv=0 dx=0 dy=0 dh=0 dv=0
PairPos2: "'kern' Horizontal Kerning lookup 15-1" uniFB90 dx=-140 dy=0 dh=-140 dv=0 dx=0 dy=0 dh=0 dv=0
PairPos2: "'kern' Horizontal Kerning lookup 15-1" uni06A9 dx=-140 dy=0 dh=-140 dv=0 dx=0 dy=0 dh=0 dv=0
PairPos2: "'kern' Horizontal Kerning lookup 15-1" uni0649 dx=-70 dy=0 dh=-70 dv=0 dx=0 dy=0 dh=0 dv=0
PairPos2: "'kern' Horizontal Kerning lookup 15-1" uni0647 dx=-110 dy=0 dh=-110 dv=0 dx=0 dy=0 dh=0 dv=0
PairPos2: "'kern' Horizontal Kerning lookup 15-1" uniFEE7 dx=-110 dy=0 dh=-110 dv=0 dx=0 dy=0 dh=0 dv=0
PairPos2: "'kern' Horizontal Kerning lookup 15-1" uniFEE3 dx=-110 dy=0 dh=-110 dv=0 dx=0 dy=0 dh=0 dv=0
PairPos2: "'kern' Horizontal Kerning lookup 15-1" uni0645 dx=-110 dy=0 dh=-110 dv=0 dx=0 dy=0 dh=0 dv=0
PairPos2: "'kern' Horizontal Kerning lookup 15-1" uniFEDB dx=-140 dy=0 dh=-140 dv=0 dx=0 dy=0 dh=0 dv=0
PairPos2: "'kern' Horizontal Kerning lookup 15-1" uniFED7 dx=-110 dy=0 dh=-110 dv=0 dx=0 dy=0 dh=0 dv=0
PairPos2: "'kern' Horizontal Kerning lookup 15-1" uniFED3 dx=-110 dy=0 dh=-110 dv=0 dx=0 dy=0 dh=0 dv=0
PairPos2: "'kern' Horizontal Kerning lookup 15-1" uni0641 dx=-110 dy=0 dh=-110 dv=0 dx=0 dy=0 dh=0 dv=0
PairPos2: "'kern' Horizontal Kerning lookup 15-1" uniFECF dx=-110 dy=0 dh=-110 dv=0 dx=0 dy=0 dh=0 dv=0
PairPos2: "'kern' Horizontal Kerning lookup 15-1" uniFECB dx=-110 dy=0 dh=-110 dv=0 dx=0 dy=0 dh=0 dv=0
PairPos2: "'kern' Horizontal Kerning lookup 15-1" uniFEC7 dx=-110 dy=0 dh=-110 dv=0 dx=0 dy=0 dh=0 dv=0
PairPos2: "'kern' Horizontal Kerning lookup 15-1" uni0638 dx=-110 dy=0 dh=-110 dv=0 dx=0 dy=0 dh=0 dv=0
PairPos2: "'kern' Horizontal Kerning lookup 15-1" uniFEC3 dx=-110 dy=0 dh=-110 dv=0 dx=0 dy=0 dh=0 dv=0
PairPos2: "'kern' Horizontal Kerning lookup 15-1" uni0637 dx=-110 dy=0 dh=-110 dv=0 dx=0 dy=0 dh=0 dv=0
PairPos2: "'kern' Horizontal Kerning lookup 15-1" uniFEBF dx=-110 dy=0 dh=-110 dv=0 dx=0 dy=0 dh=0 dv=0
PairPos2: "'kern' Horizontal Kerning lookup 15-1" uni0636 dx=-110 dy=0 dh=-110 dv=0 dx=0 dy=0 dh=0 dv=0
PairPos2: "'kern' Horizontal Kerning lookup 15-1" uniFEBB dx=-110 dy=0 dh=-110 dv=0 dx=0 dy=0 dh=0 dv=0
PairPos2: "'kern' Horizontal Kerning lookup 15-1" uni0635 dx=-110 dy=0 dh=-110 dv=0 dx=0 dy=0 dh=0 dv=0
PairPos2: "'kern' Horizontal Kerning lookup 15-1" uniFEB7 dx=-110 dy=0 dh=-110 dv=0 dx=0 dy=0 dh=0 dv=0
PairPos2: "'kern' Horizontal Kerning lookup 15-1" uni0634 dx=-110 dy=0 dh=-110 dv=0 dx=0 dy=0 dh=0 dv=0
PairPos2: "'kern' Horizontal Kerning lookup 15-1" uniFEB3 dx=-110 dy=0 dh=-110 dv=0 dx=0 dy=0 dh=0 dv=0
PairPos2: "'kern' Horizontal Kerning lookup 15-1" uni0633 dx=-110 dy=0 dh=-110 dv=0 dx=0 dy=0 dh=0 dv=0
PairPos2: "'kern' Horizontal Kerning lookup 15-1" uni0630 dx=-110 dy=0 dh=-110 dv=0 dx=0 dy=0 dh=0 dv=0
PairPos2: "'kern' Horizontal Kerning lookup 15-1" uni062F dx=-110 dy=0 dh=-110 dv=0 dx=0 dy=0 dh=0 dv=0
PairPos2: "'kern' Horizontal Kerning lookup 15-1" uniFEA7 dx=-70 dy=0 dh=-70 dv=0 dx=0 dy=0 dh=0 dv=0
PairPos2: "'kern' Horizontal Kerning lookup 15-1" uniFEA3 dx=-70 dy=0 dh=-70 dv=0 dx=0 dy=0 dh=0 dv=0
PairPos2: "'kern' Horizontal Kerning lookup 15-1" uniFE9F dx=-70 dy=0 dh=-70 dv=0 dx=0 dy=0 dh=0 dv=0
PairPos2: "'kern' Horizontal Kerning lookup 15-1" uniFE9B dx=-110 dy=0 dh=-110 dv=0 dx=0 dy=0 dh=0 dv=0
PairPos2: "'kern' Horizontal Kerning lookup 15-1" uni062B dx=-110 dy=0 dh=-110 dv=0 dx=0 dy=0 dh=0 dv=0
PairPos2: "'kern' Horizontal Kerning lookup 15-1" uniFE97 dx=-110 dy=0 dh=-110 dv=0 dx=0 dy=0 dh=0 dv=0
PairPos2: "'kern' Horizontal Kerning lookup 15-1" uni062A dx=-110 dy=0 dh=-110 dv=0 dx=0 dy=0 dh=0 dv=0
PairPos2: "'kern' Horizontal Kerning lookup 15-1" uni0629 dx=-110 dy=0 dh=-110 dv=0 dx=0 dy=0 dh=0 dv=0
PairPos2: "'kern' Horizontal Kerning lookup 15-1" uni0628 dx=-110 dy=0 dh=-110 dv=0 dx=0 dy=0 dh=0 dv=0
PairPos2: "'kern' Horizontal Kerning lookup 15-1" uni0627 dx=-110 dy=0 dh=-110 dv=0 dx=0 dy=0 dh=0 dv=0
PairPos2: "'kern' Horizontal Kerning lookup 15-1" uni0622 dx=-110 dy=0 dh=-110 dv=0 dx=0 dy=0 dh=0 dv=0
PairPos2: "'kern' Horizontal Kerning lookup 15-1" uniFB94 dx=-140 dy=0 dh=-140 dv=0 dx=0 dy=0 dh=0 dv=0
PairPos2: "'kern' Horizontal Kerning lookup 15-1" afii57509 dx=-140 dy=0 dh=-140 dv=0 dx=0 dy=0 dh=0 dv=0
PairPos2: "'kern' Horizontal Kerning lookup 15-1" uniFB56 dx=-110 dy=0 dh=-110 dv=0 dx=0 dy=0 dh=0 dv=0
PairPos2: "'kern' Horizontal Kerning lookup 15-1" afii57506 dx=-110 dy=0 dh=-110 dv=0 dx=0 dy=0 dh=0 dv=0
EndChar
StartChar: uniFEB2
Encoding: 65202 65202 191
Width: 2635
VWidth: 2393
GlyphClass: 2
Flags: W
AnchorPoint: "Anchor-10" 696.809 966.43 basechar 0
AnchorPoint: "Anchor-7" 463.981 -709.484 basechar 0
LayerCount: 2
Fore
SplineSet
2596.3984375 0.5498046875 m 2,0,1
 2428.06668835 1.03518641149 2428.06668835 1.03518641149 2351.24414062 137.598632812 c 1,2,3
 2266.54865966 -1.02780471385 2266.54865966 -1.02780471385 2119.79296875 -0 c 0,4,5
 1921.74258542 1.03028660813 1921.74258542 1.03028660813 1850.12988281 152.671875 c 1,6,7
 1781.64575466 -1.03415369331 1781.64575466 -1.03415369331 1622.65002577 -0.519518252903 c 128,-1,8
 1463.66084898 -0.00490402025907 1463.66084898 -0.00490402025907 1405.69824219 69.8837890625 c 1,9,-1
 1404.609375 45.8837890625 l 2,10,11
 1380.3359375 -479.442382812 1380.3359375 -479.442382812 779.288085938 -479.88671875 c 0,12,13
 99.666015625 -477.759765625 99.666015625 -477.759765625 97.90234375 94.1005859375 c 0,14,15
 97.642578125 258.3828125 97.642578125 258.3828125 174.866210938 482.071289062 c 1,16,-1
 339.5703125 446.688476562 l 1,17,18
 270.518554688 243.749023438 270.518554688 243.749023438 270.358398438 87.2001953125 c 0,19,20
 270.520507812 -309.6796875 270.520507812 -309.6796875 762.319824216 -309.6796875 c 128,-1,21
 1254.11914062 -309.6796875 1254.11914062 -309.6796875 1254.25976562 74.771484375 c 0,22,23
 1254.12178763 256.168533322 1254.12178763 256.168533322 1187.19042969 516.659179688 c 1,24,-1
 1346.15039062 550.705078125 l 1,25,26
 1351.70703125 520.403320312 1351.70703125 520.403320312 1359.01367188 479.87890625 c 0,27,28
 1385.11148401 335.130575787 1385.11148401 335.130575787 1395.11726545 303.762553519 c 128,-1,29
 1405.12304688 272.39453125 1405.12304688 272.39453125 1431.84472656 242.98828125 c 0,30,31
 1485.27528464 184.18986862 1485.27528464 184.18986862 1588.87304688 183.91796875 c 0,32,33
 1760.91015625 183.271484375 1760.91015625 183.271484375 1775.14160156 347.413085938 c 2,34,-1
 1794.77929688 573.952148438 l 1,35,-1
 1915.8203125 573.952148438 l 1,36,37
 1930.46679688 387.225585938 1930.46679688 387.225585938 1940.00976562 342.340820312 c 0,38,39
 1973.55664062 173.829101562 1973.55664062 173.829101562 2121.22851562 179.178710938 c 0,40,41
 2248.71191406 183.353515625 2248.71191406 183.353515625 2262.80664062 359.404296875 c 2,42,-1
 2279.95800781 573.634765625 l 1,43,-1
 2397.30175781 573.634765625 l 1,44,-1
 2416.64160156 361.985351562 l 2,45,46
 2424.48339822 275.267072391 2424.48339822 275.267072391 2478.66943348 228.974356508 c 128,-1,47
 2532.85546875 182.681640625 2532.85546875 182.681640625 2627.74511719 182.681640625 c 2,48,-1
 2643.50585938 182.681640625 l 1,49,-1
 2643.50585938 0.5498046875 l 1,50,-1
 2596.3984375 0.5498046875 l 2,0,1
EndSplineSet
EndChar
StartChar: uniFEB3
Encoding: 65203 65203 192
Width: 1721
VWidth: 2393
GlyphClass: 2
Flags: W
AnchorPoint: "Anchor-10" 832.466 1045.51 basechar 0
AnchorPoint: "Anchor-7" 866.645 -293.801 basechar 0
LayerCount: 2
Fore
SplineSet
1384 215 m 24,0,1
 1470 291 1470 291 1450.90332031 447.62109375 c 0,2,3
 1439 544 1439 544 1386.15332031 683.5078125 c 1,4,-1
 1541.59082031 750.03515625 l 1,5,6
 1613 606 1613 606 1623.58496094 421.377929688 c 0,7,8
 1635 226 1635 226 1526 102 c 16,9,10
 1438 1 1438 1 1281 0.6396484375 c 0,11,12
 1054 0 1054 0 1001.48925781 160.813476562 c 1,13,14
 950 -1 950 -1 734.284179688 -0.0400390625 c 4,15,16
 522 1 522 1 435.279296875 156.991210938 c 1,17,18
 368 0 368 0 163.241210938 0 c 2,19,-1
 -11.42578125 0 l 1,20,-1
 -11.42578125 182.243164062 l 1,21,-1
 134.849609375 182.243164062 l 2,22,23
 332.684579589 182.000387074 332.684579589 182.000387074 355.889648438 370.604492188 c 2,24,-1
 380.6953125 572.217773438 l 1,25,-1
 504.0234375 572.217773438 l 1,26,-1
 525.509765625 375.66796875 l 2,27,28
 547 183 547 183 749.092773438 182.092773438 c 0,29,30
 896.483516602 181.999694654 896.483516602 181.999694654 921.072265625 371.07421875 c 2,31,-1
 947.334960938 573.020507812 l 1,32,-1
 1071.81640625 573.020507812 l 1,33,-1
 1096.99316406 370.291015625 l 2,34,35
 1121 181 1121 181 1275.38671875 181.577148438 c 0,36,37
 1346 182 1346 182 1384 215 c 24,0,1
EndSplineSet
EndChar
StartChar: uniFEB4
Encoding: 65204 65204 220
Width: 1671
VWidth: 2181
GlyphClass: 2
Flags: W
AnchorPoint: "Anchor-10" 720.5 953.5 basechar 0
AnchorPoint: "Anchor-7" 775.5 -235 basechar 0
LayerCount: 2
Fore
SplineSet
908.334 134.549 m 1,0,1
 866 1 866 1 651.5 1 c 128,-1,2
 437 1 437 1 373.053 124.68 c 5,3,4
 292 0 292 0 72.207 0 c 6,5,-1
 -20.2744140625 0 l 1,6,-1
 -20.2744140625 178.978515625 l 1,7,-1
 36.6533 178.979 l 1,8,9
 265.684212306 180.997217283 265.684212306 180.997217283 289.464 330 c 2,10,-1
 322.238 535.36 l 1,11,-1
 421.319 535.36 l 1,12,-1
 444.979 367.08 l 2,13,14
 472 175 472 175 639.869195114 175.0003863 c 128,-1,15
 807.738390229 175.0007726 807.738390229 175.0007726 826.884 322.096 c 2,16,-1
 854.642 535.36 l 1,17,-1
 966.502 535.36 l 1,18,-1
 994.702 307.419 l 2,19,20
 1011 176 1011 176 1137.19432028 175.605058374 c 0,21,22
 1261.78152489 175.999308646 1261.78152489 175.999308646 1274.98 333.71 c 2,23,-1
 1297.6 604 l 1,24,-1
 1412.31 604 l 1,25,-1
 1433.24 365.56 l 2,26,27
 1449.63143271 179.88 1449.63143271 179.88 1621.45 179.88 c 2,28,-1
 1682.64 179.88 l 1,29,-1
 1682.64 0 l 1,30,-1
 1576.66 0 l 2,31,32
 1418 0 1418 0 1359.01 125.007 c 1,33,34
 1324 1 1324 1 1144.5 1 c 128,-1,35
 965 1 965 1 908.334 134.549 c 1,0,1
EndSplineSet
EndChar
StartChar: uniFEBA
Encoding: 65210 65210 199
Width: 2568
VWidth: 2304
GlyphClass: 2
Flags: W
AnchorPoint: "Anchor-10" 499.823 895.184 basechar 0
AnchorPoint: "Anchor-7" 396.504 -741.616 basechar 0
LayerCount: 2
Fore
SplineSet
2336.31640625 262.758789062 m 5,0,1
 2401.08112394 180.897460938 2401.08112394 180.897460938 2558.20605469 180.897460938 c 2,2,-1
 2576.68847656 180.897460938 l 1,3,-1
 2576.68847656 0 l 1,4,-1
 2531.60839844 0 l 2,5,6
 2337 0 2337 0 2250.49609375 113.419921875 c 1,7,8
 2114.95284204 -4.04086674462 2114.95284204 -4.04086674462 1667.01660156 -0.7080078125 c 2,9,-1
 1571.86035156 0 l 2,10,11
 1424 1 1424 1 1379.47363281 74.484375 c 1,12,-1
 1348.14746094 74.560546875 l 1,13,-1
 1348.13183594 70.56640625 l 2,14,15
 1346 -461 1346 -461 749.313476562 -461.4296875 c 0,16,17
 92 -461 92 -461 91.251953125 93.361328125 c 0,18,19
 91 253 91 253 166.25 469.770507812 c 1,20,-1
 330.288085938 434.532226562 l 1,21,22
 263 238 263 238 262.844726562 86.7314453125 c 0,23,24
 263 -292 263 -292 733.913177775 -292.000763407 c 128,-1,25
 1205 -292 1205 -292 1203.13476562 74.779296875 c 0,26,27
 1202 257 1202 257 1137.98632812 501.86328125 c 1,28,-1
 1293.56835938 535.185546875 l 1,29,30
 1328 274 1328 274 1400 273 c 1,31,32
 1737 770 1737 770 2012.27636719 770.291992188 c 0,33,34
 2361 770 2361 770 2350.39355469 381.884765625 c 0,35,36
 2348 291 2348 291 2336.31640625 262.758789062 c 5,0,1
1522.98730469 191.940429688 m 1,37,-1
 1720.54785156 191.940429688 l 2,38,39
 1956.74187719 192.056279033 1956.74187719 192.056279033 2023.84082031 199.354492188 c 0,40,41
 2168 218 2168 218 2179.9140625 352.93359375 c 0,42,43
 2206.8330989 598.985684899 2206.8330989 598.985684899 2017.16113281 599.099609375 c 0,44,45
 1830.60663788 598.999789524 1830.60663788 598.999789524 1522.98730469 191.940429688 c 1,37,-1
EndSplineSet
EndChar
StartChar: uniFEBB
Encoding: 65211 65211 200
Width: 1562
VWidth: 2393
GlyphClass: 2
Flags: W
AnchorPoint: "Anchor-10" 590.482 1132.67 basechar 0
AnchorPoint: "Anchor-7" 568.643 -245.479 basechar 0
LayerCount: 2
Fore
SplineSet
600.377929688 194.35546875 m 1,0,-1
 811.872070312 194.35546875 l 2,1,2
 1064.09472656 194.719726562 1064.09472656 194.719726562 1127.6640625 202.08984375 c 0,3,4
 1279.89453125 221.041992188 1279.89453125 221.041992188 1292.60058594 364.548828125 c 0,5,6
 1313.36825756 624.023746702 1313.36825756 624.023746702 1120.34863281 623.799804688 c 0,7,8
 925.055957386 624.001963941 925.055957386 624.001963941 600.377929688 194.35546875 c 1,0,-1
480.306640625 272.90625 m 5,9,10
 831 796 831 796 1125.67089844 795.83984375 c 0,11,12
 1472 796 1472 796 1463.91015625 394.942382812 c 0,13,14
 1459 167 1459 167 1301.7836914 82.0874023438 c 0,15,16
 1144 -3 1144 -3 780.534179688 -0.091796875 c 0,17,18
 769 -0 769 -0 756.219726562 -0 c 2,19,-1
 657.252929688 0.736328125 l 2,20,21
 452 2 452 2 348.563476562 172.884765625 c 1,22,23
 225 0 225 0 33.4609375 0 c 2,24,-1
 -13.6220703125 0 l 1,25,-1
 -13.6220703125 182.243164062 l 1,26,-1
 -4.814453125 182.243164062 l 2,27,28
 213.963454724 182.000040612 213.963454724 182.000040612 247.255859375 421.303710938 c 2,29,-1
 268.399414062 573.282226562 l 1,30,-1
 391.083007812 573.282226562 l 1,31,-1
 411.06640625 408.45703125 l 2,32,33
 423 307 423 307 480.306640625 272.90625 c 5,9,10
EndSplineSet
EndChar
StartChar: uniFEBC
Encoding: 65212 65212 228
Width: 1626
VWidth: 2186
GlyphClass: 2
Flags: W
AnchorPoint: "Anchor-10" 580.5 1139.5 basechar 0
AnchorPoint: "Anchor-7" 608.5 -249 basechar 0
LayerCount: 2
Fore
SplineSet
580.668 190.071 m 1,0,-1
 767.638 190.071 l 2,1,2
 948.314 190.071 948.314 190.071 1097.45 259.326 c 0,3,4
 1244.88 327.789 1244.88 327.789 1264.81 447.178 c 1,5,6
 1276.2 523.938 1276.2 523.938 1242.31 570.965 c 128,-1,7
 1208.42 617.993 1208.42 617.993 1132.17 631.236 c 0,8,9
 1000.51 653.521 1000.51 653.521 869.821 544.859 c 1,10,11
 712.835 411.577 712.835 411.577 592.399 209.732 c 2,12,-1
 580.668 190.071 l 1,0,-1
1400.52 264.536 m 2,13,14
 1408.67 253.135 1408.67 253.135 1442.24 228.917 c 0,15,16
 1510.92 179.38 1510.92 179.38 1597.51 179.38 c 2,17,-1
 1634.8 179.38 l 1,18,-1
 1634.8 0.5 l 1,19,-1
 1576.11 0.5 l 2,20,21
 1440.38 0.5 1440.38 0.5 1368.46 56.1006 c 0,22,23
 1295.24 112.693 1295.24 112.693 1287.27 127.84 c 2,24,-1
 1280.43 140.833 l 1,25,-1
 1268.36 132.461 l 2,26,27
 1077.05 -0.233606 1077.05 -0.233606 816.097 0.00195312 c 2,28,-1
 628.938 0.170898 l 2,29,30
 564.745 0.228844 564.745 0.228844 471.476 49.0684 c 0,31,32
 397.508 87.7994 397.508 87.7994 357.633 150.163 c 2,33,-1
 347.455 166.081 l 1,34,-1
 336.226 150.888 l 2,35,36
 224.706 0 224.706 0 60.9902 0 c 2,37,-1
 -8.40039 0 l 1,38,-1
 -8.40039 178.98 l 1,39,-1
 2.13965 178.98 l 2,40,41
 115.842 178.98 115.842 178.98 172.2 235.335 c 0,42,43
 230.684 293.821 230.684 293.821 246.26 402.06 c 2,44,-1
 266.26 541.04 l 1,45,-1
 393.14 541.04 l 1,46,-1
 412.14 440.58 l 2,47,48
 428.883 352.054 428.883 352.054 476.984 315.153 c 1,49,50
 534.517 427.671 534.517 427.671 681.154 589.279 c 0,51,52
 792.084 711.532 792.084 711.532 918.216 767.371 c 0,53,54
 1110.68 851.096 1110.68 851.096 1264.66 785.219 c 0,55,56
 1439.97 710.214 1439.97 710.214 1439.97 436.782 c 0,57,58
 1439.97 350.604 1439.97 350.604 1399.74 278.431 c 2,59,-1
 1395.73 271.237 l 1,60,-1
 1400.52 264.536 l 2,13,14
EndSplineSet
EndChar
StartChar: uniFEC2
Encoding: 65218 65218 207
Width: 1526
VWidth: 2393
GlyphClass: 2
Flags: W
AnchorPoint: "Anchor-7" 571.701 -285.714 basechar 0
AnchorPoint: "Anchor-10" 380.876 1644.38 basechar 0
LayerCount: 2
Fore
SplineSet
1290.06445312 256.694335938 m 5,0,1
 1331.17684148 182.681640625 1331.17684148 182.681640625 1507.41894531 182.681640625 c 6,2,-1
 1535.98730469 182.681640625 l 5,3,-1
 1535.98730469 0.5498046875 l 5,4,-1
 1442.78320312 0.5498046875 l 6,5,6
 1289 1 1289 1 1193.95507812 111.104492188 c 5,7,-1
 1165.55566406 92.251953125 l 5,8,9
 1018 -4 1018 -4 626.828125 -0.091796875 c 4,10,11
 618 0 618 0 608.94921875 0 c 6,12,-1
 97.7392578125 0 l 5,13,-1
 97.7392578125 182.139648438 l 5,14,-1
 253.907226562 182.268554688 l 5,15,16
 284 233 284 233 318.662109375 281.793945312 c 5,17,-1
 318.662109375 1523.81542969 l 5,18,-1
 487.616210938 1523.81542969 l 5,19,-1
 487.616210938 494.865234375 l 5,20,21
 744 785 744 785 956.797851562 784.83984375 c 4,22,23
 1321 785 1321 785 1310.15527344 394.919921875 c 4,24,25
 1308 323 1308 323 1290.06445312 256.694335938 c 5,0,1
446.625 194.35546875 m 5,26,-1
 658.124023438 194.35546875 l 6,27,28
 860.473126917 194.01757819 860.473126917 194.01757819 939.91015625 202.08984375 c 4,29,30
 1127 221 1127 221 1138.84570312 364.541015625 c 4,31,32
 1159 609 1159 609 951.595703125 608.799804688 c 4,33,34
 760 609 760 609 446.625 194.35546875 c 5,26,-1
1165.49609375 92.2119140625 m 5,35,-1
 1165.6171875 92.2880859375 l 5,36,-1
 1165.49609375 92.2119140625 l 5,35,-1
EndSplineSet
EndChar
StartChar: uniFEC3
Encoding: 65219 65219 208
Width: 1228
VWidth: 2304
GlyphClass: 2
Flags: W
AnchorPoint: "Anchor-10" 239.178 1589.5 basechar 0
AnchorPoint: "Anchor-7" 434.994 -266.944 basechar 0
LayerCount: 2
Fore
SplineSet
309.450195312 192.649414062 m 1,0,-1
 507.010742188 192.649414062 l 2,1,2
 749 193 749 193 810.303710938 200.063476562 c 0,3,4
 954 218 954 218 966.376953125 353.642578125 c 0,5,6
 990.271484375 600.0234375 990.271484375 600.0234375 803.780273438 600.01171875 c 128,-1,7
 617.2890625 600 617.2890625 600 309.450195312 192.649414062 c 1,0,-1
345.954101562 486.34375 m 1,8,9
 597 771 597 771 808.744140625 771 c 0,10,11
 1144 771 1144 771 1136.85742188 382.572265625 c 0,12,13
 1133 162 1133 162 979 79.5 c 0,14,15
 831 0 831 0 459.736328125 0 c 2,16,-1
 -26.1201171875 0 l 1,17,-1
 -26.1201171875 180.90234375 l 1,18,-1
 116.708007812 181.02734375 l 1,19,20
 145 229 145 229 177.729492188 274.760742188 c 1,21,-1
 177.729492188 1470.9765625 l 1,22,-1
 345.954101562 1470.9765625 l 1,23,-1
 345.954101562 486.34375 l 1,8,9
EndSplineSet
EndChar
StartChar: uniFEC4
Encoding: 65220 65220 236
Width: 1530
VWidth: 2186
GlyphClass: 2
Flags: W
AnchorPoint: "Anchor-10" 257.27 1528.79 basechar 0
AnchorPoint: "Anchor-7" 538.73 -241 basechar 0
LayerCount: 2
Fore
SplineSet
482.145 190.009 m 1,0,-1
 669.114 190.009 l 2,1,2
 849.793 190.009 849.793 190.009 998.0715 258.867 c 128,-1,3
 1146.35 327.725 1146.35 327.725 1166.28 447.117 c 0,4,5
 1177.67973634 523.872224756 1177.67973634 523.872224756 1137.64576632 579.418481803 c 128,-1,6
 1097.61179631 634.96473885 1097.61179631 634.96473885 988.676448655 634.96473885 c 128,-1,7
 879.741101 634.96473885 879.741101 634.96473885 771.306 544.802 c 1,8,9
 614.297 411.491 614.297 411.491 493.876 209.67 c 2,10,-1
 482.145 190.009 l 1,0,-1
1328.61 446.639 m 0,11,12
 1329 329 1329 329 1277 254 c 1,13,14
 1323 179 1323 179 1508.7 179.38 c 2,15,-1
 1538.5 179.38 l 1,16,-1
 1538.5 0.5 l 1,17,-1
 1449.85 0.5 l 2,18,19
 1223 0 1223 0 1137 122 c 1,20,21
 974 0 974 0 726.898 0 c 2,22,-1
 -8.40039 0 l 1,23,-1
 -8.40039 178.98 l 1,24,-1
 187.13 178.98 l 1,25,-1
 187.13 1400.89 l 1,26,-1
 354.01 1400.89 l 1,27,-1
 354.01 253.825 l 1,28,-1
 378.479 299.68 l 2,29,30
 658 824 658 824 1004.67610487 824.364533107 c 0,31,32
 1327.00402061 823.998860966 1327.00402061 823.998860966 1328.61 446.639 c 0,11,12
EndSplineSet
EndChar
StartChar: uniFECA
Encoding: 65226 65226 223
Width: 1124
VWidth: 2186
GlyphClass: 2
Flags: W
AnchorPoint: "Anchor-10" 568 1048.5 basechar 0
AnchorPoint: "Anchor-7" 399.69 -689.64 basechar 0
LayerCount: 2
Fore
SplineSet
779.5 708.504882812 m 4,0,1
 784.445513882 751.128064869 784.445513882 751.128064869 670.733398438 752.5078125 c 0,2,3
 545 754 545 754 545.233398438 707.204101562 c 0,4,5
 545 669 545 669 640 602 c 1,6,7
 776 666 776 666 779.5 708.504882812 c 4,0,1
487 519 m 1,8,9
 407 597 407 597 380 626 c 0,10,11
 317 697 317 697 311.772460938 721.139648438 c 0,12,13
 305 756 305 756 357.231445312 806.467773438 c 0,14,15
 475 922 475 922 659.151367188 922.418945312 c 0,16,17
 839 923 839 923 982.306640625 803.418945312 c 0,18,19
 1021 771 1021 771 1020.97460938 736.305664062 c 0,20,21
 1020.99295381 701.405371824 1020.99295381 701.405371824 990.672851562 667.05859375 c 0,22,23
 920 587 920 587 696 472 c 1,24,25
 802 179 802 179 1097.5 179.379882812 c 2,26,-1
 1148.70019531 179.379882812 l 1,27,-1
 1148.70019531 0.5 l 1,28,-1
 1114.62011719 0.5 l 2,29,30
 745 0 745 0 562 397.174804688 c 1,31,32
 459 350 459 350 385 279 c 0,33,34
 253 153 253 153 253.009765625 -0.10546875 c 0,35,36
 253 -170 253 -170 368.5 -260 c 128,-1,37
 484 -350 484 -350 703.299804688 -350.165039062 c 0,38,39
 855 -350 855 -350 964.599609375 -310.3828125 c 1,40,-1
 1007 -458 l 1,41,42
 887 -510 887 -510 680.299804688 -507.69140625 c 0,43,44
 394 -505 394 -505 243.5 -370.5 c 128,-1,45
 93 -236 93 -236 95 -1 c 128,-1,46
 97 234 97 234 303 402 c 0,47,48
 396 478 396 478 487 519 c 1,8,9
EndSplineSet
EndChar
StartChar: uniFECB
Encoding: 65227 65227 243
Width: 1054
VWidth: 2186
GlyphClass: 2
Flags: W
AnchorPoint: "Anchor-10" 373.265 1221.23 basechar 0
AnchorPoint: "Anchor-7" 402.6 -258.5 basechar 0
LayerCount: 2
Fore
SplineSet
279.904 179.013 m 1,0,1
 199 266 199 266 172.181680821 344.704534305 c 0,2,3
 145 423 145 423 145.094518004 499.77544068 c 0,4,5
 145 576 145 576 175.768 642 c 0,6,7
 290 886 290 886 570 886 c 0,8,9
 777 886 777 886 888.961 760.358 c 1,10,-1
 833.768 636.427 l 1,11,12
 732 721 732 721 585.680433179 720.885414614 c 0,13,14
 394 721 394 721 331.768 584 c 0,15,16
 309 533 309 533 308.844233756 474.811248995 c 0,17,18
 309 416 309 416 337.981 349.183 c 0,19,20
 399 211 399 211 560.440429688 210.157226562 c 0,21,22
 580 210 580 210 963 284.427 c 1,23,-1
 963 104.427 l 1,24,25
 557.905917349 -0.0242586889119 557.905917349 -0.0242586889119 356.357 -0.015625 c 2,26,-1
 -8.40039 0 l 1,27,-1
 -8.40039 178.98 l 1,28,-1
 279.904 179.013 l 1,0,1
EndSplineSet
EndChar
StartChar: uniFECC
Encoding: 65228 65228 217
Width: 984
VWidth: 2304
GlyphClass: 2
Flags: W
AnchorPoint: "Anchor-10" 490.597 1121.17 basechar 0
AnchorPoint: "Anchor-7" 474.757 -276.976 basechar 0
LayerCount: 2
Fore
SplineSet
503.099609375 416.703125 m 1,0,1
 621.95703125 497.371140429 621.95703125 497.371140429 621.95703125 525.0234375 c 0,2,3
 621.95703125 574.466796875 621.95703125 574.466796875 503.099609375 574.466796875 c 128,-1,4
 384.2421875 574.466796875 384.2421875 574.466796875 384.2421875 525.0234375 c 0,5,6
 384.2421875 497.371140429 384.2421875 497.371140429 503.099609375 416.703125 c 1,0,1
492.249023438 173.095703125 m 1,7,8
 311.026761482 0 311.026761482 0 43.1484375 0 c 2,9,-1
 -17.54296875 0 l 1,10,-1
 -17.54296875 181.002929688 l 1,11,-1
 18.2900390625 181.002929688 l 2,12,13
 287.059083443 181.024415819 287.059083443 181.024415819 402.639648438 324.883789062 c 1,14,15
 269.310877853 391.1824492 269.310877853 391.1824492 200.642743614 445.61075585 c 128,-1,16
 131.974609375 500.0390625 131.974609375 500.0390625 131.974609375 530.294921875 c 0,17,18
 131.974609375 626.401511881 131.974609375 626.401511881 285.721679688 698.876953125 c 0,19,20
 376.830062096 741.759765625 376.830062096 741.759765625 498.431640625 741.759765625 c 128,-1,21
 620.03125 741.759765625 620.03125 741.759765625 710.889648438 698.8515625 c 0,22,23
 867.970703125 625.635742188 867.970703125 625.635742188 867.970703125 534.259765625 c 0,24,25
 867.970703125 513.911132812 867.970703125 513.911132812 812.974609375 464.624023437 c 128,-1,26
 757.994554777 415.351288237 757.994554777 415.351288237 594.659179688 323.495117188 c 1,27,28
 703.420235038 179.672173324 703.420235038 179.672173324 962.944335938 181.002929688 c 1,29,-1
 999.791015625 181.383789062 l 1,30,-1
 999.791015625 0.5283203125 l 1,31,-1
 938.036132812 0.5283203125 l 2,32,33
 937.196289062 0.5263671875 937.196289062 0.5263671875 936.358398438 0.5263671875 c 0,34,35
 664.332077344 0.5263671875 664.332077344 0.5263671875 492.249023438 173.095703125 c 1,7,8
EndSplineSet
EndChar
StartChar: uniFEDA
Encoding: 65242 65242 231
Width: 2005
VWidth: 2393
GlyphClass: 2
Flags: W
AnchorPoint: "Anchor-10" 637.503 1487 basechar 0
AnchorPoint: "Anchor-7" 858.25 -247.125 basechar 0
LayerCount: 2
Fore
SplineSet
734.158203125 803.321967956 m 5,0,1
 816.033483685 792.684570312 816.033483685 792.684570312 878.089383484 792.684570312 c 132,-1,2
 940.145283283 792.684570312 940.145283283 792.684570312 987.46477219 811.102804034 c 4,3,4
 1074.9453125 845.152982402 1074.9453125 845.152982402 1074.9453125 895.48046875 c 4,5,6
 1074.9453125 950.626512714 1074.9453125 950.626512714 978.642248068 966.322499964 c 4,7,8
 835.855947029 988.078817159 835.855947029 988.078817159 838.742309455 1120.92645929 c 4,9,10
 842.895579785 1288.86910185 842.895579785 1288.86910185 1151.37890625 1309.6901035 c 5,11,-1
 1151.37890625 1226.01301353 l 5,12,13
 1008.2874521 1215.23618645 1008.2874521 1215.23618645 948.25017583 1164.46316195 c 4,14,15
 925.756835938 1145.43853933 925.756835938 1145.43853933 925.756835938 1115.07114275 c 4,16,17
 925.756835938 1050.68626834 925.756835938 1050.68626834 1030.84545805 1035.23586467 c 4,18,19
 1161.5703125 1016.01635517 1161.5703125 1016.01635517 1161.5703125 918.983398438 c 4,20,21
 1161.5703125 805.66626487 1161.5703125 805.66626487 1049.71034764 742.408457493 c 132,-1,22
 937.850382771 679.150650117 937.850382771 679.150650117 734.158203125 712.633533227 c 5,23,-1
 734.158203125 803.321967956 l 5,0,1
1940.4140625 0.5498046875 m 2,24,25
 1763.48582607 0.5498046875 1763.48582607 0.5498046875 1633.26757812 121.217773438 c 1,26,27
 1535 61 1535 61 1367.57470703 29.69921875 c 0,28,29
 1196 -2 1196 -2 1004.16894531 1.9619140625 c 0,30,31
 634 9 634 9 504.202858933 45.0363575951 c 0,32,33
 374 81 374 81 290.817382812 142.001953125 c 0,34,35
 122 264 122 264 98.798828125 495.489257812 c 0,36,37
 86 621 86 621 135.873046875 763.279296875 c 1,38,-1
 301.754882812 730.650390625 l 1,39,40
 263 613 263 613 276.780273438 516.798828125 c 0,41,42
 316 230 316 230 717.793945312 191.807617188 c 0,43,44
 994 166 994 166 1254.75830078 192.717285156 c 0,45,46
 1410 209 1410 209 1504.07617188 268.251953125 c 0,47,48
 1597.66712861 327.788249525 1597.66712861 327.788249525 1606.25585938 428.247070312 c 2,49,-1
 1610.48828125 477.751953125 l 1,50,-1
 1610.48828125 1504.27050781 l 1,51,-1
 1777.82421875 1504.27050781 l 1,52,-1
 1777.82421875 445.111328125 l 2,53,54
 1778 351 1778 351 1749.85449219 271.256835938 c 1,55,56
 1815.23499237 182.681640625 1815.23499237 182.681640625 1957.04589844 182.681640625 c 2,57,-1
 2023.74316406 182.681640625 l 1,58,-1
 2023.74316406 0.5498046875 l 1,59,-1
 1940.4140625 0.5498046875 l 2,24,25
EndSplineSet
EndChar
StartChar: uniFEDB
Encoding: 65243 65243 259
Width: 880
VWidth: 2186
GlyphClass: 2
Flags: W
AnchorPoint: "Anchor-10" 210.5 1421 basechar 0
AnchorPoint: "Anchor-7" 305 -225 basechar 0
LayerCount: 2
Fore
SplineSet
293.7 0 m 2,0,-1
 -20.400390625 0 l 1,1,-1
 -20.400390625 178.98046875 l 1,2,-1
 252.371 179.004 l 2,3,4
 530 179 530 179 552.945 323.598 c 0,5,6
 574.050183246 455.313188266 574.050183246 455.313188266 451.112 546.547 c 2,7,-1
 90.8574 813.896 l 2,8,9
 19 867 19 867 12.5195 947.14 c 0,10,11
 2.0072334397 1076.91070541 2.0072334397 1076.91070541 124.539 1136.45 c 2,12,-1
 823.25 1475.96 l 1,13,-1
 823.25 1299.28 l 1,14,15
 496 1142 496 1142 168.371 984 c 1,16,17
 414 802 414 802 585.513 657.823 c 0,18,19
 735 531 735 531 709.925 281.204 c 0,20,21
 696 144 696 144 586.487 71.999 c 128,-1,22
 477 0 477 0 293.7 0 c 2,0,-1
EndSplineSet
EndChar
StartChar: uniFEDC
Encoding: 65244 65244 233
Width: 985
VWidth: 2393
GlyphClass: 2
Flags: W
AnchorPoint: "Anchor-10" 242.046 1469.97 basechar 0
AnchorPoint: "Anchor-7" 354.615 -326.748 basechar 0
LayerCount: 2
Fore
SplineSet
687.540039062 149.9765625 m 1,0,1
 570.75145702 0 570.75145702 0 324.633789062 0 c 2,2,-1
 -13.1650390625 0 l 1,3,-1
 -13.1650390625 182.243164062 l 1,4,-1
 279.260742188 182.26953125 l 2,5,6
 606.807682901 182.26502418 606.807682901 182.26502418 578.037109375 364.084960938 c 0,7,8
 547.015625 556.8671875 547.015625 556.8671875 105.435546875 809.432617188 c 0,9,10
 22.9013671875 858.124023438 22.9013671875 858.124023438 22.6572265625 975.61328125 c 128,-1,11
 22.4130859375 1092.9296875 22.4130859375 1092.9296875 141.983398438 1151.02832031 c 2,12,-1
 899.045898438 1518.89257812 l 1,13,-1
 899.045898438 1340.79589844 l 1,14,-1
 173.0703125 991.286132812 l 1,15,16
 515.610655835 743.106579448 515.610655835 743.106579448 578.654449011 673.98151238 c 0,17,18
 699.851345585 541.093829359 699.851345585 541.093829359 755.712463185 361.887734992 c 128,-1,19
 811.573580785 182.681640625 811.573580785 182.681640625 968.250976562 182.681640625 c 2,20,-1
 1001.75976562 182.681640625 l 1,21,-1
 1001.75976562 0.5498046875 l 1,22,-1
 976.239257812 0.5498046875 l 2,23,24
 764.252098169 0.0107748372876 764.252098169 0.0107748372876 687.540039062 149.9765625 c 1,0,1
EndSplineSet
EndChar
StartChar: uniFEDE
Encoding: 65246 65246 262
Width: 1402
VWidth: 2186
GlyphClass: 2
Flags: W
AnchorPoint: "Anchor-10" 452.5 885.5 basechar 0
AnchorPoint: "Anchor-7" 366.34 -693.3 basechar 0
LayerCount: 2
Fore
SplineSet
969.4 372.14 m 2,0,-1
 969.4 1400.83 l 1,1,-1
 1135.28 1400.83 l 1,2,-1
 1135.28 405.31 l 2,3,4
 1135.28 286.501 1135.28 286.501 1191.52 230.268 c 0,5,6
 1242.41 179.38 1242.41 179.38 1343.72 179.38 c 2,7,-1
 1410.97 179.38 l 1,8,-1
 1410.97 0.5 l 1,9,-1
 1357.87 0.5 l 2,10,11
 1234.16 0.5 1234.16 0.5 1135.82 64.8076 c 1,12,13
 1131.71 -174.942 1131.71 -174.942 986.767 -331 c 0,14,15
 860.257 -468.18 860.257 -468.18 644.745 -472.679 c 0,16,17
 388.43 -478.396 388.43 -478.396 244.756 -353.495 c 0,18,19
 103.006 -230.576 103.006 -230.576 92.3965 -7.10352 c 0,20,21
 85.3965 142.648 85.3965 142.648 137.184 274.606 c 1,22,-1
 296.582 242.591 l 1,23,24
 254.509 101.714 254.509 101.714 260.188 14.3105 c 0,25,26
 269.441 -140.608 269.441 -140.608 364.32 -228.798 c 0,27,28
 452.197 -310.997 452.197 -310.997 645.384 -303.931 c 0,29,30
 758.884 -300.031 758.884 -300.031 840.767 -241 c 4,31,32
 969.769 -148 969.769 -148 969.83 33.8574 c 0,33,-1
 969.4 372.14 l 2,0,-1
EndSplineSet
EndChar
StartChar: uniFEDF
Encoding: 65247 65247 263
Width: 531
VWidth: 2186
GlyphClass: 2
Flags: W
AnchorPoint: "Anchor-10" 297.73 1512 basechar 0
AnchorPoint: "Anchor-7" 238.73 -241.5 basechar 0
LayerCount: 2
Fore
SplineSet
398.17 441.69 m 2,0,1
 398.17 217.852 398.17 217.852 291.885 103.897 c 0,2,3
 194.978 0 194.978 0 61.7002 0 c 2,4,-1
 -54.4004 0 l 1,5,-1
 -54.4004 178.98 l 1,6,-1
 12.8496 178.98 l 2,7,8
 112.597 178.98 112.597 178.98 175.053 257.018 c 0,9,10
 231.29 327.285 231.29 327.285 231.29 454.53 c 2,11,-1
 231.29 1401.03 l 1,12,-1
 398.17 1401.03 l 1,13,-1
 398.17 441.69 l 2,0,1
EndSplineSet
EndChar
StartChar: uniFEE0
Encoding: 65248 65248 245
Width: 650
VWidth: 2186
GlyphClass: 2
Flags: W
AnchorPoint: "Anchor-10" 316.73 1508 basechar 0
AnchorPoint: "Anchor-7" 243.73 -239.5 basechar 0
LayerCount: 2
Fore
SplineSet
316.045 96.1914 m 2,0,1
 229.911783399 -2.84217094304e-14 229.911783399 -2.84217094304e-14 80.7002 0 c 2,2,-1
 -15.400390625 0 l 1,3,-1
 -15.400390625 178.98046875 l 1,4,-1
 21.8496 178.98 l 2,5,6
 129 179 129 179 183.053 230.268 c 0,7,8
 242.29 287.279102923 242.29 287.279102923 242.29 405.31 c 2,9,-1
 242.29 1399.96 l 1,10,-1
 409.17 1399.96 l 1,11,-1
 409.17 405.31 l 2,12,13
 409 289 409 289 467.407 230.268 c 0,14,15
 519.021527227 178.97860838 519.021527227 178.97860838 629.61 178.98 c 2,16,-1
 666.860351562 178.98046875 l 1,17,-1
 666.860351562 0 l 1,18,-1
 570.76 0 l 2,19,20
 423.79517299 -5.68434188608e-14 423.79517299 -5.68434188608e-14 325.607 106.87 c 5,21,-1
 316.045 96.1914 l 2,0,1
EndSplineSet
EndChar
StartChar: uniFEE2
Encoding: 65250 65250 266
Width: 1145
VWidth: 2186
GlyphClass: 2
Flags: W
AnchorPoint: "Anchor-10" 530.5 1067 basechar 0
AnchorPoint: "Anchor-7" 170.188 -663.422 basechar 0
LayerCount: 2
Fore
SplineSet
665.5 495.364 m 0,0,1
 530.052 502.667 530.052 502.667 526.5 467.364 c 0,2,3
 483.753 111.169 483.753 111.169 711.5 138 c 0,4,5
 839.642 153.029 839.642 153.029 824.5 338.364 c 0,6,7
 811.906 488.481 811.906 488.481 665.5 495.364 c 0,0,1
975 213 m 1,8,9
 998 178 998 178 1126 178 c 2,10,-1
 1163 178 l 1,11,-1
 1163 0 l 1,12,-1
 1112 0 l 2,13,14
 980 0 980 0 901.5 60 c 1,15,16
 890 48 890 48 863.5 30.4795 c 0,17,18
 804 -8 804 -8 717 -10.6396 c 0,19,20
 625 -14 625 -14 566 9 c 0,21,22
 349 94 349 94 383.5 454 c 1,23,24
 256 439 256 439 256 129 c 0,25,26
 256 71 256 71 256 -165 c 2,27,-1
 256 -476 l 1,28,-1
 90 -476 l 1,29,-1
 90 -151 l 2,30,-1
 90 208 l 1,31,32
 114 571 114 571 404.5 627.403 c 0,33,34
 617 669 617 669 799.5 623.766 c 0,35,36
 962 584 962 584 980.5 370.652 c 0,37,38
 986 309 986 309 975 213 c 1,8,9
EndSplineSet
EndChar
StartChar: uniFEE3
Encoding: 65251 65251 240
Width: 939
VWidth: 2393
GlyphClass: 2
Flags: W
AnchorPoint: "Anchor-10" 370.291 999.377 basechar 0
AnchorPoint: "Anchor-7" 376.881 -232.849 basechar 0
LayerCount: 2
Fore
SplineSet
258.391601562 102.265625 m 5,0,1
 188 0 188 0 38.3056640625 0 c 6,2,-1
 -11.42578125 0 l 5,3,-1
 -11.42578125 182.2421875 l 5,4,-1
 54.7587890625 182.241210938 l 6,5,6
 125 182 125 182 146.016601562 239.576171875 c 28,7,8
 322 729 322 729 548.461914062 729.188476562 c 4,9,10
 807 729 807 729 841.0390625 319.5234375 c 4,11,12
 842 308 842 308 841.57421875 296.997070312 c 4,13,14
 842 159 842 159 772.0703125 81.7568359375 c 4,15,16
 702 4 702 4 584.567382812 4.3427734375 c 4,17,18
 371 4 371 4 258.391601562 102.265625 c 5,0,1
319.760742188 234.090820312 m 5,19,20
 479 154 479 154 568.725585938 158.629882812 c 4,21,22
 684 164 684 164 683.639648438 290.280273438 c 4,23,24
 684 340 684 340 669.770507812 412.198242188 c 4,25,26
 642 554 642 554 555.04296875 554.611328125 c 4,27,28
 418 554 418 554 319.760742188 234.090820312 c 5,19,20
EndSplineSet
EndChar
StartChar: uniFEE4
Encoding: 65252 65252 241
Width: 964
VWidth: 2304
GlyphClass: 2
Flags: W
AnchorPoint: "Anchor-10" 505.05 1050.42 basechar 0
AnchorPoint: "Anchor-7" 486.042 -241.072 basechar 0
LayerCount: 2
Fore
SplineSet
726.330078125 108.081054688 m 5,0,1
 715 91 715 91 704.544921875 78.1923828125 c 4,2,3
 638 4 638 4 523.625 4.17578125 c 4,4,5
 317 4 317 4 210.536132812 96.9130859375 c 5,6,7
 144 0 144 0 -1.62890625 0 c 6,8,-1
 -13.87109375 0 l 5,9,-1
 -13.87109375 181.001953125 l 5,10,-1
 14.19140625 181.000976562 l 6,11,12
 76 181 76 181 104.883789062 234.090820312 c 5,13,-1
 105.166015625 234.733398438 l 5,14,15
 265 707 265 707 488.904296875 706.912109375 c 4,16,17
 720 707 720 707 764.622070312 386 c 28,18,19
 792.983507491 181.119140625 792.983507491 181.119140625 961.759765625 181.119140625 c 6,20,-1
 971.381835938 181.119140625 l 5,21,-1
 971.381835938 0.13671875 l 5,22,23
 823 -3 823 -3 726.330078125 108.081054688 c 5,0,1
272.4765625 229.456054688 m 5,24,25
 423 154 423 154 508.263743709 158.294891922 c 4,26,27
 616 163 616 163 616 282 c 4,28,29
 616 330 616 330 602 401 c 4,30,31
 577 533 577 533 495.240234375 533.280273438 c 4,32,33
 366 533 366 533 272.4765625 229.456054688 c 5,24,25
EndSplineSet
EndChar
StartChar: uniFEEA
Encoding: 65258 65258 247
Width: 1048
VWidth: 2393
GlyphClass: 2
Flags: W
AnchorPoint: "Anchor-10" 662.009 1082.95 basechar 0
AnchorPoint: "Anchor-7" 381.482 -254.264 basechar 0
LayerCount: 2
Fore
SplineSet
683.444335938 328.0859375 m 1,0,-1
 649.3046875 633.581054688 l 1,1,2
 271 579 271 579 262.44921875 457.892578125 c 0,3,4
 250 276 250 276 683.444335938 328.0859375 c 1,0,-1
1042.09472656 0 m 2,5,6
 794 0 794 0 720.93359375 185.180664062 c 1,7,8
 104 104 104 104 97.1962890625 425.041992188 c 0,9,10
 91 713 91 713 633.712890625 778.424804688 c 1,11,-1
 625.76171875 849.06640625 l 1,12,-1
 783.911132812 869.090820312 l 1,13,-1
 825.537109375 432.250976562 l 2,14,15
 849.040596335 182.568737022 849.040596335 182.568737022 1046.55175781 182.265625 c 2,16,-1
 1058.00585938 182.248046875 l 1,17,-1
 1058.00585938 0 l 1,18,-1
 1042.09472656 0 l 2,5,6
EndSplineSet
EndChar
StartChar: uniFEEB
Encoding: 65259 65259 248
Width: 1216
VWidth: 2304
GlyphClass: 2
Flags: W
AnchorPoint: "Anchor-10" 434.31 1322.58 basechar 0
AnchorPoint: "Anchor-7" 383.349 -245.767 basechar 0
LayerCount: 2
Fore
SplineSet
345.396484375 221.293945312 m 1,0,1
 458 263 458 263 514.684570312 314.579101562 c 0,2,3
 610 399 610 399 609.946289062 474.235351562 c 0,4,5
 610 531 610 531 572.506835938 564.908203125 c 0,6,7
 491 639 491 639 387 583 c 0,8,9
 336 556 336 556 293.5234375 489.296875 c 0,10,11
 256 430 256 430 257.448242188 368.268554688 c 0,12,13
 259 276 259 276 345.396484375 221.293945312 c 1,0,1
750.275390625 479.458984375 m 0,14,15
 750 311 750 311 545.171875 184.213867188 c 1,16,17
 675 153 675 153 774.40625 152.961914062 c 0,18,19
 948 153 948 153 970.006835938 267.208984375 c 0,20,21
 972 278 972 278 971.952148438 288.474609375 c 0,22,23
 972 404 972 404 747.112304688 596.755859375 c 0,24,25
 727 614 727 614 684.262695312 648.854492188 c 1,26,27
 750 568 750 568 750.275390625 479.458984375 c 0,14,15
383.396484375 84.9609375 m 1,28,29
 198 0 198 0 -0.9423828125 0 c 2,30,-1
 -15.982421875 0 l 1,31,-1
 -15.982421875 181.873046875 l 1,32,-1
 177.849609375 181.009765625 l 1,33,34
 108 265 108 265 108.145507812 388.670898438 c 0,35,36
 108 504 108 504 179.1875 600.225585938 c 0,37,38
 246 691 246 691 352.794921875 729.931640625 c 0,39,40
 402 748 402 748 461.875 747.737304688 c 0,41,42
 520 748 520 748 614.333007812 708.629882812 c 1,43,44
 547 761 547 761 512.11328125 782.208984375 c 1,45,-1
 607.302734375 905.982421875 l 1,46,47
 718 832 718 832 902.77734375 655.924804688 c 0,48,49
 1093 475 1093 475 1121.40234375 348.305664062 c 0,50,51
 1131 305 1131 305 1130.70996094 266.969726562 c 0,52,53
 1125 78 1125 78 913 12 c 4,54,55
 861 -4 861 -4 729.329101562 4.0888671875 c 0,56,57
 531 17 531 17 383.396484375 84.9609375 c 1,28,29
EndSplineSet
EndChar
StartChar: uniFEEC
Encoding: 65260 65260 276
Width: 1055
VWidth: 2186
GlyphClass: 2
Flags: W
AnchorPoint: "Anchor-7" 368.88 -567 basechar 0
AnchorPoint: "Anchor-10" 557.76 1079.74 basechar 0
LayerCount: 2
Fore
SplineSet
337.689 178.957 m 1,0,-1
 396.343 179.715 l 2,1,2
 463.821 180.587 463.821 180.587 520.155 246.662 c 2,3,-1
 520.508 247.076 l 1,4,-1
 520.828 247.518 l 2,5,6
 590.688 344.01 590.688 344.01 590.688 567.296 c 0,7,8
 590.688 636.01 590.688 636.01 565.999 673.478 c 128,-1,9
 541.312 710.946 541.312 710.946 480.986 710.946 c 0,10,11
 395.325 710.946 395.325 710.946 352.479 550.576 c 0,12,13
 308.867 389.522 308.867 389.522 335.913 191.935 c 2,14,-1
 337.689 178.957 l 1,0,-1
232.379 685.394 m 0,15,16
 313.888 865.279 313.888 865.279 493.5 864 c 0,17,18
 610.732 863.167 610.732 863.167 677.5 788 c 0,19,20
 747.082 709.544 747.082 709.544 747.082 593.893 c 0,21,22
 747.082 224.679 747.082 224.679 572.975 72.6113 c 0,23,24
 497.787 6.93896 497.787 6.93896 365.025 0.484375 c 2,25,-1
 353.094 -0.0957031 l 1,26,-1
 352.665 -12.0352 l 2,27,28
 346.284 -189.623 346.284 -189.623 525.557 -285.337 c 2,29,-1
 541.131 -293.652 l 1,30,-1
 544.447 -276.312 l 2,31,32
 585.378 -62.2795 585.378 -62.2795 737.5 66 c 0,33,34
 868.311 178.318 868.311 178.318 1018.02 179.979 c 1,35,-1
 1106.64 179.38 l 1,36,-1
 1106.64 0.499023 l 1,37,-1
 1035.96 -0.000976562 l 2,38,39
 725.368 -2.19814 725.368 -2.19814 664.726 -480.481 c 1,40,41
 373.155 -460.966 373.155 -460.966 256.353 -257.404 c 0,42,43
 200.609 -160.231 200.609 -160.231 189.998 -11.6113 c 2,44,-1
 189.169 0 l 1,45,-1
 -17.9355 -0 l 1,46,-1
 -17.9355 178.979 l 1,47,-1
 186.791 179.037 l 1,48,-1
 186.181 194.815 l 2,49,50
 172.389 551.542 172.389 551.542 232.379 685.394 c 0,15,16
EndSplineSet
EndChar
StartChar: uniFEEE
Encoding: 65262 65262 251
Width: 884
VWidth: 2393
GlyphClass: 2
Flags: W
AnchorPoint: "Anchor-10" 434.484 1161.36 basechar 0
AnchorPoint: "Anchor-7" 383.917 -673.751 basechar 0
LayerCount: 2
Fore
SplineSet
600.439453125 172.333007812 m 1,0,1
 599 530 599 530 446.69140625 529.935546875 c 0,2,3
 383 530 383 530 331.806640625 458.576171875 c 0,4,5
 280 387 280 387 280.458984375 310.028320312 c 0,6,7
 280 177 280 177 464.573242188 170.321289062 c 0,8,9
 474 170 474 170 525.729492188 170.311523438 c 0,10,11
 586 170 586 170 600.439453125 172.333007812 c 1,0,1
587.986328125 1.12109375 m 1,12,13
 259 -16 259 -16 171.559570312 117.8359375 c 0,14,15
 122 194 122 194 121.840820312 306.413085938 c 0,16,17
 122 430 122 430 198.147460938 557.385742188 c 0,18,19
 299 724 299 724 439.631835938 723.6875 c 0,20,21
 603 723 603 723 700.765625 526.9140625 c 4,22,23
 757 415 757 415 765.432617188 181.659179688 c 1,24,-1
 895.091796875 182.624023438 l 1,25,-1
 895.091796875 0.5498046875 l 1,26,-1
 761.185546875 0.5498046875 l 1,27,28
 722 -176 722 -176 575.233398438 -304.940429688 c 0,29,30
 435 -428 435 -428 116.416015625 -466.162109375 c 1,31,-1
 86.2060546875 -299.993164062 l 1,32,33
 491 -258 491 -258 587.986328125 1.12109375 c 1,12,13
EndSplineSet
EndChar
StartChar: uniFEF0
Encoding: 65264 65264 253
Width: 1483
VWidth: 2393
GlyphClass: 2
Flags: W
AnchorPoint: "Anchor-10" 618.537 602.71 basechar 0
AnchorPoint: "Anchor-7" 393.628 -739.555 basechar 0
LayerCount: 2
Fore
SplineSet
1337.84179688 0.6015625 m 1,0,1
 1411 -46 1411 -46 1411.48144531 -123.264648438 c 0,2,3
 1411 -296 1411 -296 1161.2835789 -415.277240186 c 0,4,5
 915 -532 915 -532 565.373046875 -499.182617188 c 0,6,7
 97 -455 97 -455 96.7939453125 6.3251953125 c 0,8,9
 97 168 97 168 172.40625 365.376953125 c 1,10,-1
 334.259765625 325.759765625 l 1,11,12
 275 144 275 144 274.620117188 15.197265625 c 0,13,14
 275 -339 275 -339 712.63671875 -339.629882812 c 0,15,16
 964 -340 964 -340 1111.05957031 -255.489746094 c 128,-1,17
 1258 -171 1258 -171 1258.24804688 -90.5185546875 c 0,18,19
 1258 -40 1258 -40 1193.06738281 0.5400390625 c 1,20,-1
 965.752929688 0.7578125 l 1,21,22
 912 7 912 7 890.758300781 90.5249023435 c 0,23,24
 869 174 869 174 901.518554688 182.245117188 c 1,25,-1
 1494.29785156 182.676757812 l 5,26,-1
 1494.29785156 0.5517578125 l 5,27,-1
 1337.84179688 0.6015625 l 1,0,1
EndSplineSet
EndChar
StartChar: uniFEFB
Encoding: 65275 65275 291
Width: 1116
VWidth: 2186
GlyphClass: 3
Flags: W
AnchorPoint: "Anchor-9" 903.69 1518 baselig 0
AnchorPoint: "Anchor-6" 832.69 -163.5 baselig 0
AnchorPoint: "Anchor-6" 195 -217 baselig 1
AnchorPoint: "Anchor-9" 126.5 1490.5 baselig 1
LayerCount: 2
Fore
SplineSet
994.03 887.88 m 2,0,1
 993.950501611 480.784649865 993.950501611 480.784649865 970.9 380.5 c 0,2,3
 920 152 920 152 745.487 61.4238 c 0,4,5
 607 -11 607 -11 289.908 3.70801 c 0,6,7
 150 10 150 10 91.4023 28.5 c 1,8,-1
 93.3671875 193.99609375 l 1,9,10
 312 143 312 143 399.2265625 156.782226562 c 1,11,-1
 100.451 1295.46 l 1,12,-1
 242.902 1358.89 l 1,13,-1
 562.763671875 174.184570312 l 1,14,15
 811 243 811 243 820.105 503.494 c 0,16,17
 827.798166639 684.340580345 827.798166639 684.340580345 827.951 926.4 c 2,18,-1
 828.25 1399.96 l 1,19,-1
 994.13 1399.96 l 1,20,-1
 994.03 887.88 l 2,0,1
EndSplineSet
LCarets2: 1 0
Ligature2: "'rlig' Required Ligatures in Arabic lookup 16 subtable" uniFEDF uniFE8E
EndChar
StartChar: uniFEFC
Encoding: 65276 65276 292
Width: 1236
VWidth: 2186
GlyphClass: 3
Flags: W
AnchorPoint: "Anchor-9" 882.69 1494 baselig 0
AnchorPoint: "Anchor-6" 805.69 -186.5 baselig 0
AnchorPoint: "Anchor-6" 170 -240 baselig 1
AnchorPoint: "Anchor-9" 112.5 1444.5 baselig 1
LayerCount: 2
Fore
SplineSet
726.85 154.056 m 0,0,1
 589 1 589 1 333.99 0.5 c 0,2,3
 163 0 163 0 119.08 10.0127 c 1,4,-1
 119.08 189.019 l 1,5,6
 365 142 365 142 429 169 c 5,7,-1
 91.7588 1283.99 l 1,8,-1
 238.457 1346.99 l 1,9,-1
 584.37890625 236.850585938 l 5,10,11
 708 316 708 316 758 476 c 0,12,13
 792.997470347 591.891168815 792.997470347 591.891168815 793.05 926.4 c 2,14,-1
 793.25 1400.11 l 1,15,-1
 959.13 1400.11 l 1,16,-1
 959.13 637.5 l 2,17,18
 959 466 959 466 996.46 356.561 c 0,19,20
 1056.87043777 179.38 1056.87043777 179.38 1193.59 179.38 c 2,21,-1
 1261.94 179.38 l 1,22,-1
 1261.94 0.5 l 1,23,-1
 1194.91 0.5 l 2,24,25
 900 0 900 0 861 367 c 1,26,27
 818 255 818 255 726.85 154.056 c 0,0,1
EndSplineSet
LCarets2: 1 0
Ligature2: "'rlig' Required Ligatures in Arabic lookup 16 subtable" uniFEE0 uniFE8E
EndChar
StartChar: arabic_2dots
Encoding: 65537 -1 267
Width: 422
VWidth: 2162
GlyphClass: 2
Flags: W
LayerCount: 2
Fore
SplineSet
393.259843501 168.834359686 m 2,0,-1
 424.239484406 137.854718781 l 2,1,2
 474.974065233 87.1201379539 474.974065233 87.1201379539 422.974835968 35.1198905939 c 2,3,-1
 392.35079075 4.49584537638 l 2,4,5
 375.991158675 -11.8634507649 375.991158675 -11.8634507649 359.969887897 -17.6409242794 c 0,6,7
 351.638044155 -20.645492843 351.638044155 -20.645492843 343.279958798 -20.8392614892 c 128,-1,8
 334.8945043 -21.0336646443 334.8945043 -21.0336646443 326.647899962 -18.3884290285 c 0,9,10
 318.818106797 -15.8731145353 318.818106797 -15.8731145353 311.014979184 -10.7482208291 c 128,-1,11
 303.211851571 -5.62332712287 303.211851571 -5.62332712287 295.382912637 2.1068685515 c 2,12,-1
 263.425554657 34.0642265313 l 2,13,14
 210.369664 87.1201171875 210.369664 87.1201171875 262.159929657 138.910382843 c 2,15,-1
 291.728289032 168.478742218 l 2,16,17
 297.884470753 174.634923939 297.884470753 174.634923939 304.124094042 179.303331299 c 128,-1,18
 310.36371733 183.971738659 310.36371733 183.971738659 316.697091092 187.146168582 c 0,19,20
 329.459219556 193.542835508 329.459219556 193.542835508 342.46754043 193.615493543 c 0,21,22
 351.102169629 193.663722303 351.102169629 193.663722303 359.664204637 190.885854731 c 128,-1,23
 368.226239646 188.107987158 368.226239646 188.107987158 376.602457689 182.59625145 c 128,-1,24
 384.978675733 177.084515742 384.978675733 177.084515742 393.259843501 168.834359686 c 2,0,-1
129.612399032 168.48180416 m 2,25,-1
 160.245611907 137.848573528 l 2,26,27
 210.827312767 86.9733854853 210.827312767 86.9733854853 158.974836832 35.1198914566 c 2,28,-1
 128.344508759 4.48958206208 l 2,29,30
 78.8048912895 -44.75691358 78.8048912895 -44.75691358 31.3468773344 2.14290509935 c 2,31,-1
 -0.55825798131 34.0481617597 l 2,32,33
 -54.0332215705 86.7162133529 -54.0332215705 86.7162133529 -1.84007672537 138.910376462 c 2,34,-1
 27.7115256848 168.461845343 l 2,35,36
 78.1205410622 219.677152172 78.1205410622 219.677152172 129.612399032 168.48180416 c 2,25,-1
EndSplineSet
EndChar
StartChar: arabic_3dots
Encoding: 65538 -1 268
Width: 422
VWidth: 2162
GlyphClass: 2
Flags: W
LayerCount: 2
Fore
SplineSet
255.838723196 380.085779367 m 2,0,-1
 286.462725358 349.461777205 l 2,1,2
 333.660858737 302.262695673 333.660858737 302.262695673 285.197114562 253.798002625 c 2,3,-1
 254.573105645 223.173993708 l 2,4,5
 208.429717214 177.031552799 208.429717214 177.031552799 164.399543328 221.062672859 c 2,6,-1
 132.718901063 252.742338563 l 2,7,8
 83.1985582144 302.26268141 83.1985582144 302.26268141 131.454275979 350.517450417 c 2,9,-1
 161.021635438 380.085786437 l 2,10,11
 208.429701643 427.493852644 208.429701643 427.493852644 255.838723196 380.085779367 c 2,0,-1
390.088953936 149.455665814 m 2,12,-1
 421.065278625 118.479341125 l 2,13,14
 444.46950669 95.0557234302 444.46950669 95.0557234302 444.140840832 70.941912764 c 128,-1,15
 443.812174973 46.8281020978 443.812174973 46.8281020978 419.799653625 22.8155807498 c 2,16,-1
 389.175630187 -7.80844268762 l 2,17,18
 366.3344194 -30.6496534754 366.3344194 -30.6496534754 343.601028002 -31.1995633766 c 128,-1,19
 320.867636604 -31.7494732778 320.867636604 -31.7494732778 299.002104188 -9.91977081262 c 2,20,-1
 267.322416688 21.7599166873 l 2,21,22
 217.802059937 71.2802734375 217.802059937 71.2802734375 266.056791688 119.535005187 c 2,23,-1
 295.625151063 149.103364562 l 2,24,25
 343.033203125 196.511416626 343.033203125 196.511416626 390.088953936 149.455665814 c 2,12,-1
126.44329737 149.101322383 m 2,26,-1
 157.061193625 118.48343796 l 2,27,28
 204.127806331 71.1437334557 204.127806331 71.1437334557 155.799654193 22.815581317 c 2,29,-1
 125.179803576 -7.80428157864 l 2,30,31
 78.8967544938 -53.8153672876 78.8967544938 -53.8153672876 35.0021078424 -9.91977446765 c 2,32,-1
 3.31161155716 21.7706398859 l 2,33,34
 -46.5748299321 70.9033835682 -46.5748299321 70.9033835682 2.05678743296 119.535000933 c 2,35,-1
 31.6363266269 149.114629146 l 2,36,37
 78.5202252295 196.74843501 78.5202252295 196.74843501 126.44329737 149.101322383 c 2,26,-1
EndSplineSet
EndChar
StartChar: arabic_3dots_a
Encoding: 65539 -1 269
Width: 422
VWidth: 2162
GlyphClass: 2
Flags: W
LayerCount: 2
Fore
SplineSet
254.424516706 -207.03386342 m 2,0,1
 208.429715787 -253.02774435 208.429715787 -253.02774435 162.435849 -207.033877563 c 2,2,-1
 132.868466187 -177.46649475 l 2,3,4
 86.0269714367 -130.625 86.0269714367 -130.625 134.13307103 -82.518900406 c 2,5,-1
 165.813809077 -50.8391389221 l 2,6,7
 208.42971789 -8.22231432715 208.42971789 -8.22231432715 253.158877563 -52.9514739997 c 2,8,-1
 283.782901 -83.5754974372 l 2,9,10
 330.832431973 -130.62502841 330.832431973 -130.62502841 285.048526 -176.409854125 c 2,11,-1
 254.424516706 -207.03386342 l 2,0,1
389.027041625 23.9485443122 m 2,12,13
 343.033203125 -22.045294188 343.033203125 -22.045294188 297.039364625 23.9485443122 c 2,14,-1
 267.47100525 53.5169036872 l 2,15,16
 220.630487062 100.357421875 220.630487062 100.357421875 268.73663025 148.463565063 c 2,17,-1
 300.41631775 180.143252563 l 2,18,19
 343.033174085 222.760108898 343.033174085 222.760108898 387.761416625 178.030947875 c 2,20,-1
 418.385467752 147.406896749 l 2,21,22
 465.435891499 100.357394186 465.435891499 100.357394186 419.651065063 54.5725677497 c 2,23,-1
 389.027041625 23.9485443122 l 2,12,13
125.031111094 23.9526137812 m 2,24,25
 78.53547845 -22.2761991644 78.53547845 -22.2761991644 33.0393646247 23.9485443122 c 2,26,-1
 3.47100524975 53.5169036872 l 2,27,28
 -43.7356792981 100.723588235 -43.7356792981 100.723588235 4.73663024975 148.463565063 c 2,29,-1
 36.4163177497 180.143252563 l 2,30,31
 78.9009126588 222.627847472 78.9009126588 222.627847472 123.761416625 178.030947875 c 2,32,-1
 154.385440063 147.406924438 l 2,33,34
 201.303447731 100.48891677 201.303447731 100.48891677 155.651065063 54.5725677497 c 2,35,-1
 125.031111094 23.9526137812 l 2,24,25
EndSplineSet
EndChar
StartChar: arabic_dot
Encoding: 65536 -1 266
Width: 164
VWidth: 2245
GlyphClass: 2
Flags: W
LayerCount: 2
Fore
SplineSet
132.678710938 170.096679688 m 2,0,-1
 164.528320312 138.247070312 l 2,1,2
 215.024414062 87.4580078125 215.024414062 87.4580078125 163.212890625 35.6455078125 c 2,3,-1
 131.36328125 3.796875 l 2,4,5
 81.951171875 -45.3232421875 81.951171875 -45.3232421875 34.7216796875 1.349609375 c 2,6,-1
 1.5244140625 34.5478515625 l 2,7,8
 -51.935546875 87.201171875 -51.935546875 87.201171875 0.20703125 139.345703125 c 2,9,-1
 30.9580078125 170.095703125 l 2,10,11
 81.2685546875 221.2109375 81.2685546875 221.2109375 132.678710938 170.096679688 c 2,0,-1
EndSplineSet
EndChar
StartChar: arabic_gaf_bar
Encoding: 65550 -1 307
Width: 738
GlyphClass: 2
Flags: W
LayerCount: 2
Fore
SplineSet
728 1686 m 1,0,-1
 0 1333 l 1,1,-1
 0 1442 l 1,2,-1
 728 1795 l 1,3,-1
 728 1686 l 1,0,-1
EndSplineSet
EndChar
StartChar: arabic_ring
Encoding: 65549 -1 279
Width: 452
VWidth: 2241
GlyphClass: 2
Flags: W
LayerCount: 2
Fore
SplineSet
311.995117188 153.612304688 m 128,-1,1
 344.84375 186.459960938 344.84375 186.459960938 344.84375 233.903808594 c 128,-1,2
 344.84375 281.34765625 344.84375 281.34765625 312.032714844 314.744628906 c 128,-1,3
 279.221679688 348.141601562 279.221679688 348.141601562 243.227050781 348.141601562 c 0,4,5
 164.648294246 348.141601562 164.648294246 348.141601562 132.083984375 291.708984375 c 0,6,7
 117.46484375 266.371225074 117.46484375 266.371225074 117.46484375 225.865787362 c 128,-1,8
 117.46484375 185.36034965 117.46484375 185.36034965 150.152835223 153.062010762 c 128,-1,9
 182.840826696 120.763671875 182.840826696 120.763671875 230.994143817 120.763671875 c 128,-1,0
 279.147460938 120.763671875 279.147460938 120.763671875 311.995117188 153.612304688 c 128,-1,1
464.509765625 234.453125 m 128,-1,11
 464.509765625 136.34765625 464.509765625 136.34765625 396.868164062 68.173828125 c 128,-1,12
 329.2265625 -0 329.2265625 -0 231.154296875 0 c 128,-1,13
 133.115234375 0 133.115234375 0 65.4575195312 68.1904296875 c 128,-1,14
 -2.2001953125 136.380859375 -2.2001953125 136.380859375 -2.2001953125 234.453125 c 128,-1,15
 -2.2001953125 332.524414062 -2.2001953125 332.524414062 65.4409179688 400.166015625 c 128,-1,16
 133.08203125 467.807617188 133.08203125 467.807617188 231.154296875 467.807617188 c 128,-1,17
 329.259765625 467.807617188 329.259765625 467.807617188 397.41796875 400.715820312 c 0,18,10
 464.509765625 332.557617188 464.509765625 332.557617188 464.509765625 234.453125 c 128,-1,11
EndSplineSet
EndChar
StartChar: uni066E.fina
Encoding: 65540 -1 270
Width: 1893
VWidth: 2304
GlyphClass: 2
Flags: W
AnchorPoint: "Anchor-10" 735.368 1121.17 basechar 0
AnchorPoint: "Anchor-7" 735.368 -187.744 basechar 0
LayerCount: 2
Fore
SplineSet
290.625976562 710.655273438 m 1,0,1
 268 593 268 593 267.591796875 555.345703125 c 0,2,3
 268 275 268 275 547.8671875 212.385742188 c 0,4,5
 679 183 679 183 940.172851562 183.015625 c 0,6,7
 1433 183 1433 183 1499.7734375 340.8125 c 0,8,9
 1536 427 1536 427 1540.18652344 570.471679688 c 1,10,-1
 1657.59765625 570.471679688 l 1,11,12
 1678 298 1678 298 1763 223 c 0,13,14
 1810 181 1810 181 1883.20800781 181.424804688 c 2,15,-1
 1900.5390625 181.424804688 l 1,16,-1
 1900.5390625 0.5283203125 l 1,17,-1
 1855.80566406 0.5283203125 l 2,18,19
 1666 1 1666 1 1586.62011719 193.762695312 c 1,20,21
 1522 91 1522 91 1375.42285156 37.29296875 c 0,22,23
 1286 4 1286 4 1083.46777344 3.166015625 c 0,24,25
 881 2 881 2 867.595703125 2.234375 c 0,26,27
 609 2 609 2 468.250976562 42.083984375 c 0,28,29
 90 151 90 151 91.60546875 522.338867188 c 0,30,31
 92 622 92 622 129.100585938 746.998046875 c 1,32,-1
 290.625976562 710.655273438 l 1,0,1
EndSplineSet
EndChar
StartChar: uni066E.init.math
Encoding: 65560 -1 290
Width: 934
VWidth: 2393
GlyphClass: 2
Flags: W
LayerCount: 2
Fore
SplineSet
619.3515625 102.729492188 m 0,0,1
 541.154296875 9.3349609375 541.154296875 9.3349609375 366.676757812 9.3349609375 c 2,2,-1
 -11.42578125 9.3349609375 l 1,3,-1
 -11.42578125 182.681640625 l 1,4,-1
 302.045898438 182.681640625 l 2,5,6
 314.4765625 182.681640625 314.4765625 182.681640625 326.244140625 183.252929688 c 128,-1,7
 338.012695312 183.825195312 338.012695312 183.825195312 349.141601562 184.970703125 c 128,-1,8
 360.270507812 186.1171875 360.270507812 186.1171875 370.740234375 187.837890625 c 128,-1,9
 381.208984375 189.55859375 381.208984375 189.55859375 391.037109375 191.857421875 c 128,-1,10
 400.864257812 194.157226562 400.864257812 194.157226562 410.03515625 197.034179688 c 0,11,12
 425.337890625 201.834960938 425.337890625 201.834960938 438.791015625 208.274414062 c 128,-1,13
 452.244140625 214.713867188 452.244140625 214.713867188 463.872070312 222.818359375 c 128,-1,14
 475.500976562 230.921875 475.500976562 230.921875 485.245117188 240.666992188 c 0,15,16
 549.10546875 304.525390625 549.10546875 304.525390625 549.10546875 437.967773438 c 2,17,-1
 549.10546875 671.530273438 l 1,18,-1
 722.453125 671.530273438 l 1,19,-1
 722.453125 437.967773438 l 2,20,21
 722.182617188 331.42578125 722.182617188 331.42578125 696.61328125 247.935546875 c 0,22,23
 670.819335938 164.268554688 670.819335938 164.268554688 619.3515625 102.729492188 c 0,0,1
EndSplineSet
EndChar
StartChar: uni066F.fina
Encoding: 65546 -1 276
Width: 1535
VWidth: 2393
GlyphClass: 2
Flags: W
AnchorPoint: "Anchor-10" 370.318 986.747 basechar 0
AnchorPoint: "Anchor-7" 479.753 -650.531 basechar 0
LayerCount: 2
Fore
SplineSet
1405.35839844 0.5498046875 m 4,0,1
 1355 -480 1355 -480 779.286132812 -479.88671875 c 4,2,3
 98 -480 98 -480 97.90234375 94.0986328125 c 4,4,5
 98 258 98 258 174.8671875 482.0703125 c 5,6,-1
 339.565429688 446.689453125 l 5,7,8
 270 244 270 244 270.358398438 87.2041015625 c 4,9,10
 271 -309 271 -309 762.1875 -309.268554688 c 4,11,12
 1222 -309 1222 -309 1244.78613281 1 c 5,13,-1
 1079.80664062 1.16015625 l 28,14,15
 900 4 900 4 817.782226562 115.106445312 c 4,16,17
 758 197 758 197 757.6796875 298.24609375 c 4,18,19
 758 400 758 400 808.369140625 510.5546875 c 4,20,21
 916 746 916 746 1078.84667969 745.967773438 c 4,22,23
 1276 746 1276 746 1353.8046875 567.5625 c 4,24,25
 1409 442 1409 442 1414.05175781 231.932617188 c 6,26,-1
 1415.34179688 183.079101562 l 5,27,-1
 1545.99902344 182.690429688 l 5,28,-1
 1545.99902344 0.5498046875 l 5,29,-1
 1405.35839844 0.5498046875 l 4,0,1
1165.34667969 528.833984375 m 4,30,31
 1133 551 1133 551 1079.43066406 551.322265625 c 4,32,33
 1025 551 1025 551 973.678710938 479.708984375 c 4,34,35
 922 408 922 408 921.958984375 314.54296875 c 4,36,37
 922 184 922 184 1106.24511719 183.83984375 c 4,38,39
 1179 184 1179 184 1251.45214844 184.830078125 c 5,40,-1
 1251.45214844 190.950195312 l 6,41,42
 1251 470 1251 470 1165.34667969 528.833984375 c 4,30,31
EndSplineSet
EndChar
StartChar: uni06A1.fina
Encoding: 65543 -1 273
Width: 2092
VWidth: 2393
GlyphClass: 2
Flags: W
AnchorPoint: "Anchor-10" 656.174 1280.53 basechar 0
AnchorPoint: "Anchor-7" 556.233 -240.536 basechar 0
LayerCount: 2
Fore
SplineSet
1406.609375 502.997070312 m 128,-1,1
 1406.609375 430.418945312 1406.609375 430.418945312 1459.30957031 378.90625 c 128,-1,2
 1511.94238281 327.454101562 1511.94238281 327.454101562 1586.56835938 327.454101562 c 128,-1,3
 1661.19042969 327.454101562 1661.19042969 327.454101562 1713.82617188 378.905273438 c 128,-1,4
 1766.52539062 430.420898438 1766.52539062 430.420898438 1766.52539062 502.997070312 c 128,-1,5
 1766.52539062 575.569335938 1766.52539062 575.569335938 1713.82421875 627.083007812 c 128,-1,6
 1661.18847656 678.536132812 1661.18847656 678.536132812 1586.56835938 678.536132812 c 128,-1,7
 1511.94042969 678.536132812 1511.94042969 678.536132812 1459.31152344 627.083984375 c 128,-1,0
 1406.609375 575.572265625 1406.609375 575.572265625 1406.609375 502.997070312 c 128,-1,1
1416.96191406 215.874023438 m 1,8,9
 1248 329 1248 329 1248.42285156 512.415039062 c 0,10,11
 1248 718 1248 718 1434 805 c 0,12,13
 1515 843 1515 843 1601.96386719 837.352539062 c 0,14,15
 1700 831 1700 831 1758.50292969 798.92578125 c 0,16,17
 1924 707 1924 707 1924 516.5 c 128,-1,18
 1924 326 1924 326 1738.74609375 204.401367188 c 5,19,20
 1865 183 1865 183 2032.59277344 182.681640625 c 6,21,-1
 2102.59765625 182.681640625 l 1,22,-1
 2102.59765625 0.5498046875 l 1,23,-1
 1932.55371094 0.5498046875 l 2,24,25
 1688 1 1688 1 1576.18359375 113.084960938 c 1,26,27
 1460 47 1460 47 1320.59960938 24.7177734375 c 0,28,29
 1172 0 1172 0 917.734374998 0 c 0,30,31
 635 0 635 0 462.243652344 47.1850585938 c 0,32,33
 289 94 289 94 193.095703125 220.802734375 c 0,34,35
 97 347 97 347 96.0078125 548.8984375 c 0,36,37
 96 651 96 651 135.850585938 763.282226562 c 1,38,-1
 301.634765625 730.672851562 l 1,39,40
 275 601 275 601 274.86328125 563.454101562 c 0,41,42
 278 268 278 268 576.850585938 208.750976562 c 0,43,44
 732 178 732 178 1152.83691406 186.869140625 c 0,45,46
 1316 190 1316 190 1416.96191406 215.874023438 c 1,8,9
EndSplineSet
EndChar
StartChar: uni06A1.init
Encoding: 65544 -1 274
Width: 855
VWidth: 2304
GlyphClass: 2
Flags: W
AnchorPoint: "Anchor-10" 419.239 1285.9 basechar 0
AnchorPoint: "Anchor-7" 392.84 -178.24 basechar 0
LayerCount: 2
Fore
SplineSet
-13.87109375 181.002929688 m 1,0,-1
 77.591796875 181.002929688 l 2,1,2
 357 181 357 181 441 211 c 0,3,4
 565.617262295 255.862214426 565.617262295 255.862214426 585.849609375 327.778320312 c 2,5,-1
 587.408203125 333.318359375 l 1,6,7
 438 321 438 321 429.619140625 320.532226562 c 0,8,9
 264 320 264 320 183.909179688 429.4140625 c 0,10,11
 71.3570140863 584.777997355 71.3570140863 584.777997355 175.716400975 812.195710165 c 0,12,13
 281 1041 281 1041 455.634652806 1040.60253906 c 0,14,15
 630 1041 630 1041 717.8828125 809.474609375 c 0,16,17
 763 690 763 690 763.168472206 537.082315148 c 0,18,19
 763 251 763 251 614.12109375 125.584960938 c 0,20,21
 465 0 465 0 198.21875 0 c 2,22,-1
 -13.87109375 0 l 1,23,-1
 -13.87109375 181.002929688 l 1,0,-1
600.329101562 502.141601562 m 2,24,25
 599.846478372 848.277785636 599.846478372 848.277785636 446.641601562 847.708984375 c 0,26,27
 387.07207699 847.977105523 387.07207699 847.977105523 338.045315839 780.094509792 c 128,-1,28
 289.018554688 712.211914062 289.018554688 712.211914062 288.830078125 628.555664062 c 0,29,30
 289.021484375 487.280273438 289.021484375 487.280273438 462.962890625 486.561523438 c 0,31,32
 525.664425084 486.20617439 525.664425084 486.20617439 600.333984375 498.752929688 c 1,33,-1
 600.329101562 502.141601562 l 2,24,25
EndSplineSet
EndChar
StartChar: uni06A1.medi
Encoding: 65545 -1 275
Width: 1070
VWidth: 2393
GlyphClass: 2
Flags: W
AnchorPoint: "Anchor-10" 535.245 1104.26 basechar 0
AnchorPoint: "Anchor-7" 535.245 -188.369 basechar 0
LayerCount: 2
Fore
SplineSet
357.234375 505.638671875 m 128,-1,1
 357.234375 433.060546875 357.234375 433.060546875 409.934570312 381.547851562 c 128,-1,2
 462.567382812 330.095703125 462.567382812 330.095703125 537.193359375 330.095703125 c 128,-1,3
 611.815429688 330.095703125 611.815429688 330.095703125 664.451171875 381.546875 c 128,-1,4
 717.150390625 433.0625 717.150390625 433.0625 717.150390625 505.638671875 c 128,-1,5
 717.150390625 578.2109375 717.150390625 578.2109375 664.44921875 629.724609375 c 128,-1,6
 611.813476562 681.177734375 611.813476562 681.177734375 537.193359375 681.177734375 c 128,-1,7
 462.565429688 681.177734375 462.565429688 681.177734375 409.936523438 629.725585938 c 128,-1,0
 357.234375 578.213867188 357.234375 578.213867188 357.234375 505.638671875 c 128,-1,1
535.299804688 118.352539062 m 1,8,9
 354 0 354 0 203.345703125 0 c 2,10,-1
 -9.3515625 0 l 1,11,-1
 -9.3515625 182.243164062 l 1,12,-1
 52.55859375 182.243164062 l 2,13,14
 292 182 292 182 367.750976562 219.974609375 c 1,15,16
 199 332 199 332 199.047851562 515.056640625 c 0,17,18
 199 726 199 726 392.561523438 809.685546875 c 0,19,20
 465 841 465 841 552.588867188 835.994140625 c 0,21,22
 651 830 651 830 709.127929688 797.567382812 c 0,23,24
 875 706 875 706 874.69140625 512.635742188 c 0,25,26
 875 329 875 329 689.37109375 207.04296875 c 1,27,28
 807.436523438 180.903320312 807.436523438 180.903320312 1018.54980469 182.243164062 c 2,29,-1
 1080.41113281 182.635742188 l 1,30,-1
 1080.41113281 0.53125 l 1,31,-1
 868.814453125 0 l 2,32,33
 767 0 767 0 535.299804688 118.352539062 c 1,8,9
EndSplineSet
EndChar
